%
M48
M72
T01C0.0236
T02C0.0240
T03C0.0320
T04C0.1181
%
T01
X5297Y13492
X10848Y13492
X16360Y13492
X21872Y13492
X27383Y13492
X32895Y13492
X38407Y13492
X43919Y13492
X49470Y13492
X54903Y13492
X60376Y13492
X60376Y12114
X57817Y26287
X60454Y28846
X63446Y26287
X65966Y28846
X71517Y28846
X77029Y28846
X82502Y28846
X88053Y28846
X85297Y40854
X88013Y42232
X90887Y40854
X92069Y40854
X82502Y42232
X79982Y40854
X76990Y42232
X74352Y40854
X69509Y42232
X68958Y40854
X63328Y40854
X62187Y42232
X57935Y40854
X54943Y42232
X52305Y40854
X46990Y38689
X44037Y40067
X41399Y38689
X38525Y40067
X35966Y38689
X33053Y40067
X30376Y38689
X27502Y40067
X24864Y38689
X22029Y40067
X19431Y38689
X16557Y40067
X13840Y38689
X11006Y40067
X8407Y38689
X5454Y40067
X4273Y40067
X3092Y40067
X8250Y52665
X13880Y52665
X19431Y52665
X24746Y52665
X30415Y52665
X35887Y52665
X41399Y52665
X46990Y52665
X54939Y28846
X52502Y26287
X46714Y26287
X44116Y26287
X41202Y26287
X38604Y26287
X35887Y26287
X33013Y26287
X30257Y26287
X27502Y26287
X24864Y26287
X21990Y26287
X19155Y26287
X16478Y26287
X13919Y26287
X10966Y26287
X8131Y26287
X5454Y26287
X4273Y26287
X3092Y26287
X92069Y13492
X92069Y12114
T02
X10179Y12705
X20809Y19594
X21202Y19201
X22974Y21563
X24352Y23925
X26714Y27075
X25533Y28650
X23368Y29240
X28880Y29240
X31045Y29437
X34391Y28453
X34982Y27469
X32226Y25303
X32817Y23531
X32226Y21957
X28880Y22941
X29864Y27075
X37344Y21563
X39903Y20972
X40100Y20185
X42265Y20579
X42069Y22154
X40691Y23531
X39903Y24122
X43250Y24319
X43643Y25303
X42069Y27469
X45415Y30028
X47580Y28453
X48368Y28846
X48761Y29634
X51124Y29240
X53880Y28650
X53092Y27075
X53486Y25500
X54667Y25106
X55061Y24713
X53486Y23925
X53092Y24516
X56832Y24319
X57423Y23531
X57226Y21957
X56635Y21957
X57226Y19988
X59194Y17626
X59194Y15461
X59588Y15067
X61360Y15461
X62541Y14673
X61950Y13689
X61557Y13295
X61950Y12311
X62738Y12114
X63525Y12311
X65297Y11917
X66084Y11917
X66281Y12902
X65691Y12902
X67069Y12508
X67265Y14083
X68250Y13689
X69234Y12508
X69234Y11917
X71596Y12508
X71990Y12902
X72974Y12902
X77502Y14870
X77108Y15657
X76517Y16051
X78092Y17232
X79076Y15657
X79864Y15264
X78486Y11917
X81832Y11917
X84982Y13295
X73565Y18610
X70218Y17232
X69431Y19004
X67462Y19004
X66084Y18610
X64509Y17626
X64903Y19988
X65297Y21563
X62541Y20776
X62147Y21563
X61360Y21563
X59982Y24713
X58998Y27075
X60376Y28059
X62344Y30224
X64116Y28846
X64706Y29831
X64706Y30421
X65100Y31996
X66872Y33177
X65297Y33571
X62344Y33571
X61950Y35539
X62344Y35933
X59785Y35539
X58801Y34161
X57029Y34161
X56242Y34358
X53683Y34161
X51714Y35539
X51124Y36720
X51124Y37705
X51517Y38098
X53683Y39083
X57423Y38295
X59785Y38295
X60769Y38098
X60376Y39476
X55848Y36524
X53486Y32783
X53880Y32390
X53880Y31799
X54273Y30618
X56832Y31012
X56832Y30028
X59391Y31602
X56439Y28059
X56242Y27469
X49943Y27075
X48565Y27469
X49155Y23728
X48171Y22547
X48171Y19594
X50336Y19594
X53092Y19004
X53289Y19988
X47974Y17035
X48958Y15461
X47974Y14476
X50533Y12705
X51124Y12705
X53092Y14476
X53880Y14280
X52698Y16051
X59194Y12114
X61163Y10933
X61163Y10343
X58801Y10736
X63919Y14673
X64706Y14476
X68250Y20776
X73171Y23531
X75730Y23925
X75139Y25303
X74352Y26287
X72777Y26878
X72777Y28059
X70415Y27272
X68643Y27075
X66872Y27665
X66872Y26287
X67265Y25303
X67069Y24319
X68643Y25106
X65100Y26681
X69628Y29634
X67856Y30224
X73565Y32587
X75730Y31996
X78880Y31602
X81242Y31209
X81832Y30618
X80651Y29634
X78289Y28059
X77895Y27075
X78683Y26287
X76911Y26091
X76517Y25697
X81242Y26287
X87344Y26878
X87541Y27469
X86754Y30618
X86360Y31012
X84785Y31602
X86360Y32390
X84588Y33965
X84194Y34555
X83998Y35343
X81242Y35539
X81242Y33177
X87147Y35343
X84785Y38492
X78880Y40067
X78092Y38098
X76320Y37705
X75139Y38098
X73368Y39083
X71202Y39870
X67856Y38098
X67265Y38689
X69628Y37705
X73171Y36524
X70218Y34161
X83013Y43020
X78880Y44988
X74549Y43807
X73565Y45382
X70809Y47744
X65887Y46366
X63525Y44398
X53880Y43020
X52108Y42232
X51124Y42626
X51320Y43807
X47974Y45972
X48368Y47744
X53880Y48728
X55454Y52272
X52698Y53453
X58998Y53059
X63131Y51287
X63919Y51878
X67069Y53453
X67856Y52075
X49155Y41248
X48368Y40657
X47580Y39870
X46596Y40264
X45021Y36524
X42856Y36130
X42265Y35736
X44628Y33571
X45415Y32587
X47974Y31996
X48761Y31602
X51124Y32587
X48761Y34555
X42659Y30618
X39706Y30618
X37344Y37705
X35966Y40854
X37344Y43020
X36950Y44398
X39903Y43217
X39706Y41445
X26320Y50697
X15297Y45972
X20612Y43020
X20021Y41248
X15691Y42232
X14509Y40854
X8998Y42626
X6439Y46760
X9391Y48335
X6832Y50303
X12541Y51878
X17856Y35933
X9982Y33177
X9391Y34555
X36950Y19004
X37738Y19004
X34194Y15657
X34194Y15067
X31832Y15264
X31045Y12705
X33013Y12508
X36754Y12508
X39313Y11917
X42856Y12311
T03
X41403Y14583
X41403Y15583
X41403Y16583
X41403Y17583
X41403Y18583
X41403Y19583
X41403Y20583
X41403Y21583
X41403Y22583
X43915Y22583
X43915Y21583
X43915Y20583
X43915Y19583
X43915Y18583
X43915Y17583
X43915Y16583
X43915Y15583
X46915Y15583
X46915Y16583
X46915Y17583
X46915Y18583
X46915Y19583
X46915Y20583
X46915Y21583
X46915Y22583
X49427Y22594
X49427Y21594
X49427Y20594
X49427Y19594
X49427Y18594
X49427Y17594
X49427Y16594
X52427Y16594
X52427Y17594
X52427Y18594
X52427Y19594
X52427Y20594
X52427Y21594
X52427Y22594
X54939Y22583
X54939Y21583
X54939Y20583
X54939Y19583
X54939Y18583
X54939Y17583
X54939Y16583
X54939Y15583
X57939Y15583
X57939Y16583
X57939Y17583
X57939Y18583
X57939Y19583
X57939Y20583
X57939Y21583
X57939Y22583
X60450Y22583
X60450Y21583
X60450Y20583
X60450Y19583
X60450Y18583
X60450Y17583
X60450Y16583
X60450Y15583
X63450Y15583
X63450Y16583
X63450Y17583
X63450Y18583
X63450Y19583
X63450Y20583
X63450Y21583
X63450Y22583
X57832Y24516
X55832Y24516
X52427Y28071
X52427Y29071
X52427Y30071
X52427Y31071
X52427Y32071
X52427Y33071
X52427Y34071
X52427Y35071
X52427Y36071
X52427Y37071
X54939Y37071
X54939Y36071
X54939Y35071
X54939Y34071
X54939Y33071
X54939Y32071
X54939Y31071
X54939Y30071
X57939Y30071
X57939Y31071
X57939Y32071
X57939Y33071
X57939Y34071
X57939Y35071
X57939Y36071
X57939Y37071
X60450Y37071
X60450Y36071
X60450Y35071
X60450Y34071
X60450Y33071
X60450Y32071
X60450Y31071
X60450Y30071
X63450Y30071
X63450Y31071
X63450Y32071
X63450Y33071
X63450Y34071
X63450Y35071
X63450Y36071
X63450Y37071
X65962Y37071
X65962Y36071
X65962Y35071
X65962Y34071
X65962Y33071
X65962Y32071
X65962Y31071
X65962Y30071
X68962Y30071
X68962Y31071
X68962Y32071
X68962Y33071
X68962Y34071
X68962Y35071
X68962Y36071
X68962Y37071
X71474Y37083
X71474Y36083
X71474Y35083
X71474Y34083
X71474Y33083
X71474Y32083
X71474Y31083
X74474Y31083
X74474Y32083
X74474Y33083
X74474Y34083
X74474Y35083
X74474Y36083
X74474Y37083
X76986Y37071
X76986Y36071
X76986Y35071
X76986Y34071
X76986Y33071
X76986Y32071
X76986Y31071
X76986Y30071
X79986Y30071
X79986Y31071
X79986Y32071
X79986Y33071
X79986Y34071
X79986Y35071
X79986Y36071
X79986Y37071
X82498Y37071
X82498Y36071
X82498Y35071
X82498Y34071
X82498Y33071
X82498Y32071
X82498Y31071
X82498Y30071
X85498Y30071
X85498Y31071
X85498Y32071
X85498Y33071
X85498Y34071
X85498Y35071
X85498Y36071
X85498Y37071
X88009Y37071
X88009Y36071
X88009Y35071
X88009Y34071
X88009Y33071
X88009Y32071
X88009Y31071
X88009Y30071
X91009Y30071
X91009Y31071
X91009Y32071
X91009Y33071
X91009Y34071
X91009Y35071
X91009Y36071
X91009Y37071
X85391Y39083
X83391Y39083
X82498Y43850
X82498Y44850
X82498Y45850
X82498Y46850
X82498Y47850
X82498Y48850
X82498Y49850
X82498Y50850
X79986Y50850
X79986Y49850
X79986Y48850
X79986Y47850
X79986Y46850
X79986Y45850
X79986Y44850
X79986Y43850
X76986Y43850
X76986Y44850
X76986Y45850
X76986Y46850
X76986Y47850
X76986Y48850
X76986Y49850
X76986Y50850
X74746Y51409
X72506Y50850
X72506Y49850
X72506Y48850
X72506Y47850
X72506Y46850
X72506Y45850
X72506Y44850
X72506Y43850
X74746Y43094
X74746Y46094
X74746Y48409
X69506Y48850
X69506Y47850
X69506Y46850
X69506Y45850
X69506Y44850
X69506Y43850
X67265Y43094
X65222Y43850
X65222Y44850
X65222Y45850
X65222Y46850
X65222Y47850
X65222Y48850
X65222Y49850
X65222Y50850
X67265Y51409
X67734Y52902
X66600Y52902
X63600Y52902
X62663Y52902
X59663Y52902
X58423Y52902
X56423Y52902
X55183Y52902
X52895Y51409
X54939Y50850
X54939Y49850
X54939Y48850
X54939Y47850
X54939Y46850
X54939Y45850
X54939Y44850
X54939Y43850
X52895Y43094
X52895Y46094
X52895Y48409
X57939Y48850
X57939Y47850
X57939Y46850
X57939Y45850
X57939Y44850
X57939Y43850
X59982Y43094
X62222Y43850
X62222Y44850
X62222Y45850
X62222Y46850
X62222Y47850
X62222Y48850
X62222Y49850
X62222Y50850
X59982Y51409
X57939Y50850
X57939Y49850
X59982Y48409
X59982Y46094
X67265Y46094
X67265Y48409
X69506Y49850
X69506Y50850
X70734Y52902
X71671Y52902
X74671Y52902
X75805Y52902
X78805Y52902
X79742Y52902
X82742Y52902
X85498Y50850
X85498Y49850
X85498Y48850
X85498Y47850
X85498Y46850
X85498Y45850
X85498Y44850
X85498Y43850
X88009Y43850
X88009Y44850
X88009Y45850
X88009Y46850
X88009Y47850
X88009Y48850
X88009Y49850
X88009Y50850
X91009Y50850
X91009Y49850
X91009Y48850
X91009Y47850
X91009Y46850
X91009Y45850
X91009Y44850
X91009Y43850
X89328Y52902
X87328Y52902
X74368Y39083
X72368Y39083
X63344Y39083
X61344Y39083
X52320Y39083
X50320Y39083
X49427Y37071
X49427Y36071
X49427Y35071
X49427Y34071
X49427Y33071
X49427Y32071
X49427Y31071
X49427Y30071
X49427Y29071
X49427Y28071
X46021Y28059
X44021Y28059
X43915Y30071
X43915Y31071
X43915Y32071
X43915Y33071
X43915Y34071
X43915Y35071
X43915Y36071
X43915Y37071
X41403Y37071
X41403Y36071
X41403Y35071
X41403Y34071
X41403Y33071
X41403Y32071
X41403Y31071
X41403Y30071
X38403Y30071
X38403Y31071
X38403Y32071
X38403Y33071
X38403Y34071
X38403Y35071
X38403Y36071
X38403Y37071
X35891Y37071
X35891Y36071
X35891Y35071
X35891Y34071
X35891Y33071
X35891Y32071
X35891Y31071
X35891Y30071
X32891Y30071
X32891Y31071
X32891Y32071
X32891Y33071
X32891Y34071
X32891Y35071
X32891Y36071
X32891Y37071
X30380Y37071
X30380Y36071
X30380Y35071
X30380Y34071
X30380Y33071
X30380Y32071
X30380Y31071
X30380Y30071
X27380Y30071
X27380Y31071
X27380Y32071
X27380Y33071
X27380Y34071
X27380Y35071
X27380Y36071
X27380Y37071
X24868Y37071
X24868Y36071
X24868Y35071
X24868Y34071
X24868Y33071
X24868Y32071
X24868Y31071
X24868Y30071
X23974Y28059
X21974Y28059
X21868Y30071
X21868Y31071
X21868Y32071
X21868Y33071
X21868Y34071
X21868Y35071
X21868Y36071
X21868Y37071
X19356Y37071
X19356Y36071
X19356Y35071
X19356Y34071
X19356Y33071
X19356Y32071
X19356Y31071
X19356Y30071
X16356Y30071
X16356Y31071
X16356Y32071
X16356Y33071
X16356Y34071
X16356Y35071
X16356Y36071
X16356Y37071
X13844Y37071
X13844Y36071
X13844Y35071
X13844Y34071
X13844Y33071
X13844Y32071
X13844Y31071
X13844Y30071
X10844Y30071
X10844Y31071
X10844Y32071
X10844Y33071
X10844Y34071
X10844Y35071
X10844Y36071
X10844Y37071
X8332Y37071
X8332Y36071
X8332Y35071
X8332Y34071
X8332Y33071
X8332Y32071
X8332Y31071
X8332Y30071
X5332Y30071
X5332Y31071
X5332Y32071
X5332Y33071
X5332Y34071
X5332Y35071
X5332Y36071
X5332Y37071
X5439Y41839
X7439Y41839
X8332Y43850
X8332Y44850
X8332Y45850
X8332Y46850
X8332Y47850
X8332Y48850
X8332Y49850
X8332Y50850
X10844Y50850
X10844Y49850
X10844Y48850
X10844Y47850
X10844Y46850
X10844Y45850
X10844Y44850
X10844Y43850
X13844Y43850
X13844Y44850
X13844Y45850
X13844Y46850
X13844Y47850
X13844Y48850
X13844Y49850
X13844Y50850
X16356Y50850
X16356Y49850
X16356Y48850
X16356Y47850
X16356Y46850
X16356Y45850
X16356Y44850
X16356Y43850
X19356Y43850
X19356Y44850
X19356Y45850
X19356Y46850
X19356Y47850
X19356Y48850
X19356Y49850
X19356Y50850
X21868Y50850
X21868Y49850
X21868Y48850
X21868Y47850
X21868Y46850
X21868Y45850
X21868Y44850
X21868Y43850
X21974Y41839
X23974Y41839
X27486Y41839
X29486Y41839
X30380Y43850
X30380Y44850
X30380Y45850
X30380Y46850
X30380Y47850
X30380Y48850
X30380Y49850
X30380Y50850
X32891Y50850
X32891Y49850
X32891Y48850
X32891Y47850
X32891Y46850
X32891Y45850
X32891Y44850
X32891Y43850
X35891Y43850
X35891Y44850
X35891Y45850
X35891Y46850
X35891Y47850
X35891Y48850
X35891Y49850
X35891Y50850
X38403Y50850
X38403Y49850
X38403Y48850
X38403Y47850
X38403Y46850
X38403Y45850
X38403Y44850
X38403Y43850
X41403Y43850
X41403Y44850
X41403Y45850
X41403Y46850
X41403Y47850
X41403Y48850
X41403Y49850
X41403Y50850
X43915Y50850
X43915Y49850
X43915Y48850
X43915Y47850
X43915Y46850
X43915Y45850
X43915Y44850
X43915Y43850
X46915Y43850
X46915Y44850
X46915Y45850
X46915Y46850
X46915Y47850
X46915Y48850
X46915Y49850
X46915Y50850
X48246Y52902
X51246Y52902
X52183Y52902
X46021Y41839
X44021Y41839
X40509Y41839
X38509Y41839
X34998Y41839
X32998Y41839
X27380Y43850
X27380Y44850
X27380Y45850
X27380Y46850
X27380Y47850
X27380Y48850
X27380Y49850
X27380Y50850
X24868Y50850
X24868Y49850
X24868Y48850
X24868Y47850
X24868Y46850
X24868Y45850
X24868Y44850
X24868Y43850
X18462Y41839
X16462Y41839
X12950Y41839
X10950Y41839
X5332Y43850
X5332Y44850
X5332Y45850
X5332Y46850
X5332Y47850
X5332Y48850
X5332Y49850
X5332Y50850
X5439Y28059
X7439Y28059
X10950Y28059
X12950Y28059
X16462Y28059
X18462Y28059
X19250Y24516
X17250Y24516
X16356Y22594
X16356Y21594
X16356Y20594
X16356Y19594
X16356Y18594
X16356Y17594
X16356Y16594
X13844Y16594
X13844Y17594
X13844Y18594
X13844Y19594
X13844Y20594
X13844Y21594
X13844Y22594
X10844Y22594
X10844Y21594
X10844Y20594
X10844Y19594
X10844Y18594
X10844Y17594
X10844Y16594
X8332Y16594
X8332Y17594
X8332Y18594
X8332Y19594
X8332Y20594
X8332Y21594
X8332Y22594
X5332Y22594
X5332Y21594
X5332Y20594
X5332Y19594
X5332Y18594
X5332Y17594
X5332Y16594
X6561Y14870
X3561Y14870
X6226Y24516
X8226Y24516
X19356Y22594
X19356Y21594
X19356Y20594
X19356Y19594
X19356Y18594
X19356Y17594
X19356Y16594
X21868Y16594
X21868Y17594
X21868Y18594
X21868Y19594
X21868Y20594
X21868Y21594
X21868Y22594
X24868Y22594
X24868Y21594
X24868Y20594
X24868Y19594
X24868Y18594
X24868Y17594
X24868Y16594
X27380Y16594
X27380Y17594
X27380Y18594
X27380Y19594
X27380Y20594
X27380Y21594
X27380Y22594
X30380Y22594
X30380Y21594
X30380Y20594
X30380Y19594
X30380Y18594
X30380Y17594
X30380Y16594
X32891Y16594
X32891Y17594
X32891Y18594
X32891Y19594
X32891Y20594
X32891Y21594
X32891Y22594
X35891Y22594
X35891Y21594
X35891Y20594
X35891Y19594
X35891Y18594
X35891Y17594
X35891Y16594
X38403Y16583
X38403Y17583
X38403Y18583
X38403Y19583
X38403Y20583
X38403Y21583
X38403Y22583
X39297Y24516
X41297Y24516
X44809Y24516
X46809Y24516
X40509Y28059
X38509Y28059
X34998Y28059
X32998Y28059
X29486Y28059
X27486Y28059
X28273Y24516
X30273Y24516
X38403Y15583
X38403Y14583
X46915Y30071
X46915Y31071
X46915Y32071
X46915Y33071
X46915Y34071
X46915Y35071
X46915Y36071
X46915Y37071
X89706Y27591
X89706Y24591
X89706Y22398
X89706Y16398
T04
X93053Y54437
X2108Y54437
M30
