G75*
%MOIN*%
%OFA0B0*%
%FSLAX25Y25*%
%IPPOS*%
%LPD*%
%AMOC8*
5,1,8,0,0,1.08239X$1,22.5*
%
%ADD10C,0.04724*%
%ADD11C,0.01969*%
%ADD12C,0.03937*%
%ADD13R,0.06693X0.47244*%
%ADD14C,0.05200*%
%ADD15OC8,0.05200*%
%ADD16C,0.08500*%
%ADD17OC8,0.08500*%
%ADD18C,0.07874*%
%ADD19R,0.07874X0.07874*%
%ADD20R,0.03962X0.03962*%
%ADD21C,0.01000*%
%ADD22C,0.04000*%
%ADD23C,0.07874*%
D10*
X0627378Y0010906D02*
X0627378Y0038465D01*
X0637220Y0038465D02*
X0637220Y0010906D01*
X0647063Y0010906D02*
X0647063Y0038465D01*
X0656906Y0038465D02*
X0656906Y0010906D01*
X0666748Y0010906D02*
X0666748Y0038465D01*
X0676591Y0038465D02*
X0676591Y0010906D01*
X0686433Y0010906D02*
X0686433Y0038465D01*
X0696276Y0038465D02*
X0696276Y0010906D01*
X0706118Y0010906D02*
X0706118Y0038465D01*
X0715961Y0038465D02*
X0715961Y0010906D01*
X0725803Y0010906D02*
X0725803Y0038465D01*
X0735646Y0038465D02*
X0735646Y0010906D01*
X0745488Y0010906D02*
X0745488Y0038465D01*
X0755331Y0038465D02*
X0755331Y0010906D01*
X0765173Y0010906D02*
X0765173Y0038465D01*
X0775016Y0038465D02*
X0775016Y0010906D01*
X0784858Y0010906D02*
X0784858Y0038465D01*
X0794701Y0038465D02*
X0794701Y0010906D01*
X0804543Y0010906D02*
X0804543Y0038465D01*
X0814386Y0038465D02*
X0814386Y0010906D01*
X0824228Y0010906D02*
X0824228Y0038465D01*
X0834071Y0038465D02*
X0834071Y0010906D01*
X0843913Y0010906D02*
X0843913Y0038465D01*
X0853756Y0038465D02*
X0853756Y0010906D01*
X0863598Y0010906D02*
X0863598Y0038465D01*
X0873441Y0038465D02*
X0873441Y0010906D01*
X0883283Y0010906D02*
X0883283Y0038465D01*
X0893126Y0038465D02*
X0893126Y0010906D01*
X0902969Y0010906D02*
X0902969Y0038465D01*
X0912811Y0038465D02*
X0912811Y0010906D01*
D11*
X0893126Y0038465D02*
X0893126Y0069567D01*
X0883283Y0069567D02*
X0883283Y0038858D01*
X0873441Y0038465D02*
X0873441Y0069567D01*
X0863598Y0069567D02*
X0863598Y0038465D01*
X0853756Y0038858D02*
X0853756Y0069567D01*
X0843913Y0069567D02*
X0843913Y0038465D01*
X0834071Y0038858D02*
X0834071Y0069567D01*
X0824228Y0069567D02*
X0824228Y0038465D01*
X0814386Y0038465D02*
X0814386Y0069567D01*
X0804543Y0069567D02*
X0804543Y0038465D01*
X0794701Y0038465D02*
X0794701Y0069567D01*
X0784858Y0069567D02*
X0784858Y0038465D01*
X0775016Y0038465D02*
X0775016Y0069567D01*
X0765173Y0069567D02*
X0765173Y0038465D01*
X0755331Y0038465D02*
X0755331Y0069567D01*
X0745488Y0069567D02*
X0745488Y0038465D01*
X0735646Y0038465D02*
X0735646Y0069567D01*
X0725803Y0069567D02*
X0725803Y0038858D01*
X0715961Y0040039D02*
X0715961Y0069567D01*
X0706118Y0069567D02*
X0706118Y0039646D01*
X0696276Y0038465D02*
X0696276Y0069567D01*
X0686433Y0069567D02*
X0686433Y0039252D01*
X0676591Y0038858D02*
X0676591Y0069567D01*
X0666748Y0069567D02*
X0666748Y0038465D01*
X0656906Y0038465D02*
X0656906Y0069567D01*
X0647063Y0069567D02*
X0647063Y0039252D01*
X0637220Y0038465D02*
X0637220Y0069173D01*
X0627378Y0069173D02*
X0627378Y0039252D01*
X0932496Y0163976D02*
X0932496Y0164449D01*
D12*
X0932496Y0163976D02*
X0897063Y0163976D01*
X0893126Y0091220D02*
X0902969Y0091220D01*
X0912811Y0091220D01*
X0914780Y0091220D01*
X0912811Y0068386D02*
X0912811Y0038465D01*
X0902969Y0038465D02*
X0902969Y0068386D01*
X0637220Y0091220D02*
X0627378Y0091220D01*
X0525016Y0262874D02*
X0524268Y0263622D01*
X0468087Y0262874D02*
X0467142Y0262874D01*
X0359661Y0262874D02*
X0358913Y0263622D01*
X0248677Y0264094D02*
X0247457Y0262874D01*
X0139189Y0262874D02*
X0138441Y0263622D01*
X0469898Y0386890D02*
X0469898Y0390827D01*
X0503205Y0390827D01*
X0469898Y0388858D02*
X0469898Y0386890D01*
X0528953Y0422323D02*
X0528953Y0430945D01*
X0599819Y0430945D02*
X0599819Y0422323D01*
X0672654Y0422323D02*
X0672654Y0430945D01*
X0747457Y0430945D02*
X0747457Y0422323D01*
X0757299Y0529016D02*
X0757299Y0546339D01*
X0757299Y0529016D02*
X0758047Y0529016D01*
X0788047Y0529016D02*
X0797417Y0529016D01*
X0869504Y0544370D02*
X0869504Y0546339D01*
X0716709Y0529016D02*
X0707339Y0529016D01*
X0677339Y0529016D02*
X0676591Y0529016D01*
X0676591Y0546339D01*
X0636000Y0529016D02*
X0626630Y0529016D01*
X0596630Y0529016D02*
X0595882Y0529016D01*
X0595882Y0546339D01*
X0521827Y0529016D02*
X0512457Y0529016D01*
X0482457Y0529016D02*
X0471866Y0529016D01*
X0471866Y0528622D01*
X0932496Y0428976D02*
X0932496Y0428228D01*
X0932496Y0288465D02*
X0932496Y0286496D01*
D13*
X0912811Y0091220D03*
X0902969Y0091220D03*
X0893126Y0091220D03*
X0883283Y0091220D03*
X0873441Y0091220D03*
X0863598Y0091220D03*
X0853756Y0091220D03*
X0843913Y0091220D03*
X0834071Y0091220D03*
X0824228Y0091220D03*
X0814386Y0091220D03*
X0804543Y0091220D03*
X0794701Y0091220D03*
X0784858Y0091220D03*
X0775016Y0091220D03*
X0765173Y0091220D03*
X0755331Y0091220D03*
X0745488Y0091220D03*
X0735646Y0091220D03*
X0725803Y0091220D03*
X0715961Y0091220D03*
X0706118Y0091220D03*
X0696276Y0091220D03*
X0686433Y0091220D03*
X0676591Y0091220D03*
X0666748Y0091220D03*
X0656906Y0091220D03*
X0647063Y0091220D03*
X0637220Y0091220D03*
X0627378Y0091220D03*
D14*
X0631904Y0155827D02*
X0637104Y0155827D01*
X0637104Y0165827D02*
X0631904Y0165827D01*
X0631904Y0175827D02*
X0637104Y0175827D01*
X0637104Y0185827D02*
X0631904Y0185827D01*
X0631904Y0195827D02*
X0637104Y0195827D01*
X0637104Y0205827D02*
X0631904Y0205827D01*
X0631904Y0215827D02*
X0637104Y0215827D01*
X0637104Y0225827D02*
X0631904Y0225827D01*
X0607104Y0225827D02*
X0601904Y0225827D01*
X0601904Y0215827D02*
X0607104Y0215827D01*
X0607104Y0205827D02*
X0601904Y0205827D01*
X0601904Y0195827D02*
X0607104Y0195827D01*
X0607104Y0185827D02*
X0601904Y0185827D01*
X0601904Y0175827D02*
X0607104Y0175827D01*
X0607104Y0165827D02*
X0601904Y0165827D01*
X0601904Y0155827D02*
X0607104Y0155827D01*
X0581986Y0155827D02*
X0576786Y0155827D01*
X0576786Y0165827D02*
X0581986Y0165827D01*
X0581986Y0175827D02*
X0576786Y0175827D01*
X0576786Y0185827D02*
X0581986Y0185827D01*
X0581986Y0195827D02*
X0576786Y0195827D01*
X0576786Y0205827D02*
X0581986Y0205827D01*
X0581986Y0215827D02*
X0576786Y0215827D01*
X0576786Y0225827D02*
X0581986Y0225827D01*
X0551986Y0225827D02*
X0546786Y0225827D01*
X0546786Y0215827D02*
X0551986Y0215827D01*
X0551986Y0205827D02*
X0546786Y0205827D01*
X0546786Y0195827D02*
X0551986Y0195827D01*
X0551986Y0185827D02*
X0546786Y0185827D01*
X0546786Y0175827D02*
X0551986Y0175827D01*
X0551986Y0165827D02*
X0546786Y0165827D01*
X0546786Y0155827D02*
X0551986Y0155827D01*
X0526868Y0165945D02*
X0521668Y0165945D01*
X0521668Y0175945D02*
X0526868Y0175945D01*
X0526868Y0185945D02*
X0521668Y0185945D01*
X0521668Y0195945D02*
X0526868Y0195945D01*
X0526868Y0205945D02*
X0521668Y0205945D01*
X0521668Y0215945D02*
X0526868Y0215945D01*
X0526868Y0225945D02*
X0521668Y0225945D01*
X0496868Y0225945D02*
X0491668Y0225945D01*
X0491668Y0215945D02*
X0496868Y0215945D01*
X0496868Y0205945D02*
X0491668Y0205945D01*
X0491668Y0195945D02*
X0496868Y0195945D01*
X0496868Y0185945D02*
X0491668Y0185945D01*
X0491668Y0175945D02*
X0496868Y0175945D01*
X0496868Y0165945D02*
X0491668Y0165945D01*
X0471750Y0165827D02*
X0466550Y0165827D01*
X0466550Y0175827D02*
X0471750Y0175827D01*
X0471750Y0185827D02*
X0466550Y0185827D01*
X0466550Y0195827D02*
X0471750Y0195827D01*
X0471750Y0205827D02*
X0466550Y0205827D01*
X0466550Y0215827D02*
X0471750Y0215827D01*
X0471750Y0225827D02*
X0466550Y0225827D01*
X0441750Y0225827D02*
X0436550Y0225827D01*
X0436550Y0215827D02*
X0441750Y0215827D01*
X0441750Y0205827D02*
X0436550Y0205827D01*
X0436550Y0195827D02*
X0441750Y0195827D01*
X0441750Y0185827D02*
X0436550Y0185827D01*
X0436550Y0175827D02*
X0441750Y0175827D01*
X0441750Y0165827D02*
X0436550Y0165827D01*
X0436550Y0155827D02*
X0441750Y0155827D01*
X0466550Y0155827D02*
X0471750Y0155827D01*
X0416631Y0155827D02*
X0411431Y0155827D01*
X0411431Y0165827D02*
X0416631Y0165827D01*
X0416631Y0175827D02*
X0411431Y0175827D01*
X0411431Y0185827D02*
X0416631Y0185827D01*
X0416631Y0195827D02*
X0411431Y0195827D01*
X0411431Y0205827D02*
X0416631Y0205827D01*
X0416631Y0215827D02*
X0411431Y0215827D01*
X0411431Y0225827D02*
X0416631Y0225827D01*
X0386631Y0225827D02*
X0381431Y0225827D01*
X0381431Y0215827D02*
X0386631Y0215827D01*
X0386631Y0205827D02*
X0381431Y0205827D01*
X0381431Y0195827D02*
X0386631Y0195827D01*
X0386631Y0185827D02*
X0381431Y0185827D01*
X0381431Y0175827D02*
X0386631Y0175827D01*
X0386631Y0165827D02*
X0381431Y0165827D01*
X0381431Y0155827D02*
X0386631Y0155827D01*
X0386631Y0145827D02*
X0381431Y0145827D01*
X0411431Y0145827D02*
X0416631Y0145827D01*
X0361513Y0165945D02*
X0356313Y0165945D01*
X0356313Y0175945D02*
X0361513Y0175945D01*
X0361513Y0185945D02*
X0356313Y0185945D01*
X0356313Y0195945D02*
X0361513Y0195945D01*
X0361513Y0205945D02*
X0356313Y0205945D01*
X0356313Y0215945D02*
X0361513Y0215945D01*
X0361513Y0225945D02*
X0356313Y0225945D01*
X0331513Y0225945D02*
X0326313Y0225945D01*
X0326313Y0215945D02*
X0331513Y0215945D01*
X0331513Y0205945D02*
X0326313Y0205945D01*
X0326313Y0195945D02*
X0331513Y0195945D01*
X0331513Y0185945D02*
X0326313Y0185945D01*
X0326313Y0175945D02*
X0331513Y0175945D01*
X0331513Y0165945D02*
X0326313Y0165945D01*
X0306395Y0165945D02*
X0301195Y0165945D01*
X0301195Y0175945D02*
X0306395Y0175945D01*
X0306395Y0185945D02*
X0301195Y0185945D01*
X0301195Y0195945D02*
X0306395Y0195945D01*
X0306395Y0205945D02*
X0301195Y0205945D01*
X0301195Y0215945D02*
X0306395Y0215945D01*
X0306395Y0225945D02*
X0301195Y0225945D01*
X0276395Y0225945D02*
X0271195Y0225945D01*
X0271195Y0215945D02*
X0276395Y0215945D01*
X0276395Y0205945D02*
X0271195Y0205945D01*
X0271195Y0195945D02*
X0276395Y0195945D01*
X0276395Y0185945D02*
X0271195Y0185945D01*
X0271195Y0175945D02*
X0276395Y0175945D01*
X0276395Y0165945D02*
X0271195Y0165945D01*
X0251277Y0165945D02*
X0246077Y0165945D01*
X0246077Y0175945D02*
X0251277Y0175945D01*
X0251277Y0185945D02*
X0246077Y0185945D01*
X0246077Y0195945D02*
X0251277Y0195945D01*
X0251277Y0205945D02*
X0246077Y0205945D01*
X0246077Y0215945D02*
X0251277Y0215945D01*
X0251277Y0225945D02*
X0246077Y0225945D01*
X0221277Y0225945D02*
X0216077Y0225945D01*
X0216077Y0215945D02*
X0221277Y0215945D01*
X0221277Y0205945D02*
X0216077Y0205945D01*
X0216077Y0195945D02*
X0221277Y0195945D01*
X0221277Y0185945D02*
X0216077Y0185945D01*
X0216077Y0175945D02*
X0221277Y0175945D01*
X0221277Y0165945D02*
X0216077Y0165945D01*
X0196159Y0165945D02*
X0190959Y0165945D01*
X0190959Y0175945D02*
X0196159Y0175945D01*
X0196159Y0185945D02*
X0190959Y0185945D01*
X0190959Y0195945D02*
X0196159Y0195945D01*
X0196159Y0205945D02*
X0190959Y0205945D01*
X0190959Y0215945D02*
X0196159Y0215945D01*
X0196159Y0225945D02*
X0190959Y0225945D01*
X0166159Y0225945D02*
X0160959Y0225945D01*
X0160959Y0215945D02*
X0166159Y0215945D01*
X0166159Y0205945D02*
X0160959Y0205945D01*
X0160959Y0195945D02*
X0166159Y0195945D01*
X0166159Y0185945D02*
X0160959Y0185945D01*
X0160959Y0175945D02*
X0166159Y0175945D01*
X0166159Y0165945D02*
X0160959Y0165945D01*
X0141041Y0165945D02*
X0135841Y0165945D01*
X0135841Y0175945D02*
X0141041Y0175945D01*
X0141041Y0185945D02*
X0135841Y0185945D01*
X0135841Y0195945D02*
X0141041Y0195945D01*
X0141041Y0205945D02*
X0135841Y0205945D01*
X0135841Y0215945D02*
X0141041Y0215945D01*
X0141041Y0225945D02*
X0135841Y0225945D01*
X0111041Y0225945D02*
X0105841Y0225945D01*
X0105841Y0215945D02*
X0111041Y0215945D01*
X0111041Y0205945D02*
X0105841Y0205945D01*
X0105841Y0195945D02*
X0111041Y0195945D01*
X0111041Y0185945D02*
X0105841Y0185945D01*
X0105841Y0175945D02*
X0111041Y0175945D01*
X0111041Y0165945D02*
X0105841Y0165945D01*
X0085923Y0165945D02*
X0080723Y0165945D01*
X0080723Y0175945D02*
X0085923Y0175945D01*
X0085923Y0185945D02*
X0080723Y0185945D01*
X0080723Y0195945D02*
X0085923Y0195945D01*
X0085923Y0205945D02*
X0080723Y0205945D01*
X0080723Y0215945D02*
X0085923Y0215945D01*
X0085923Y0225945D02*
X0080723Y0225945D01*
X0055923Y0225945D02*
X0050723Y0225945D01*
X0050723Y0215945D02*
X0055923Y0215945D01*
X0055923Y0205945D02*
X0050723Y0205945D01*
X0050723Y0195945D02*
X0055923Y0195945D01*
X0055923Y0185945D02*
X0050723Y0185945D01*
X0050723Y0175945D02*
X0055923Y0175945D01*
X0055923Y0165945D02*
X0050723Y0165945D01*
X0050723Y0300709D02*
X0055923Y0300709D01*
X0055923Y0310709D02*
X0050723Y0310709D01*
X0050723Y0320709D02*
X0055923Y0320709D01*
X0055923Y0330709D02*
X0050723Y0330709D01*
X0050723Y0340709D02*
X0055923Y0340709D01*
X0055923Y0350709D02*
X0050723Y0350709D01*
X0050723Y0360709D02*
X0055923Y0360709D01*
X0055923Y0370709D02*
X0050723Y0370709D01*
X0080723Y0370709D02*
X0085923Y0370709D01*
X0085923Y0360709D02*
X0080723Y0360709D01*
X0080723Y0350709D02*
X0085923Y0350709D01*
X0085923Y0340709D02*
X0080723Y0340709D01*
X0080723Y0330709D02*
X0085923Y0330709D01*
X0085923Y0320709D02*
X0080723Y0320709D01*
X0080723Y0310709D02*
X0085923Y0310709D01*
X0085923Y0300709D02*
X0080723Y0300709D01*
X0105841Y0300709D02*
X0111041Y0300709D01*
X0111041Y0310709D02*
X0105841Y0310709D01*
X0105841Y0320709D02*
X0111041Y0320709D01*
X0111041Y0330709D02*
X0105841Y0330709D01*
X0105841Y0340709D02*
X0111041Y0340709D01*
X0111041Y0350709D02*
X0105841Y0350709D01*
X0105841Y0360709D02*
X0111041Y0360709D01*
X0111041Y0370709D02*
X0105841Y0370709D01*
X0135841Y0370709D02*
X0141041Y0370709D01*
X0141041Y0360709D02*
X0135841Y0360709D01*
X0135841Y0350709D02*
X0141041Y0350709D01*
X0141041Y0340709D02*
X0135841Y0340709D01*
X0135841Y0330709D02*
X0141041Y0330709D01*
X0141041Y0320709D02*
X0135841Y0320709D01*
X0135841Y0310709D02*
X0141041Y0310709D01*
X0141041Y0300709D02*
X0135841Y0300709D01*
X0160959Y0300709D02*
X0166159Y0300709D01*
X0166159Y0310709D02*
X0160959Y0310709D01*
X0160959Y0320709D02*
X0166159Y0320709D01*
X0166159Y0330709D02*
X0160959Y0330709D01*
X0160959Y0340709D02*
X0166159Y0340709D01*
X0166159Y0350709D02*
X0160959Y0350709D01*
X0160959Y0360709D02*
X0166159Y0360709D01*
X0166159Y0370709D02*
X0160959Y0370709D01*
X0190959Y0370709D02*
X0196159Y0370709D01*
X0196159Y0360709D02*
X0190959Y0360709D01*
X0190959Y0350709D02*
X0196159Y0350709D01*
X0196159Y0340709D02*
X0190959Y0340709D01*
X0190959Y0330709D02*
X0196159Y0330709D01*
X0196159Y0320709D02*
X0190959Y0320709D01*
X0190959Y0310709D02*
X0196159Y0310709D01*
X0196159Y0300709D02*
X0190959Y0300709D01*
X0216077Y0300709D02*
X0221277Y0300709D01*
X0221277Y0310709D02*
X0216077Y0310709D01*
X0216077Y0320709D02*
X0221277Y0320709D01*
X0221277Y0330709D02*
X0216077Y0330709D01*
X0216077Y0340709D02*
X0221277Y0340709D01*
X0221277Y0350709D02*
X0216077Y0350709D01*
X0216077Y0360709D02*
X0221277Y0360709D01*
X0221277Y0370709D02*
X0216077Y0370709D01*
X0246077Y0370709D02*
X0251277Y0370709D01*
X0251277Y0360709D02*
X0246077Y0360709D01*
X0246077Y0350709D02*
X0251277Y0350709D01*
X0251277Y0340709D02*
X0246077Y0340709D01*
X0246077Y0330709D02*
X0251277Y0330709D01*
X0251277Y0320709D02*
X0246077Y0320709D01*
X0246077Y0310709D02*
X0251277Y0310709D01*
X0251277Y0300709D02*
X0246077Y0300709D01*
X0271195Y0300709D02*
X0276395Y0300709D01*
X0276395Y0310709D02*
X0271195Y0310709D01*
X0271195Y0320709D02*
X0276395Y0320709D01*
X0276395Y0330709D02*
X0271195Y0330709D01*
X0271195Y0340709D02*
X0276395Y0340709D01*
X0276395Y0350709D02*
X0271195Y0350709D01*
X0271195Y0360709D02*
X0276395Y0360709D01*
X0276395Y0370709D02*
X0271195Y0370709D01*
X0301195Y0370709D02*
X0306395Y0370709D01*
X0306395Y0360709D02*
X0301195Y0360709D01*
X0301195Y0350709D02*
X0306395Y0350709D01*
X0306395Y0340709D02*
X0301195Y0340709D01*
X0301195Y0330709D02*
X0306395Y0330709D01*
X0306395Y0320709D02*
X0301195Y0320709D01*
X0301195Y0310709D02*
X0306395Y0310709D01*
X0306395Y0300709D02*
X0301195Y0300709D01*
X0326313Y0300709D02*
X0331513Y0300709D01*
X0331513Y0310709D02*
X0326313Y0310709D01*
X0326313Y0320709D02*
X0331513Y0320709D01*
X0331513Y0330709D02*
X0326313Y0330709D01*
X0326313Y0340709D02*
X0331513Y0340709D01*
X0331513Y0350709D02*
X0326313Y0350709D01*
X0326313Y0360709D02*
X0331513Y0360709D01*
X0331513Y0370709D02*
X0326313Y0370709D01*
X0356313Y0370709D02*
X0361513Y0370709D01*
X0361513Y0360709D02*
X0356313Y0360709D01*
X0356313Y0350709D02*
X0361513Y0350709D01*
X0361513Y0340709D02*
X0356313Y0340709D01*
X0356313Y0330709D02*
X0361513Y0330709D01*
X0361513Y0320709D02*
X0356313Y0320709D01*
X0356313Y0310709D02*
X0361513Y0310709D01*
X0361513Y0300709D02*
X0356313Y0300709D01*
X0381431Y0300709D02*
X0386631Y0300709D01*
X0386631Y0310709D02*
X0381431Y0310709D01*
X0381431Y0320709D02*
X0386631Y0320709D01*
X0386631Y0330709D02*
X0381431Y0330709D01*
X0381431Y0340709D02*
X0386631Y0340709D01*
X0386631Y0350709D02*
X0381431Y0350709D01*
X0381431Y0360709D02*
X0386631Y0360709D01*
X0386631Y0370709D02*
X0381431Y0370709D01*
X0411431Y0370709D02*
X0416631Y0370709D01*
X0416631Y0360709D02*
X0411431Y0360709D01*
X0411431Y0350709D02*
X0416631Y0350709D01*
X0416631Y0340709D02*
X0411431Y0340709D01*
X0411431Y0330709D02*
X0416631Y0330709D01*
X0416631Y0320709D02*
X0411431Y0320709D01*
X0411431Y0310709D02*
X0416631Y0310709D01*
X0416631Y0300709D02*
X0411431Y0300709D01*
X0436550Y0300709D02*
X0441750Y0300709D01*
X0441750Y0310709D02*
X0436550Y0310709D01*
X0436550Y0320709D02*
X0441750Y0320709D01*
X0441750Y0330709D02*
X0436550Y0330709D01*
X0436550Y0340709D02*
X0441750Y0340709D01*
X0441750Y0350709D02*
X0436550Y0350709D01*
X0436550Y0360709D02*
X0441750Y0360709D01*
X0441750Y0370709D02*
X0436550Y0370709D01*
X0466550Y0370709D02*
X0471750Y0370709D01*
X0471750Y0360709D02*
X0466550Y0360709D01*
X0466550Y0350709D02*
X0471750Y0350709D01*
X0471750Y0340709D02*
X0466550Y0340709D01*
X0466550Y0330709D02*
X0471750Y0330709D01*
X0471750Y0320709D02*
X0466550Y0320709D01*
X0466550Y0310709D02*
X0471750Y0310709D01*
X0471750Y0300709D02*
X0466550Y0300709D01*
X0491668Y0300709D02*
X0496868Y0300709D01*
X0496868Y0310709D02*
X0491668Y0310709D01*
X0491668Y0320709D02*
X0496868Y0320709D01*
X0496868Y0330709D02*
X0491668Y0330709D01*
X0491668Y0340709D02*
X0496868Y0340709D01*
X0496868Y0350709D02*
X0491668Y0350709D01*
X0491668Y0360709D02*
X0496868Y0360709D01*
X0496868Y0370709D02*
X0491668Y0370709D01*
X0521668Y0370709D02*
X0526868Y0370709D01*
X0526868Y0360709D02*
X0521668Y0360709D01*
X0521668Y0350709D02*
X0526868Y0350709D01*
X0526868Y0340709D02*
X0521668Y0340709D01*
X0521668Y0330709D02*
X0526868Y0330709D01*
X0526868Y0320709D02*
X0521668Y0320709D01*
X0521668Y0310709D02*
X0526868Y0310709D01*
X0526868Y0300709D02*
X0521668Y0300709D01*
X0521668Y0290709D02*
X0526868Y0290709D01*
X0526868Y0280709D02*
X0521668Y0280709D01*
X0496868Y0280709D02*
X0491668Y0280709D01*
X0491668Y0290709D02*
X0496868Y0290709D01*
X0546786Y0300709D02*
X0551986Y0300709D01*
X0551986Y0310709D02*
X0546786Y0310709D01*
X0546786Y0320709D02*
X0551986Y0320709D01*
X0551986Y0330709D02*
X0546786Y0330709D01*
X0546786Y0340709D02*
X0551986Y0340709D01*
X0551986Y0350709D02*
X0546786Y0350709D01*
X0546786Y0360709D02*
X0551986Y0360709D01*
X0551986Y0370709D02*
X0546786Y0370709D01*
X0576786Y0370709D02*
X0581986Y0370709D01*
X0581986Y0360709D02*
X0576786Y0360709D01*
X0576786Y0350709D02*
X0581986Y0350709D01*
X0581986Y0340709D02*
X0576786Y0340709D01*
X0576786Y0330709D02*
X0581986Y0330709D01*
X0581986Y0320709D02*
X0576786Y0320709D01*
X0576786Y0310709D02*
X0581986Y0310709D01*
X0581986Y0300709D02*
X0576786Y0300709D01*
X0601904Y0300709D02*
X0607104Y0300709D01*
X0607104Y0310709D02*
X0601904Y0310709D01*
X0601904Y0320709D02*
X0607104Y0320709D01*
X0607104Y0330709D02*
X0601904Y0330709D01*
X0601904Y0340709D02*
X0607104Y0340709D01*
X0607104Y0350709D02*
X0601904Y0350709D01*
X0601904Y0360709D02*
X0607104Y0360709D01*
X0607104Y0370709D02*
X0601904Y0370709D01*
X0631904Y0370709D02*
X0637104Y0370709D01*
X0637104Y0360709D02*
X0631904Y0360709D01*
X0631904Y0350709D02*
X0637104Y0350709D01*
X0637104Y0340709D02*
X0631904Y0340709D01*
X0631904Y0330709D02*
X0637104Y0330709D01*
X0637104Y0320709D02*
X0631904Y0320709D01*
X0631904Y0310709D02*
X0637104Y0310709D01*
X0637104Y0300709D02*
X0631904Y0300709D01*
X0657022Y0300709D02*
X0662222Y0300709D01*
X0662222Y0310709D02*
X0657022Y0310709D01*
X0657022Y0320709D02*
X0662222Y0320709D01*
X0662222Y0330709D02*
X0657022Y0330709D01*
X0657022Y0340709D02*
X0662222Y0340709D01*
X0662222Y0350709D02*
X0657022Y0350709D01*
X0657022Y0360709D02*
X0662222Y0360709D01*
X0662222Y0370709D02*
X0657022Y0370709D01*
X0687022Y0370709D02*
X0692222Y0370709D01*
X0692222Y0360709D02*
X0687022Y0360709D01*
X0687022Y0350709D02*
X0692222Y0350709D01*
X0692222Y0340709D02*
X0687022Y0340709D01*
X0687022Y0330709D02*
X0692222Y0330709D01*
X0692222Y0320709D02*
X0687022Y0320709D01*
X0687022Y0310709D02*
X0692222Y0310709D01*
X0692222Y0300709D02*
X0687022Y0300709D01*
X0712140Y0310827D02*
X0717340Y0310827D01*
X0717340Y0320827D02*
X0712140Y0320827D01*
X0712140Y0330827D02*
X0717340Y0330827D01*
X0717340Y0340827D02*
X0712140Y0340827D01*
X0712140Y0350827D02*
X0717340Y0350827D01*
X0717340Y0360827D02*
X0712140Y0360827D01*
X0712140Y0370827D02*
X0717340Y0370827D01*
X0742140Y0370827D02*
X0747340Y0370827D01*
X0747340Y0360827D02*
X0742140Y0360827D01*
X0742140Y0350827D02*
X0747340Y0350827D01*
X0747340Y0340827D02*
X0742140Y0340827D01*
X0742140Y0330827D02*
X0747340Y0330827D01*
X0747340Y0320827D02*
X0742140Y0320827D01*
X0742140Y0310827D02*
X0747340Y0310827D01*
X0767258Y0310709D02*
X0772458Y0310709D01*
X0772458Y0300709D02*
X0767258Y0300709D01*
X0767258Y0320709D02*
X0772458Y0320709D01*
X0772458Y0330709D02*
X0767258Y0330709D01*
X0767258Y0340709D02*
X0772458Y0340709D01*
X0772458Y0350709D02*
X0767258Y0350709D01*
X0767258Y0360709D02*
X0772458Y0360709D01*
X0772458Y0370709D02*
X0767258Y0370709D01*
X0797258Y0370709D02*
X0802458Y0370709D01*
X0802458Y0360709D02*
X0797258Y0360709D01*
X0797258Y0350709D02*
X0802458Y0350709D01*
X0802458Y0340709D02*
X0797258Y0340709D01*
X0797258Y0330709D02*
X0802458Y0330709D01*
X0802458Y0320709D02*
X0797258Y0320709D01*
X0797258Y0310709D02*
X0802458Y0310709D01*
X0802458Y0300709D02*
X0797258Y0300709D01*
X0822376Y0300709D02*
X0827576Y0300709D01*
X0827576Y0310709D02*
X0822376Y0310709D01*
X0822376Y0320709D02*
X0827576Y0320709D01*
X0827576Y0330709D02*
X0822376Y0330709D01*
X0822376Y0340709D02*
X0827576Y0340709D01*
X0827576Y0350709D02*
X0822376Y0350709D01*
X0822376Y0360709D02*
X0827576Y0360709D01*
X0827576Y0370709D02*
X0822376Y0370709D01*
X0852376Y0370709D02*
X0857576Y0370709D01*
X0857576Y0360709D02*
X0852376Y0360709D01*
X0852376Y0350709D02*
X0857576Y0350709D01*
X0857576Y0340709D02*
X0852376Y0340709D01*
X0852376Y0330709D02*
X0857576Y0330709D01*
X0857576Y0320709D02*
X0852376Y0320709D01*
X0852376Y0310709D02*
X0857576Y0310709D01*
X0857576Y0300709D02*
X0852376Y0300709D01*
X0877494Y0300709D02*
X0882694Y0300709D01*
X0882694Y0310709D02*
X0877494Y0310709D01*
X0877494Y0320709D02*
X0882694Y0320709D01*
X0882694Y0330709D02*
X0877494Y0330709D01*
X0877494Y0340709D02*
X0882694Y0340709D01*
X0882694Y0350709D02*
X0877494Y0350709D01*
X0877494Y0360709D02*
X0882694Y0360709D01*
X0882694Y0370709D02*
X0877494Y0370709D01*
X0907494Y0370709D02*
X0912694Y0370709D01*
X0912694Y0360709D02*
X0907494Y0360709D01*
X0907494Y0350709D02*
X0912694Y0350709D01*
X0912694Y0340709D02*
X0907494Y0340709D01*
X0907494Y0330709D02*
X0912694Y0330709D01*
X0912694Y0320709D02*
X0907494Y0320709D01*
X0907494Y0310709D02*
X0912694Y0310709D01*
X0912694Y0300709D02*
X0907494Y0300709D01*
X0907494Y0438504D02*
X0912694Y0438504D01*
X0912694Y0448504D02*
X0907494Y0448504D01*
X0907494Y0458504D02*
X0912694Y0458504D01*
X0912694Y0468504D02*
X0907494Y0468504D01*
X0907494Y0478504D02*
X0912694Y0478504D01*
X0912694Y0488504D02*
X0907494Y0488504D01*
X0907494Y0498504D02*
X0912694Y0498504D01*
X0912694Y0508504D02*
X0907494Y0508504D01*
X0882694Y0508504D02*
X0877494Y0508504D01*
X0877494Y0498504D02*
X0882694Y0498504D01*
X0882694Y0488504D02*
X0877494Y0488504D01*
X0877494Y0478504D02*
X0882694Y0478504D01*
X0882694Y0468504D02*
X0877494Y0468504D01*
X0877494Y0458504D02*
X0882694Y0458504D01*
X0882694Y0448504D02*
X0877494Y0448504D01*
X0877494Y0438504D02*
X0882694Y0438504D01*
X0857576Y0438504D02*
X0852376Y0438504D01*
X0852376Y0448504D02*
X0857576Y0448504D01*
X0857576Y0458504D02*
X0852376Y0458504D01*
X0852376Y0468504D02*
X0857576Y0468504D01*
X0857576Y0478504D02*
X0852376Y0478504D01*
X0852376Y0488504D02*
X0857576Y0488504D01*
X0857576Y0498504D02*
X0852376Y0498504D01*
X0852376Y0508504D02*
X0857576Y0508504D01*
X0827576Y0508504D02*
X0822376Y0508504D01*
X0822376Y0498504D02*
X0827576Y0498504D01*
X0827576Y0488504D02*
X0822376Y0488504D01*
X0822376Y0478504D02*
X0827576Y0478504D01*
X0827576Y0468504D02*
X0822376Y0468504D01*
X0822376Y0458504D02*
X0827576Y0458504D01*
X0827576Y0448504D02*
X0822376Y0448504D01*
X0822376Y0438504D02*
X0827576Y0438504D01*
X0802458Y0438504D02*
X0797258Y0438504D01*
X0797258Y0448504D02*
X0802458Y0448504D01*
X0802458Y0458504D02*
X0797258Y0458504D01*
X0797258Y0468504D02*
X0802458Y0468504D01*
X0802458Y0478504D02*
X0797258Y0478504D01*
X0797258Y0488504D02*
X0802458Y0488504D01*
X0802458Y0498504D02*
X0797258Y0498504D01*
X0797258Y0508504D02*
X0802458Y0508504D01*
X0772458Y0508504D02*
X0767258Y0508504D01*
X0767258Y0498504D02*
X0772458Y0498504D01*
X0772458Y0488504D02*
X0767258Y0488504D01*
X0767258Y0478504D02*
X0772458Y0478504D01*
X0772458Y0468504D02*
X0767258Y0468504D01*
X0767258Y0458504D02*
X0772458Y0458504D01*
X0772458Y0448504D02*
X0767258Y0448504D01*
X0767258Y0438504D02*
X0772458Y0438504D01*
X0727655Y0438504D02*
X0722455Y0438504D01*
X0722455Y0448504D02*
X0727655Y0448504D01*
X0727655Y0458504D02*
X0722455Y0458504D01*
X0722455Y0468504D02*
X0727655Y0468504D01*
X0727655Y0478504D02*
X0722455Y0478504D01*
X0722455Y0488504D02*
X0727655Y0488504D01*
X0727655Y0498504D02*
X0722455Y0498504D01*
X0722455Y0508504D02*
X0727655Y0508504D01*
X0697655Y0508504D02*
X0692455Y0508504D01*
X0692455Y0498504D02*
X0697655Y0498504D01*
X0697655Y0488504D02*
X0692455Y0488504D01*
X0692455Y0478504D02*
X0697655Y0478504D01*
X0697655Y0468504D02*
X0692455Y0468504D01*
X0692455Y0458504D02*
X0697655Y0458504D01*
X0697655Y0448504D02*
X0692455Y0448504D01*
X0692455Y0438504D02*
X0697655Y0438504D01*
X0654820Y0438504D02*
X0649620Y0438504D01*
X0649620Y0448504D02*
X0654820Y0448504D01*
X0654820Y0458504D02*
X0649620Y0458504D01*
X0649620Y0468504D02*
X0654820Y0468504D01*
X0654820Y0478504D02*
X0649620Y0478504D01*
X0649620Y0488504D02*
X0654820Y0488504D01*
X0654820Y0498504D02*
X0649620Y0498504D01*
X0649620Y0508504D02*
X0654820Y0508504D01*
X0624820Y0508504D02*
X0619620Y0508504D01*
X0619620Y0498504D02*
X0624820Y0498504D01*
X0624820Y0488504D02*
X0619620Y0488504D01*
X0619620Y0478504D02*
X0624820Y0478504D01*
X0624820Y0468504D02*
X0619620Y0468504D01*
X0619620Y0458504D02*
X0624820Y0458504D01*
X0624820Y0448504D02*
X0619620Y0448504D01*
X0619620Y0438504D02*
X0624820Y0438504D01*
X0581986Y0438504D02*
X0576786Y0438504D01*
X0576786Y0448504D02*
X0581986Y0448504D01*
X0581986Y0458504D02*
X0576786Y0458504D01*
X0576786Y0468504D02*
X0581986Y0468504D01*
X0581986Y0478504D02*
X0576786Y0478504D01*
X0576786Y0488504D02*
X0581986Y0488504D01*
X0581986Y0498504D02*
X0576786Y0498504D01*
X0576786Y0508504D02*
X0581986Y0508504D01*
X0551986Y0508504D02*
X0546786Y0508504D01*
X0546786Y0498504D02*
X0551986Y0498504D01*
X0551986Y0488504D02*
X0546786Y0488504D01*
X0546786Y0478504D02*
X0551986Y0478504D01*
X0551986Y0468504D02*
X0546786Y0468504D01*
X0546786Y0458504D02*
X0551986Y0458504D01*
X0551986Y0448504D02*
X0546786Y0448504D01*
X0546786Y0438504D02*
X0551986Y0438504D01*
X0471750Y0438504D02*
X0466550Y0438504D01*
X0466550Y0448504D02*
X0471750Y0448504D01*
X0471750Y0458504D02*
X0466550Y0458504D01*
X0466550Y0468504D02*
X0471750Y0468504D01*
X0471750Y0478504D02*
X0466550Y0478504D01*
X0466550Y0488504D02*
X0471750Y0488504D01*
X0471750Y0498504D02*
X0466550Y0498504D01*
X0466550Y0508504D02*
X0471750Y0508504D01*
X0441750Y0508504D02*
X0436550Y0508504D01*
X0436550Y0498504D02*
X0441750Y0498504D01*
X0441750Y0488504D02*
X0436550Y0488504D01*
X0436550Y0478504D02*
X0441750Y0478504D01*
X0441750Y0468504D02*
X0436550Y0468504D01*
X0436550Y0458504D02*
X0441750Y0458504D01*
X0441750Y0448504D02*
X0436550Y0448504D01*
X0436550Y0438504D02*
X0441750Y0438504D01*
X0416631Y0438504D02*
X0411431Y0438504D01*
X0411431Y0448504D02*
X0416631Y0448504D01*
X0416631Y0458504D02*
X0411431Y0458504D01*
X0411431Y0468504D02*
X0416631Y0468504D01*
X0416631Y0478504D02*
X0411431Y0478504D01*
X0411431Y0488504D02*
X0416631Y0488504D01*
X0416631Y0498504D02*
X0411431Y0498504D01*
X0411431Y0508504D02*
X0416631Y0508504D01*
X0386631Y0508504D02*
X0381431Y0508504D01*
X0381431Y0498504D02*
X0386631Y0498504D01*
X0386631Y0488504D02*
X0381431Y0488504D01*
X0381431Y0478504D02*
X0386631Y0478504D01*
X0386631Y0468504D02*
X0381431Y0468504D01*
X0381431Y0458504D02*
X0386631Y0458504D01*
X0386631Y0448504D02*
X0381431Y0448504D01*
X0381431Y0438504D02*
X0386631Y0438504D01*
X0361513Y0438504D02*
X0356313Y0438504D01*
X0356313Y0448504D02*
X0361513Y0448504D01*
X0361513Y0458504D02*
X0356313Y0458504D01*
X0356313Y0468504D02*
X0361513Y0468504D01*
X0361513Y0478504D02*
X0356313Y0478504D01*
X0356313Y0488504D02*
X0361513Y0488504D01*
X0361513Y0498504D02*
X0356313Y0498504D01*
X0356313Y0508504D02*
X0361513Y0508504D01*
X0331513Y0508504D02*
X0326313Y0508504D01*
X0326313Y0498504D02*
X0331513Y0498504D01*
X0331513Y0488504D02*
X0326313Y0488504D01*
X0326313Y0478504D02*
X0331513Y0478504D01*
X0331513Y0468504D02*
X0326313Y0468504D01*
X0326313Y0458504D02*
X0331513Y0458504D01*
X0331513Y0448504D02*
X0326313Y0448504D01*
X0326313Y0438504D02*
X0331513Y0438504D01*
X0306395Y0438504D02*
X0301195Y0438504D01*
X0301195Y0448504D02*
X0306395Y0448504D01*
X0306395Y0458504D02*
X0301195Y0458504D01*
X0301195Y0468504D02*
X0306395Y0468504D01*
X0306395Y0478504D02*
X0301195Y0478504D01*
X0301195Y0488504D02*
X0306395Y0488504D01*
X0306395Y0498504D02*
X0301195Y0498504D01*
X0301195Y0508504D02*
X0306395Y0508504D01*
X0276395Y0508504D02*
X0271195Y0508504D01*
X0271195Y0498504D02*
X0276395Y0498504D01*
X0276395Y0488504D02*
X0271195Y0488504D01*
X0271195Y0478504D02*
X0276395Y0478504D01*
X0276395Y0468504D02*
X0271195Y0468504D01*
X0271195Y0458504D02*
X0276395Y0458504D01*
X0276395Y0448504D02*
X0271195Y0448504D01*
X0271195Y0438504D02*
X0276395Y0438504D01*
X0251277Y0438504D02*
X0246077Y0438504D01*
X0246077Y0448504D02*
X0251277Y0448504D01*
X0251277Y0458504D02*
X0246077Y0458504D01*
X0246077Y0468504D02*
X0251277Y0468504D01*
X0251277Y0478504D02*
X0246077Y0478504D01*
X0246077Y0488504D02*
X0251277Y0488504D01*
X0251277Y0498504D02*
X0246077Y0498504D01*
X0246077Y0508504D02*
X0251277Y0508504D01*
X0221277Y0508504D02*
X0216077Y0508504D01*
X0216077Y0498504D02*
X0221277Y0498504D01*
X0221277Y0488504D02*
X0216077Y0488504D01*
X0216077Y0478504D02*
X0221277Y0478504D01*
X0221277Y0468504D02*
X0216077Y0468504D01*
X0216077Y0458504D02*
X0221277Y0458504D01*
X0221277Y0448504D02*
X0216077Y0448504D01*
X0216077Y0438504D02*
X0221277Y0438504D01*
X0196159Y0438504D02*
X0190959Y0438504D01*
X0190959Y0448504D02*
X0196159Y0448504D01*
X0196159Y0458504D02*
X0190959Y0458504D01*
X0190959Y0468504D02*
X0196159Y0468504D01*
X0196159Y0478504D02*
X0190959Y0478504D01*
X0190959Y0488504D02*
X0196159Y0488504D01*
X0196159Y0498504D02*
X0190959Y0498504D01*
X0190959Y0508504D02*
X0196159Y0508504D01*
X0166159Y0508504D02*
X0160959Y0508504D01*
X0160959Y0498504D02*
X0166159Y0498504D01*
X0166159Y0488504D02*
X0160959Y0488504D01*
X0160959Y0478504D02*
X0166159Y0478504D01*
X0166159Y0468504D02*
X0160959Y0468504D01*
X0160959Y0458504D02*
X0166159Y0458504D01*
X0166159Y0448504D02*
X0160959Y0448504D01*
X0160959Y0438504D02*
X0166159Y0438504D01*
X0141041Y0438504D02*
X0135841Y0438504D01*
X0135841Y0448504D02*
X0141041Y0448504D01*
X0141041Y0458504D02*
X0135841Y0458504D01*
X0135841Y0468504D02*
X0141041Y0468504D01*
X0141041Y0478504D02*
X0135841Y0478504D01*
X0135841Y0488504D02*
X0141041Y0488504D01*
X0141041Y0498504D02*
X0135841Y0498504D01*
X0135841Y0508504D02*
X0141041Y0508504D01*
X0111041Y0508504D02*
X0105841Y0508504D01*
X0105841Y0498504D02*
X0111041Y0498504D01*
X0111041Y0488504D02*
X0105841Y0488504D01*
X0105841Y0478504D02*
X0111041Y0478504D01*
X0111041Y0468504D02*
X0105841Y0468504D01*
X0105841Y0458504D02*
X0111041Y0458504D01*
X0111041Y0448504D02*
X0105841Y0448504D01*
X0105841Y0438504D02*
X0111041Y0438504D01*
X0085923Y0438504D02*
X0080723Y0438504D01*
X0080723Y0448504D02*
X0085923Y0448504D01*
X0085923Y0458504D02*
X0080723Y0458504D01*
X0080723Y0468504D02*
X0085923Y0468504D01*
X0085923Y0478504D02*
X0080723Y0478504D01*
X0080723Y0488504D02*
X0085923Y0488504D01*
X0085923Y0498504D02*
X0080723Y0498504D01*
X0080723Y0508504D02*
X0085923Y0508504D01*
X0055923Y0508504D02*
X0050723Y0508504D01*
X0050723Y0498504D02*
X0055923Y0498504D01*
X0055923Y0488504D02*
X0050723Y0488504D01*
X0050723Y0478504D02*
X0055923Y0478504D01*
X0055923Y0468504D02*
X0050723Y0468504D01*
X0050723Y0458504D02*
X0055923Y0458504D01*
X0055923Y0448504D02*
X0050723Y0448504D01*
X0050723Y0438504D02*
X0055923Y0438504D01*
D15*
X0054386Y0418386D03*
X0074386Y0418386D03*
X0109504Y0418386D03*
X0129504Y0418386D03*
X0164622Y0418386D03*
X0184622Y0418386D03*
X0219740Y0418386D03*
X0239740Y0418386D03*
X0274858Y0418386D03*
X0294858Y0418386D03*
X0329976Y0418386D03*
X0349976Y0418386D03*
X0385094Y0418386D03*
X0405094Y0418386D03*
X0440213Y0418386D03*
X0460213Y0418386D03*
X0503205Y0390827D03*
X0523205Y0390827D03*
X0528953Y0430945D03*
X0528953Y0460945D03*
X0528953Y0484094D03*
X0528953Y0514094D03*
X0521827Y0529016D03*
X0512457Y0529016D03*
X0482457Y0529016D03*
X0551827Y0529016D03*
X0564228Y0529016D03*
X0584228Y0529016D03*
X0596630Y0529016D03*
X0599819Y0514094D03*
X0626630Y0529016D03*
X0636000Y0529016D03*
X0666000Y0529016D03*
X0677339Y0529016D03*
X0672654Y0514094D03*
X0707339Y0529016D03*
X0716709Y0529016D03*
X0746709Y0529016D03*
X0758047Y0529016D03*
X0747457Y0514094D03*
X0788047Y0529016D03*
X0797417Y0529016D03*
X0827417Y0529016D03*
X0873283Y0529016D03*
X0893283Y0529016D03*
X0747457Y0484094D03*
X0747457Y0460945D03*
X0747457Y0430945D03*
X0743677Y0390827D03*
X0723677Y0390827D03*
X0672654Y0430945D03*
X0672654Y0460945D03*
X0672654Y0484094D03*
X0599819Y0484094D03*
X0599819Y0460945D03*
X0599819Y0430945D03*
X0613441Y0390827D03*
X0633441Y0390827D03*
X0460213Y0280591D03*
X0440213Y0280591D03*
X0405094Y0280591D03*
X0385094Y0280591D03*
X0349976Y0280591D03*
X0329976Y0280591D03*
X0294858Y0280591D03*
X0274858Y0280591D03*
X0239740Y0280591D03*
X0219740Y0280591D03*
X0184622Y0280591D03*
X0164622Y0280591D03*
X0129504Y0280591D03*
X0109504Y0280591D03*
X0074386Y0280591D03*
X0054386Y0280591D03*
X0062260Y0245157D03*
X0082260Y0245157D03*
X0172496Y0245157D03*
X0192496Y0245157D03*
X0282732Y0245157D03*
X0302732Y0245157D03*
X0392969Y0245157D03*
X0412969Y0245157D03*
X0448087Y0245157D03*
X0468087Y0245157D03*
X0558323Y0245157D03*
X0578323Y0245157D03*
X0833913Y0390827D03*
X0853913Y0390827D03*
X0897063Y0275906D03*
X0897063Y0245906D03*
X0065606Y0148701D03*
X0035606Y0148701D03*
D16*
X0897063Y0223976D03*
D17*
X0897063Y0163976D03*
D18*
X0932496Y0164449D02*
X0932496Y0286496D01*
X0932496Y0422323D01*
X0880134Y0422323D01*
X0825016Y0422323D01*
X0769898Y0422323D01*
X0747457Y0422323D01*
X0695094Y0422323D01*
X0672654Y0422323D01*
X0621866Y0422323D01*
X0599819Y0422323D01*
X0549425Y0422323D01*
X0528953Y0422323D01*
X0523047Y0408543D02*
X0579346Y0408543D01*
X0633283Y0408543D01*
X0689583Y0408543D01*
X0743520Y0408543D01*
X0799819Y0408543D01*
X0852969Y0408543D01*
X0908874Y0408543D01*
X0920685Y0408543D01*
X0932496Y0422323D02*
X0932496Y0428228D01*
X0932496Y0489252D01*
X0932496Y0518780D01*
X0904937Y0518780D01*
X0904937Y0546339D01*
X0869504Y0546339D01*
X0757299Y0546339D01*
X0676591Y0546339D01*
X0595882Y0546339D01*
X0471866Y0546339D01*
X0471866Y0528622D01*
X0471866Y0526654D01*
X0469898Y0526654D01*
X0413992Y0526654D01*
X0358874Y0526654D01*
X0304150Y0526654D01*
X0247457Y0526654D01*
X0194307Y0526654D01*
X0138795Y0526654D01*
X0082496Y0526654D01*
X0046669Y0526654D01*
X0046669Y0518780D01*
X0019110Y0518780D01*
X0019110Y0386890D01*
X0084071Y0386890D01*
X0138402Y0386890D01*
X0194307Y0386890D01*
X0248638Y0386890D01*
X0303756Y0386890D01*
X0359661Y0386890D01*
X0413992Y0386890D01*
X0469898Y0386890D01*
X0440370Y0400669D02*
X0385252Y0400669D01*
X0330528Y0400669D01*
X0275016Y0400669D01*
X0220291Y0400669D01*
X0165567Y0400669D01*
X0110055Y0400669D01*
X0054543Y0400669D01*
X0030921Y0400669D01*
X0019110Y0386890D02*
X0019110Y0134921D01*
X0052969Y0134921D01*
X0108480Y0134921D01*
X0163598Y0134921D01*
X0218717Y0134921D01*
X0273835Y0134921D01*
X0328953Y0134921D01*
X0384071Y0134921D01*
X0439189Y0134921D01*
X0494701Y0134921D01*
X0549031Y0134921D01*
X0603756Y0134921D01*
X0578165Y0262874D02*
X0525016Y0262874D01*
X0467142Y0262874D01*
X0441157Y0262874D01*
X0412024Y0262874D01*
X0386039Y0262874D01*
X0359661Y0262874D01*
X0358874Y0262874D01*
X0330134Y0262874D01*
X0302575Y0262874D01*
X0275016Y0262874D01*
X0248638Y0262874D01*
X0247457Y0262874D01*
X0219898Y0262874D01*
X0191551Y0262874D01*
X0164780Y0262874D01*
X0139189Y0262874D01*
X0109661Y0262874D01*
X0081315Y0262874D01*
X0054543Y0262874D01*
X0030921Y0262874D01*
X0549386Y0288465D02*
X0584071Y0288465D01*
X0604543Y0288465D01*
X0641157Y0288465D01*
X0659661Y0288465D01*
X0715173Y0288465D01*
X0770291Y0288465D01*
X0825016Y0288465D01*
X0880528Y0288465D01*
X0932496Y0288465D01*
X0932496Y0164449D02*
X0932496Y0134921D01*
X0920685Y0134921D01*
X0932496Y0134921D02*
X0932496Y0091220D01*
X0914780Y0091220D01*
X0634465Y0262874D02*
X0578165Y0262874D01*
D19*
X0603756Y0134921D03*
X0920685Y0134921D03*
X0920685Y0408543D03*
X0908874Y0408543D03*
X0042732Y0400669D03*
X0030921Y0400669D03*
X0030921Y0262874D03*
X0042732Y0262874D03*
D20*
X0054543Y0262874D03*
X0081315Y0262874D03*
X0109661Y0262874D03*
X0139189Y0262874D03*
X0164780Y0262874D03*
X0191551Y0262874D03*
X0219898Y0262874D03*
X0248638Y0262874D03*
X0275016Y0262874D03*
X0302575Y0262874D03*
X0330134Y0262874D03*
X0358874Y0262874D03*
X0386039Y0262874D03*
X0412024Y0262874D03*
X0441157Y0262874D03*
X0467142Y0262874D03*
X0525016Y0262874D03*
X0549386Y0288465D03*
X0578165Y0262874D03*
X0604543Y0288465D03*
X0634465Y0262874D03*
X0659661Y0288465D03*
X0715173Y0288465D03*
X0770291Y0288465D03*
X0825016Y0288465D03*
X0880528Y0288465D03*
X0852969Y0408543D03*
X0880134Y0422323D03*
X0825016Y0422323D03*
X0799819Y0408543D03*
X0769898Y0422323D03*
X0743520Y0408543D03*
X0695094Y0422323D03*
X0689583Y0408543D03*
X0633283Y0408543D03*
X0621866Y0422323D03*
X0579346Y0408543D03*
X0549425Y0422323D03*
X0523047Y0408543D03*
X0469898Y0386890D03*
X0440370Y0400669D03*
X0413992Y0386890D03*
X0385252Y0400669D03*
X0359661Y0386890D03*
X0330528Y0400669D03*
X0303756Y0386890D03*
X0275016Y0400669D03*
X0248638Y0386890D03*
X0220291Y0400669D03*
X0194307Y0386890D03*
X0165567Y0400669D03*
X0138402Y0386890D03*
X0110055Y0400669D03*
X0084071Y0386890D03*
X0054543Y0400669D03*
X0082496Y0526654D03*
X0138795Y0526654D03*
X0194307Y0526654D03*
X0247457Y0526654D03*
X0304150Y0526654D03*
X0358874Y0526654D03*
X0413992Y0526654D03*
X0469898Y0526654D03*
X0494701Y0134921D03*
X0439189Y0134921D03*
X0384071Y0134921D03*
X0328953Y0134921D03*
X0273835Y0134921D03*
X0218717Y0134921D03*
X0163598Y0134921D03*
X0108480Y0134921D03*
X0052969Y0134921D03*
X0549031Y0134921D03*
D21*
X0611630Y0103425D02*
X0125409Y0103425D01*
X0101787Y0127047D01*
X0065606Y0148701D02*
X0314386Y0148701D01*
X0318323Y0152638D01*
X0298638Y0160512D02*
X0278953Y0180197D01*
X0265173Y0180197D01*
X0249425Y0195945D01*
X0248677Y0195945D01*
X0243520Y0201850D02*
X0298638Y0201850D01*
X0302575Y0205787D01*
X0303795Y0205945D01*
X0304543Y0207756D01*
X0320291Y0207756D01*
X0324228Y0211693D01*
X0332102Y0211693D01*
X0341945Y0201850D01*
X0401000Y0201850D01*
X0402969Y0197913D02*
X0406906Y0201850D01*
X0418717Y0201850D01*
X0422654Y0205787D01*
X0414780Y0207756D02*
X0414031Y0205827D01*
X0414780Y0207756D02*
X0422654Y0215630D01*
X0438402Y0215630D01*
X0439150Y0215827D01*
X0444307Y0221535D02*
X0544701Y0221535D01*
X0548638Y0225472D01*
X0549386Y0225827D01*
X0550606Y0225472D01*
X0560449Y0225472D01*
X0566354Y0219567D01*
X0572260Y0219567D02*
X0560449Y0231378D01*
X0487614Y0231378D01*
X0481709Y0225472D01*
X0483677Y0231378D02*
X0485646Y0233346D01*
X0570291Y0233346D01*
X0572260Y0231378D01*
X0599819Y0231378D01*
X0603756Y0227441D01*
X0604504Y0225827D01*
X0605724Y0225472D01*
X0611630Y0225472D01*
X0621472Y0215630D01*
X0613598Y0215630D02*
X0607693Y0221535D01*
X0584071Y0221535D01*
X0580134Y0217598D01*
X0579386Y0215827D01*
X0578165Y0215630D01*
X0560449Y0215630D01*
X0556512Y0211693D01*
X0473835Y0211693D01*
X0469898Y0215630D01*
X0469150Y0215827D01*
X0483677Y0231378D02*
X0326197Y0231378D01*
X0324228Y0233346D01*
X0280921Y0233346D01*
X0275016Y0227441D01*
X0273795Y0225945D01*
X0275016Y0217598D02*
X0273795Y0215945D01*
X0275016Y0217598D02*
X0286827Y0229409D01*
X0288795Y0229409D01*
X0278953Y0211693D02*
X0320291Y0211693D01*
X0324228Y0215630D01*
X0328165Y0215630D01*
X0328913Y0215945D01*
X0324228Y0221535D02*
X0361630Y0221535D01*
X0371472Y0211693D01*
X0395094Y0211693D01*
X0399031Y0215630D01*
X0412811Y0215630D01*
X0414031Y0215827D01*
X0420685Y0221535D02*
X0389189Y0221535D01*
X0385252Y0217598D01*
X0384031Y0215827D01*
X0387220Y0209724D02*
X0399031Y0209724D01*
X0387220Y0209724D02*
X0385252Y0207756D01*
X0384031Y0205827D01*
X0397063Y0199882D02*
X0399031Y0197913D01*
X0402969Y0197913D01*
X0404937Y0195945D02*
X0408874Y0199882D01*
X0532890Y0199882D01*
X0528953Y0201850D02*
X0532890Y0205787D01*
X0548638Y0205787D01*
X0549386Y0205827D01*
X0550606Y0207756D01*
X0556512Y0207756D01*
X0560449Y0211693D01*
X0708087Y0211693D01*
X0731709Y0235315D01*
X0745488Y0247126D02*
X0599819Y0247126D01*
X0574228Y0235315D02*
X0633283Y0235315D01*
X0652969Y0215630D01*
X0647063Y0201850D02*
X0584071Y0201850D01*
X0580134Y0205787D01*
X0579386Y0205827D01*
X0572260Y0199882D02*
X0599819Y0199882D01*
X0603756Y0195945D01*
X0604504Y0195827D01*
X0607693Y0188071D02*
X0627378Y0188071D01*
X0629346Y0190039D01*
X0674622Y0190039D01*
X0694307Y0190039D01*
X0710055Y0186102D02*
X0660843Y0186102D01*
X0670685Y0195945D02*
X0635252Y0195945D01*
X0634504Y0195827D01*
X0633283Y0193976D01*
X0629346Y0193976D01*
X0625409Y0190039D01*
X0554543Y0190039D01*
X0550606Y0186102D01*
X0549386Y0185827D01*
X0548638Y0193976D02*
X0540764Y0186102D01*
X0525016Y0186102D01*
X0524268Y0185945D01*
X0530921Y0190039D02*
X0483677Y0190039D01*
X0479740Y0186102D01*
X0469898Y0186102D01*
X0469150Y0185827D01*
X0479740Y0190039D02*
X0481709Y0192008D01*
X0499425Y0192008D01*
X0503362Y0195945D01*
X0494268Y0195945D02*
X0481709Y0195945D01*
X0479740Y0190039D02*
X0444307Y0190039D01*
X0440370Y0193976D01*
X0439150Y0195827D01*
X0444307Y0201850D02*
X0528953Y0201850D01*
X0548638Y0193976D02*
X0549386Y0195827D01*
X0586039Y0170354D02*
X0489583Y0170354D01*
X0485646Y0166417D01*
X0469898Y0166417D01*
X0469150Y0165827D01*
X0473835Y0160512D02*
X0526984Y0160512D01*
X0540764Y0156575D02*
X0544701Y0160512D01*
X0589976Y0160512D01*
X0599819Y0170354D01*
X0698244Y0170354D01*
X0702181Y0166417D01*
X0822260Y0166417D01*
X0853756Y0134921D01*
X0853756Y0129016D01*
X0753362Y0129016D01*
X0735646Y0111299D01*
X0735646Y0091220D01*
X0725803Y0091220D02*
X0725803Y0129016D01*
X0729740Y0129016D01*
X0719898Y0129016D02*
X0686433Y0129016D01*
X0686433Y0091220D01*
X0676591Y0091220D02*
X0676591Y0129016D01*
X0662811Y0129016D01*
X0666748Y0125079D02*
X0670685Y0125079D01*
X0666748Y0125079D02*
X0666748Y0091220D01*
X0656906Y0091220D02*
X0656906Y0119173D01*
X0652969Y0119173D01*
X0647063Y0117205D02*
X0619504Y0117205D01*
X0615567Y0113268D01*
X0438402Y0113268D01*
X0428559Y0123110D01*
X0406906Y0111299D02*
X0395094Y0123110D01*
X0379346Y0123110D01*
X0375409Y0119173D01*
X0336039Y0119173D01*
X0330134Y0125079D01*
X0312417Y0129016D02*
X0497457Y0129016D01*
X0505331Y0121142D01*
X0591945Y0121142D01*
X0588008Y0123110D02*
X0591945Y0127047D01*
X0652969Y0127047D01*
X0660843Y0119173D01*
X0656906Y0129016D02*
X0513205Y0129016D01*
X0511236Y0127047D01*
X0509268Y0123110D02*
X0505331Y0127047D01*
X0509268Y0123110D02*
X0588008Y0123110D01*
X0599819Y0117205D02*
X0601787Y0115236D01*
X0613598Y0115236D01*
X0617535Y0119173D01*
X0625409Y0119173D01*
X0627378Y0121142D01*
X0633283Y0125079D02*
X0621472Y0125079D01*
X0619504Y0123110D01*
X0633283Y0125079D02*
X0635252Y0123110D01*
X0647063Y0117205D02*
X0647063Y0091220D01*
X0611630Y0109331D02*
X0609661Y0111299D01*
X0406906Y0111299D01*
X0404937Y0107362D02*
X0588008Y0107362D01*
X0599819Y0117205D02*
X0499425Y0117205D01*
X0489583Y0127047D01*
X0369504Y0127047D01*
X0367535Y0125079D01*
X0393126Y0119173D02*
X0404937Y0107362D01*
X0413795Y0145748D02*
X0414031Y0145827D01*
X0418717Y0150669D02*
X0341945Y0150669D01*
X0341945Y0156575D02*
X0247457Y0156575D01*
X0223835Y0180197D01*
X0103756Y0180197D01*
X0107693Y0176260D01*
X0108441Y0175945D01*
X0103756Y0180197D02*
X0099819Y0184134D01*
X0084071Y0184134D01*
X0083323Y0185945D01*
X0088008Y0170354D02*
X0133283Y0170354D01*
X0137220Y0174291D01*
X0138441Y0175945D01*
X0158874Y0190039D02*
X0050606Y0190039D01*
X0046669Y0193976D01*
X0046669Y0215630D01*
X0052575Y0215630D01*
X0053323Y0215945D01*
X0058480Y0221535D02*
X0044701Y0221535D01*
X0044701Y0184134D01*
X0052575Y0176260D01*
X0053323Y0175945D01*
X0060449Y0178228D02*
X0054543Y0184134D01*
X0053323Y0185945D01*
X0058480Y0192008D02*
X0212024Y0192008D01*
X0208087Y0195945D02*
X0218677Y0195945D01*
X0223835Y0199882D02*
X0247457Y0176260D01*
X0248677Y0175945D01*
X0269110Y0192008D02*
X0324228Y0192008D01*
X0328165Y0195945D01*
X0328913Y0195945D01*
X0324228Y0199882D02*
X0322260Y0197913D01*
X0306512Y0197913D01*
X0304543Y0195945D01*
X0303795Y0195945D01*
X0320291Y0199882D02*
X0278953Y0199882D01*
X0275016Y0195945D01*
X0273795Y0195945D01*
X0269110Y0192008D02*
X0261236Y0199882D01*
X0241551Y0199882D01*
X0239583Y0201850D01*
X0223835Y0201850D01*
X0219898Y0205787D01*
X0218677Y0205945D01*
X0223835Y0199882D02*
X0154937Y0199882D01*
X0139189Y0215630D01*
X0138441Y0215945D01*
X0138441Y0205945D02*
X0137220Y0205787D01*
X0119504Y0205787D01*
X0109661Y0215630D01*
X0108441Y0215945D01*
X0108441Y0225945D02*
X0107693Y0227441D01*
X0093913Y0241220D01*
X0066354Y0241220D01*
X0062417Y0245157D01*
X0062260Y0245157D01*
X0060449Y0241220D02*
X0056512Y0245157D01*
X0056512Y0249094D01*
X0141157Y0249094D01*
X0158874Y0231378D01*
X0223835Y0231378D01*
X0247457Y0207756D01*
X0248677Y0205945D01*
X0243520Y0201850D02*
X0233677Y0211693D01*
X0168717Y0211693D01*
X0164780Y0215630D01*
X0163559Y0215945D01*
X0163559Y0225945D02*
X0162811Y0227441D01*
X0158874Y0231378D01*
X0119504Y0205787D02*
X0109661Y0195945D01*
X0108441Y0195945D01*
X0083323Y0215945D02*
X0084071Y0217598D01*
X0088008Y0221535D01*
X0223835Y0221535D01*
X0229740Y0215630D01*
X0243520Y0239252D02*
X0330134Y0239252D01*
X0332102Y0237283D01*
X0401000Y0237283D01*
X0402969Y0239252D01*
X0434465Y0239252D01*
X0436433Y0241220D01*
X0526984Y0241220D01*
X0530921Y0245157D01*
X0532890Y0251063D02*
X0546669Y0251063D01*
X0544701Y0247126D02*
X0542732Y0249094D01*
X0438402Y0249094D01*
X0432496Y0243189D01*
X0436433Y0253031D02*
X0438402Y0255000D01*
X0528953Y0255000D01*
X0532890Y0251063D01*
X0534858Y0255000D02*
X0532890Y0256969D01*
X0765173Y0256969D01*
X0763205Y0260906D02*
X0769110Y0260906D01*
X0763205Y0260906D02*
X0761236Y0258937D01*
X0658874Y0258937D01*
X0651000Y0266811D01*
X0668717Y0262874D02*
X0694307Y0262874D01*
X0704150Y0272717D01*
X0686433Y0270748D02*
X0589976Y0270748D01*
X0530921Y0270748D01*
X0532890Y0256969D02*
X0414780Y0256969D01*
X0399031Y0241220D01*
X0406906Y0235315D02*
X0408874Y0237283D01*
X0491551Y0237283D01*
X0534858Y0239252D02*
X0757299Y0239252D01*
X0745488Y0247126D02*
X0751394Y0253031D01*
X0743520Y0262874D02*
X0733677Y0262874D01*
X0727772Y0268780D01*
X0723835Y0274685D02*
X0721866Y0276654D01*
X0668717Y0276654D01*
X0670685Y0294370D02*
X0672654Y0296339D01*
X0696276Y0296339D01*
X0678559Y0302244D02*
X0672654Y0296339D01*
X0670685Y0294370D02*
X0546669Y0294370D01*
X0538795Y0286496D01*
X0528953Y0296339D02*
X0525016Y0292402D01*
X0524268Y0290709D01*
X0523047Y0290433D01*
X0519110Y0286496D01*
X0491551Y0286496D01*
X0489583Y0284528D01*
X0481709Y0284528D01*
X0477772Y0288465D01*
X0341945Y0288465D01*
X0338008Y0284528D01*
X0273047Y0284528D01*
X0271079Y0282559D01*
X0243520Y0282559D01*
X0233677Y0292402D01*
X0243520Y0296339D02*
X0298638Y0296339D01*
X0302575Y0300276D01*
X0303795Y0300709D01*
X0304543Y0300276D01*
X0310449Y0300276D01*
X0314386Y0296339D01*
X0353756Y0296339D01*
X0357693Y0300276D01*
X0358913Y0300709D01*
X0359661Y0300276D01*
X0363598Y0296339D01*
X0408874Y0296339D01*
X0463992Y0296339D01*
X0467929Y0300276D01*
X0469150Y0300709D01*
X0471866Y0294370D02*
X0310449Y0294370D01*
X0314386Y0292402D02*
X0312417Y0290433D01*
X0290764Y0290433D01*
X0288795Y0292402D01*
X0312417Y0286496D02*
X0255331Y0286496D01*
X0243520Y0296339D02*
X0188402Y0296339D01*
X0133283Y0296339D01*
X0137220Y0300276D01*
X0138441Y0300709D01*
X0133283Y0296339D02*
X0088008Y0296339D01*
X0084071Y0300276D01*
X0083323Y0300709D01*
X0088008Y0306181D02*
X0084071Y0310118D01*
X0083323Y0310709D01*
X0088008Y0306181D02*
X0133283Y0306181D01*
X0188402Y0306181D01*
X0243520Y0306181D01*
X0298638Y0306181D01*
X0353756Y0306181D01*
X0389189Y0306181D01*
X0393126Y0310118D01*
X0412811Y0310118D01*
X0414031Y0310709D01*
X0414780Y0310118D01*
X0428559Y0310118D01*
X0432496Y0306181D01*
X0444307Y0306181D01*
X0446276Y0308150D01*
X0465961Y0308150D01*
X0467929Y0310118D01*
X0469150Y0310709D01*
X0463992Y0316024D02*
X0467929Y0319961D01*
X0469150Y0320709D01*
X0463992Y0316024D02*
X0434465Y0316024D01*
X0432496Y0317992D01*
X0416748Y0317992D01*
X0414031Y0320709D01*
X0412811Y0319961D01*
X0395094Y0319961D01*
X0391157Y0316024D01*
X0379346Y0316024D01*
X0377378Y0317992D01*
X0361630Y0317992D01*
X0358913Y0320709D01*
X0357693Y0319961D01*
X0355724Y0319961D01*
X0351787Y0316024D01*
X0324228Y0316024D01*
X0322260Y0317992D01*
X0306512Y0317992D01*
X0303795Y0320709D01*
X0302575Y0319961D01*
X0300606Y0317992D01*
X0280921Y0317992D01*
X0278953Y0316024D01*
X0257299Y0316024D01*
X0253362Y0319961D01*
X0249425Y0319961D01*
X0248677Y0320709D01*
X0247457Y0319961D01*
X0245488Y0317992D01*
X0225803Y0317992D01*
X0223835Y0316024D01*
X0202181Y0316024D01*
X0198244Y0319961D01*
X0194307Y0319961D01*
X0193559Y0320709D01*
X0192339Y0319961D01*
X0190370Y0317992D01*
X0170685Y0317992D01*
X0168717Y0316024D01*
X0147063Y0316024D01*
X0143126Y0319961D01*
X0139189Y0319961D01*
X0138441Y0320709D01*
X0137220Y0319961D01*
X0119504Y0319961D01*
X0115567Y0316024D01*
X0103756Y0316024D01*
X0101787Y0317992D01*
X0086039Y0317992D01*
X0083323Y0320709D01*
X0086039Y0327835D02*
X0101787Y0327835D01*
X0103756Y0325866D01*
X0115567Y0325866D01*
X0119504Y0329803D01*
X0137220Y0329803D01*
X0138441Y0330709D01*
X0139189Y0329803D01*
X0143126Y0329803D01*
X0147063Y0325866D01*
X0168717Y0325866D01*
X0170685Y0327835D01*
X0190370Y0327835D01*
X0192339Y0329803D01*
X0193559Y0330709D01*
X0194307Y0329803D01*
X0198244Y0329803D01*
X0202181Y0325866D01*
X0223835Y0325866D01*
X0225803Y0327835D01*
X0245488Y0327835D01*
X0247457Y0329803D01*
X0248677Y0330709D01*
X0249425Y0329803D01*
X0253362Y0329803D01*
X0257299Y0325866D01*
X0278953Y0325866D01*
X0280921Y0327835D01*
X0300606Y0327835D01*
X0302575Y0329803D01*
X0303795Y0330709D01*
X0304543Y0329803D01*
X0308480Y0329803D01*
X0312417Y0325866D01*
X0334071Y0325866D01*
X0336039Y0327835D01*
X0355724Y0327835D01*
X0357693Y0329803D01*
X0358913Y0330709D01*
X0359661Y0329803D01*
X0363598Y0329803D01*
X0367535Y0325866D01*
X0389189Y0325866D01*
X0391157Y0327835D01*
X0410843Y0327835D01*
X0412811Y0329803D01*
X0414031Y0330709D01*
X0414780Y0329803D01*
X0418717Y0329803D01*
X0422654Y0325866D01*
X0444307Y0325866D01*
X0448244Y0329803D01*
X0467929Y0329803D01*
X0469150Y0330709D01*
X0469150Y0340709D02*
X0467929Y0341614D01*
X0465961Y0343583D01*
X0446276Y0343583D01*
X0444307Y0345551D01*
X0408874Y0345551D01*
X0353756Y0345551D01*
X0298638Y0345551D01*
X0243520Y0345551D01*
X0247457Y0341614D01*
X0248677Y0340709D01*
X0243520Y0345551D02*
X0198244Y0345551D01*
X0158874Y0345551D01*
X0156906Y0343583D01*
X0141157Y0343583D01*
X0139189Y0341614D01*
X0138441Y0340709D01*
X0137220Y0341614D01*
X0135252Y0341614D01*
X0131315Y0345551D01*
X0103756Y0345551D01*
X0099819Y0341614D01*
X0084071Y0341614D01*
X0083323Y0340709D01*
X0093913Y0345551D02*
X0046669Y0345551D01*
X0046669Y0337677D01*
X0052575Y0331772D01*
X0053323Y0330709D01*
X0058480Y0325866D02*
X0099819Y0325866D01*
X0103756Y0321929D01*
X0107693Y0321929D01*
X0108441Y0320709D01*
X0109661Y0321929D01*
X0115567Y0321929D01*
X0119504Y0325866D01*
X0143126Y0325866D01*
X0145094Y0323898D01*
X0160843Y0323898D01*
X0162811Y0321929D01*
X0163559Y0320709D01*
X0164780Y0321929D01*
X0168717Y0321929D01*
X0172654Y0325866D01*
X0198244Y0325866D01*
X0200213Y0323898D01*
X0215961Y0323898D01*
X0217929Y0321929D01*
X0218677Y0320709D01*
X0219898Y0321929D01*
X0223835Y0321929D01*
X0227772Y0325866D01*
X0253362Y0325866D01*
X0255331Y0323898D01*
X0271079Y0323898D01*
X0273047Y0321929D01*
X0273795Y0320709D01*
X0275016Y0321929D01*
X0278953Y0321929D01*
X0282890Y0325866D01*
X0308480Y0325866D01*
X0310449Y0323898D01*
X0326197Y0323898D01*
X0328165Y0321929D01*
X0328913Y0320709D01*
X0330134Y0321929D01*
X0334071Y0321929D01*
X0338008Y0325866D01*
X0363598Y0325866D01*
X0365567Y0323898D01*
X0381315Y0323898D01*
X0383283Y0321929D01*
X0384031Y0320709D01*
X0385252Y0321929D01*
X0389189Y0321929D01*
X0393126Y0325866D01*
X0418717Y0325866D01*
X0420685Y0323898D01*
X0436433Y0323898D01*
X0438402Y0321929D01*
X0439150Y0320709D01*
X0438402Y0312087D02*
X0434465Y0312087D01*
X0430528Y0316024D01*
X0410843Y0316024D01*
X0408874Y0314055D01*
X0387220Y0314055D01*
X0385252Y0312087D01*
X0384031Y0310709D01*
X0383283Y0312087D01*
X0379346Y0312087D01*
X0375409Y0316024D01*
X0355724Y0316024D01*
X0353756Y0314055D01*
X0332102Y0314055D01*
X0330134Y0312087D01*
X0328913Y0310709D01*
X0328165Y0312087D01*
X0324228Y0312087D01*
X0320291Y0316024D01*
X0300606Y0316024D01*
X0298638Y0314055D01*
X0276984Y0314055D01*
X0275016Y0312087D01*
X0273795Y0310709D01*
X0273047Y0312087D01*
X0257299Y0312087D01*
X0253362Y0316024D01*
X0245488Y0316024D01*
X0243520Y0314055D01*
X0221866Y0314055D01*
X0219898Y0312087D01*
X0218677Y0310709D01*
X0217929Y0312087D01*
X0215961Y0314055D01*
X0200213Y0314055D01*
X0198244Y0316024D01*
X0172654Y0316024D01*
X0168717Y0312087D01*
X0164780Y0312087D01*
X0163559Y0310709D01*
X0162811Y0312087D01*
X0160843Y0314055D01*
X0145094Y0314055D01*
X0143126Y0316024D01*
X0119504Y0316024D01*
X0115567Y0312087D01*
X0109661Y0312087D01*
X0108441Y0310709D01*
X0107693Y0312087D01*
X0103756Y0312087D01*
X0099819Y0316024D01*
X0058480Y0316024D01*
X0054543Y0312087D01*
X0053323Y0310709D01*
X0053323Y0320709D02*
X0058480Y0325866D01*
X0058480Y0335709D02*
X0103756Y0335709D01*
X0158874Y0335709D01*
X0213992Y0335709D01*
X0269110Y0335709D01*
X0324228Y0335709D01*
X0379346Y0335709D01*
X0434465Y0335709D01*
X0438402Y0339646D01*
X0439150Y0340709D01*
X0446276Y0335709D02*
X0497457Y0335709D01*
X0507299Y0345551D01*
X0544701Y0345551D01*
X0548638Y0341614D01*
X0549386Y0340709D01*
X0536827Y0341614D02*
X0525016Y0341614D01*
X0524268Y0340709D01*
X0521079Y0335709D02*
X0566354Y0335709D01*
X0570291Y0331772D01*
X0578165Y0331772D01*
X0579386Y0330709D01*
X0570291Y0335709D02*
X0562417Y0343583D01*
X0570291Y0341614D02*
X0579386Y0350709D01*
X0584071Y0355394D02*
X0554543Y0355394D01*
X0550606Y0351457D01*
X0549386Y0350709D01*
X0544701Y0355394D02*
X0548638Y0359331D01*
X0549386Y0360709D01*
X0544701Y0355394D02*
X0517142Y0355394D01*
X0517142Y0361299D02*
X0517142Y0365236D01*
X0558480Y0365236D01*
X0549386Y0370709D02*
X0548638Y0371142D01*
X0544701Y0375079D01*
X0654937Y0375079D01*
X0658874Y0371142D01*
X0659622Y0370709D01*
X0659622Y0360709D02*
X0658874Y0359331D01*
X0656906Y0357362D01*
X0641157Y0357362D01*
X0639189Y0355394D01*
X0619504Y0355394D01*
X0623441Y0359331D02*
X0605724Y0359331D01*
X0604504Y0360709D01*
X0609661Y0355394D02*
X0597850Y0355394D01*
X0603756Y0351457D02*
X0588008Y0351457D01*
X0584071Y0355394D01*
X0579386Y0360709D02*
X0580134Y0361299D01*
X0584071Y0365236D01*
X0684465Y0365236D01*
X0688402Y0361299D01*
X0689622Y0360709D01*
X0694307Y0355394D02*
X0704150Y0365236D01*
X0731709Y0365236D01*
X0735646Y0371142D02*
X0735646Y0355394D01*
X0698244Y0355394D01*
X0694307Y0351457D01*
X0690370Y0351457D01*
X0689622Y0350709D01*
X0694307Y0355394D02*
X0654937Y0355394D01*
X0652969Y0353425D01*
X0637220Y0353425D01*
X0634504Y0350709D01*
X0633283Y0341614D02*
X0623441Y0351457D01*
X0613598Y0351457D01*
X0609661Y0355394D01*
X0604504Y0350709D02*
X0603756Y0351457D01*
X0603756Y0341614D02*
X0588008Y0341614D01*
X0603756Y0341614D02*
X0604504Y0340709D01*
X0607693Y0335709D02*
X0570291Y0335709D01*
X0549386Y0330709D02*
X0548638Y0329803D01*
X0536827Y0329803D01*
X0534858Y0327835D01*
X0538795Y0323898D02*
X0526984Y0323898D01*
X0525016Y0321929D01*
X0524268Y0320709D01*
X0530921Y0317992D02*
X0538795Y0317992D01*
X0538795Y0323898D02*
X0542732Y0323898D01*
X0544701Y0325866D01*
X0662811Y0325866D01*
X0666748Y0321929D01*
X0666748Y0312087D01*
X0660843Y0312087D01*
X0659622Y0310709D01*
X0664780Y0306181D02*
X0680528Y0321929D01*
X0678559Y0321929D01*
X0668717Y0331772D01*
X0660843Y0341614D02*
X0659622Y0340709D01*
X0658874Y0339646D01*
X0651000Y0339646D01*
X0647063Y0335709D01*
X0623441Y0335709D01*
X0633283Y0331772D02*
X0611630Y0331772D01*
X0607693Y0335709D01*
X0604504Y0320709D02*
X0603756Y0319961D01*
X0588008Y0319961D01*
X0584071Y0316024D01*
X0554543Y0316024D01*
X0550606Y0319961D01*
X0549386Y0320709D01*
X0549386Y0310709D02*
X0550606Y0310118D01*
X0568323Y0310118D01*
X0574228Y0306181D02*
X0629346Y0306181D01*
X0633283Y0310118D01*
X0634504Y0310709D01*
X0641157Y0316024D02*
X0641157Y0304213D01*
X0647063Y0298307D01*
X0647063Y0304213D02*
X0649031Y0306181D01*
X0664780Y0306181D01*
X0651000Y0319961D02*
X0635252Y0319961D01*
X0634504Y0320709D01*
X0641157Y0316024D02*
X0593913Y0316024D01*
X0579386Y0310709D02*
X0578165Y0310118D01*
X0574228Y0306181D01*
X0542732Y0306181D01*
X0540764Y0310118D02*
X0548638Y0310118D01*
X0549386Y0310709D01*
X0540764Y0310118D02*
X0536827Y0306181D01*
X0519110Y0306181D01*
X0495488Y0329803D01*
X0494268Y0330709D01*
X0493520Y0329803D01*
X0489583Y0325866D01*
X0454150Y0325866D01*
X0438402Y0312087D02*
X0439150Y0310709D01*
X0454150Y0300276D02*
X0460055Y0306181D01*
X0477772Y0306181D01*
X0487614Y0316024D01*
X0493520Y0319961D02*
X0479740Y0319961D01*
X0493520Y0319961D02*
X0494268Y0320709D01*
X0511236Y0325866D02*
X0521079Y0335709D01*
X0501394Y0345551D02*
X0517142Y0361299D01*
X0511236Y0367205D02*
X0519110Y0375079D01*
X0544701Y0375079D01*
X0536827Y0390827D02*
X0532890Y0394764D01*
X0026984Y0394764D01*
X0025016Y0396732D01*
X0025016Y0408543D01*
X0145094Y0408543D01*
X0156906Y0422323D02*
X0521079Y0422323D01*
X0511236Y0426260D02*
X0089976Y0426260D01*
X0088008Y0434134D02*
X0133283Y0434134D01*
X0188402Y0434134D01*
X0243520Y0434134D01*
X0298638Y0434134D01*
X0353756Y0434134D01*
X0389189Y0434134D01*
X0391157Y0436102D01*
X0410843Y0436102D01*
X0412811Y0438071D01*
X0414031Y0438504D01*
X0414780Y0438071D01*
X0418717Y0434134D01*
X0463992Y0434134D01*
X0467929Y0438071D01*
X0469150Y0438504D01*
X0469898Y0438071D01*
X0513205Y0438071D01*
X0540764Y0438071D01*
X0544701Y0434134D01*
X0574228Y0434134D01*
X0578165Y0438071D01*
X0579386Y0438504D01*
X0589976Y0432165D02*
X0595882Y0438071D01*
X0613598Y0438071D01*
X0617535Y0434134D01*
X0656906Y0434134D01*
X0658874Y0436102D01*
X0658874Y0447913D01*
X0652969Y0447913D01*
X0652220Y0448504D01*
X0647063Y0443976D02*
X0635252Y0443976D01*
X0463992Y0443976D01*
X0408874Y0443976D01*
X0369504Y0443976D01*
X0353756Y0443976D01*
X0298638Y0443976D01*
X0243520Y0443976D01*
X0188402Y0443976D01*
X0133283Y0443976D01*
X0137220Y0447913D01*
X0138441Y0448504D01*
X0133283Y0443976D02*
X0088008Y0443976D01*
X0084071Y0447913D01*
X0083323Y0448504D01*
X0086039Y0455787D02*
X0101787Y0455787D01*
X0103756Y0453819D01*
X0115567Y0453819D01*
X0119504Y0457756D01*
X0137220Y0457756D01*
X0138441Y0458504D01*
X0139189Y0457756D01*
X0143126Y0457756D01*
X0147063Y0453819D01*
X0168717Y0453819D01*
X0170685Y0455787D01*
X0190370Y0455787D01*
X0192339Y0457756D01*
X0193559Y0458504D01*
X0194307Y0457756D01*
X0198244Y0457756D01*
X0202181Y0453819D01*
X0223835Y0453819D01*
X0225803Y0455787D01*
X0245488Y0455787D01*
X0247457Y0457756D01*
X0248677Y0458504D01*
X0249425Y0457756D01*
X0253362Y0457756D01*
X0257299Y0453819D01*
X0278953Y0453819D01*
X0280921Y0455787D01*
X0300606Y0455787D01*
X0302575Y0457756D01*
X0303795Y0458504D01*
X0304543Y0457756D01*
X0308480Y0457756D01*
X0312417Y0453819D01*
X0334071Y0453819D01*
X0336039Y0455787D01*
X0355724Y0455787D01*
X0357693Y0457756D01*
X0358913Y0458504D01*
X0361630Y0455787D01*
X0377378Y0455787D01*
X0379346Y0453819D01*
X0406906Y0453819D01*
X0410843Y0457756D01*
X0412811Y0457756D01*
X0414031Y0458504D01*
X0414780Y0457756D01*
X0430528Y0457756D01*
X0434465Y0453819D01*
X0463992Y0453819D01*
X0467929Y0457756D01*
X0469150Y0458504D01*
X0469898Y0459724D01*
X0479740Y0459724D01*
X0473835Y0463661D02*
X0448244Y0463661D01*
X0444307Y0459724D01*
X0440370Y0459724D01*
X0439150Y0458504D01*
X0438402Y0459724D01*
X0436433Y0461693D01*
X0420685Y0461693D01*
X0418717Y0463661D01*
X0393126Y0463661D01*
X0389189Y0459724D01*
X0385252Y0459724D01*
X0384031Y0458504D01*
X0383283Y0459724D01*
X0381315Y0461693D01*
X0365567Y0461693D01*
X0363598Y0463661D01*
X0338008Y0463661D01*
X0334071Y0459724D01*
X0330134Y0459724D01*
X0328913Y0458504D01*
X0328165Y0459724D01*
X0326197Y0461693D01*
X0310449Y0461693D01*
X0308480Y0463661D01*
X0282890Y0463661D01*
X0278953Y0459724D01*
X0275016Y0459724D01*
X0273795Y0458504D01*
X0273047Y0459724D01*
X0271079Y0461693D01*
X0255331Y0461693D01*
X0253362Y0463661D01*
X0227772Y0463661D01*
X0223835Y0459724D01*
X0219898Y0459724D01*
X0218677Y0458504D01*
X0217929Y0459724D01*
X0215961Y0461693D01*
X0200213Y0461693D01*
X0198244Y0463661D01*
X0172654Y0463661D01*
X0168717Y0459724D01*
X0164780Y0459724D01*
X0163559Y0458504D01*
X0162811Y0459724D01*
X0160843Y0461693D01*
X0152969Y0461693D01*
X0152969Y0459724D01*
X0152969Y0461693D02*
X0145094Y0461693D01*
X0143126Y0463661D01*
X0119504Y0463661D01*
X0115567Y0459724D01*
X0109661Y0459724D01*
X0108441Y0458504D01*
X0107693Y0459724D01*
X0103756Y0459724D01*
X0099819Y0463661D01*
X0058480Y0463661D01*
X0053323Y0458504D01*
X0058480Y0453819D02*
X0099819Y0453819D01*
X0103756Y0449882D01*
X0107693Y0449882D01*
X0108441Y0448504D01*
X0109661Y0449882D01*
X0115567Y0449882D01*
X0119504Y0453819D01*
X0143126Y0453819D01*
X0145094Y0451850D01*
X0160843Y0451850D01*
X0162811Y0449882D01*
X0163559Y0448504D01*
X0164780Y0449882D01*
X0168717Y0449882D01*
X0172654Y0453819D01*
X0198244Y0453819D01*
X0200213Y0451850D01*
X0215961Y0451850D01*
X0217929Y0449882D01*
X0218677Y0448504D01*
X0219898Y0449882D01*
X0223835Y0449882D01*
X0227772Y0453819D01*
X0253362Y0453819D01*
X0255331Y0451850D01*
X0271079Y0451850D01*
X0273047Y0449882D01*
X0273795Y0448504D01*
X0275016Y0449882D01*
X0276984Y0451850D01*
X0298638Y0451850D01*
X0300606Y0453819D01*
X0308480Y0453819D01*
X0312417Y0449882D01*
X0328165Y0449882D01*
X0328913Y0448504D01*
X0330134Y0449882D01*
X0332102Y0451850D01*
X0353756Y0451850D01*
X0355724Y0453819D01*
X0375409Y0453819D01*
X0379346Y0449882D01*
X0383283Y0449882D01*
X0384031Y0448504D01*
X0385252Y0449882D01*
X0406906Y0449882D01*
X0410843Y0453819D01*
X0418717Y0453819D01*
X0420685Y0451850D01*
X0436433Y0451850D01*
X0438402Y0449882D01*
X0439150Y0448504D01*
X0444307Y0463661D02*
X0422654Y0463661D01*
X0418717Y0467598D01*
X0414780Y0467598D01*
X0414031Y0468504D01*
X0412811Y0467598D01*
X0410843Y0465630D01*
X0391157Y0465630D01*
X0389189Y0463661D01*
X0367535Y0463661D01*
X0363598Y0467598D01*
X0359661Y0467598D01*
X0358913Y0468504D01*
X0357693Y0467598D01*
X0355724Y0465630D01*
X0336039Y0465630D01*
X0334071Y0463661D01*
X0312417Y0463661D01*
X0308480Y0467598D01*
X0304543Y0467598D01*
X0303795Y0468504D01*
X0302575Y0467598D01*
X0300606Y0465630D01*
X0280921Y0465630D01*
X0278953Y0463661D01*
X0257299Y0463661D01*
X0253362Y0467598D01*
X0249425Y0467598D01*
X0248677Y0468504D01*
X0247457Y0467598D01*
X0245488Y0465630D01*
X0225803Y0465630D01*
X0223835Y0463661D01*
X0202181Y0463661D01*
X0198244Y0467598D01*
X0194307Y0467598D01*
X0193559Y0468504D01*
X0192339Y0467598D01*
X0190370Y0465630D01*
X0170685Y0465630D01*
X0168717Y0463661D01*
X0147063Y0463661D01*
X0143126Y0467598D01*
X0139189Y0467598D01*
X0138441Y0468504D01*
X0137220Y0467598D01*
X0119504Y0467598D01*
X0115567Y0463661D01*
X0103756Y0463661D01*
X0101787Y0465630D01*
X0086039Y0465630D01*
X0084071Y0467598D01*
X0083323Y0468504D01*
X0083323Y0458504D02*
X0086039Y0455787D01*
X0083323Y0438504D02*
X0084071Y0438071D01*
X0088008Y0434134D01*
X0058480Y0453819D02*
X0054543Y0449882D01*
X0053323Y0448504D01*
X0054543Y0467598D02*
X0053323Y0468504D01*
X0054543Y0467598D02*
X0064386Y0467598D01*
X0058480Y0473504D02*
X0103756Y0473504D01*
X0158874Y0473504D01*
X0213992Y0473504D01*
X0269110Y0473504D01*
X0324228Y0473504D01*
X0379346Y0473504D01*
X0434465Y0473504D01*
X0438402Y0477441D01*
X0439150Y0478504D01*
X0444307Y0473504D02*
X0473835Y0473504D01*
X0481709Y0481378D01*
X0525016Y0481378D01*
X0526984Y0479409D01*
X0530921Y0479409D01*
X0538795Y0487283D01*
X0538795Y0483346D02*
X0532890Y0477441D01*
X0483677Y0477441D01*
X0483677Y0473504D02*
X0473835Y0463661D01*
X0469150Y0468504D02*
X0467929Y0467598D01*
X0465961Y0465630D01*
X0446276Y0465630D01*
X0444307Y0463661D01*
X0439150Y0468504D02*
X0440370Y0469567D01*
X0444307Y0473504D01*
X0463992Y0483346D02*
X0408874Y0483346D01*
X0353756Y0483346D01*
X0298638Y0483346D01*
X0243520Y0483346D01*
X0188402Y0483346D01*
X0133283Y0483346D01*
X0137220Y0479409D01*
X0138441Y0478504D01*
X0133283Y0483346D02*
X0093913Y0483346D01*
X0088008Y0483346D01*
X0084071Y0479409D01*
X0083323Y0478504D01*
X0103756Y0473504D02*
X0107693Y0477441D01*
X0108441Y0478504D01*
X0108441Y0488504D02*
X0103756Y0493189D01*
X0158874Y0493189D01*
X0213992Y0493189D01*
X0269110Y0493189D01*
X0324228Y0493189D01*
X0379346Y0493189D01*
X0434465Y0493189D01*
X0439150Y0488504D01*
X0446276Y0501063D02*
X0444307Y0503031D01*
X0408874Y0503031D01*
X0353756Y0503031D01*
X0357693Y0499094D01*
X0358913Y0498504D01*
X0353756Y0503031D02*
X0308480Y0503031D01*
X0304543Y0499094D01*
X0303795Y0498504D01*
X0302575Y0499094D01*
X0298638Y0503031D01*
X0243520Y0503031D01*
X0247457Y0499094D01*
X0248677Y0498504D01*
X0243520Y0503031D02*
X0198244Y0503031D01*
X0194307Y0499094D01*
X0193559Y0498504D01*
X0192339Y0499094D01*
X0188402Y0503031D01*
X0133283Y0503031D01*
X0137220Y0499094D01*
X0138441Y0498504D01*
X0133283Y0503031D02*
X0088008Y0503031D01*
X0084071Y0499094D01*
X0083323Y0498504D01*
X0068323Y0503031D02*
X0080134Y0514843D01*
X0523047Y0514843D01*
X0526984Y0518780D01*
X0639189Y0518780D01*
X0631315Y0512874D02*
X0656906Y0512874D01*
X0660843Y0508937D01*
X0674622Y0508937D01*
X0684465Y0518780D01*
X0861630Y0518780D01*
X0861630Y0506969D01*
X0880094Y0488504D01*
X0880094Y0498504D02*
X0879346Y0499094D01*
X0863598Y0514843D01*
X0863598Y0520748D01*
X0678559Y0520748D01*
X0670685Y0534528D02*
X0607693Y0534528D01*
X0597850Y0524685D01*
X0582102Y0524685D01*
X0572260Y0534528D01*
X0526984Y0534528D01*
X0517142Y0540433D02*
X0580134Y0540433D01*
X0589976Y0530591D01*
X0599819Y0522717D02*
X0554543Y0522717D01*
X0554543Y0503031D02*
X0550606Y0499094D01*
X0549386Y0498504D01*
X0548638Y0499094D01*
X0544701Y0503031D01*
X0454150Y0503031D01*
X0444307Y0512874D01*
X0269110Y0512874D01*
X0263205Y0506969D01*
X0269110Y0493189D02*
X0273795Y0488504D01*
X0273795Y0478504D02*
X0273047Y0477441D01*
X0269110Y0473504D01*
X0248677Y0478504D02*
X0247457Y0479409D01*
X0243520Y0483346D01*
X0218677Y0478504D02*
X0217929Y0477441D01*
X0213992Y0473504D01*
X0193559Y0478504D02*
X0192339Y0479409D01*
X0188402Y0483346D01*
X0163559Y0478504D02*
X0162811Y0477441D01*
X0158874Y0473504D01*
X0163559Y0488504D02*
X0158874Y0493189D01*
X0127378Y0520748D02*
X0125409Y0518780D01*
X0127378Y0520748D02*
X0497457Y0520748D01*
X0517142Y0540433D01*
X0554543Y0503031D02*
X0617535Y0503031D01*
X0690370Y0503031D01*
X0765173Y0503031D01*
X0769110Y0499094D01*
X0769858Y0498504D01*
X0771079Y0506969D02*
X0769858Y0508504D01*
X0771079Y0506969D02*
X0790764Y0506969D01*
X0798638Y0499094D01*
X0799858Y0498504D01*
X0794701Y0493189D02*
X0729740Y0493189D01*
X0725055Y0488504D01*
X0723835Y0487283D01*
X0717929Y0487283D01*
X0712024Y0481378D01*
X0700213Y0493189D01*
X0647063Y0493189D01*
X0651000Y0489252D01*
X0652220Y0488504D01*
X0647063Y0493189D02*
X0584071Y0493189D01*
X0579386Y0488504D01*
X0599819Y0484094D02*
X0599819Y0483346D01*
X0538795Y0483346D01*
X0528953Y0483346D02*
X0528953Y0484094D01*
X0528953Y0483346D02*
X0473835Y0483346D01*
X0469898Y0479409D01*
X0469150Y0478504D01*
X0467929Y0479409D01*
X0463992Y0483346D01*
X0483677Y0473504D02*
X0662811Y0473504D01*
X0672654Y0483346D01*
X0672654Y0484094D01*
X0695055Y0478504D02*
X0696276Y0477441D01*
X0700213Y0473504D01*
X0741551Y0473504D01*
X0751394Y0463661D01*
X0804543Y0463661D01*
X0806512Y0461693D01*
X0822260Y0461693D01*
X0824228Y0459724D01*
X0824976Y0458504D01*
X0820291Y0453819D02*
X0741551Y0453819D01*
X0727772Y0467598D01*
X0725803Y0467598D01*
X0725055Y0468504D01*
X0735646Y0453819D02*
X0627378Y0453819D01*
X0623441Y0457756D01*
X0622220Y0458504D01*
X0617535Y0463661D02*
X0615567Y0465630D01*
X0597850Y0465630D01*
X0595882Y0463661D01*
X0554543Y0463661D01*
X0550606Y0467598D01*
X0549386Y0468504D01*
X0538795Y0459724D02*
X0528953Y0459724D01*
X0528953Y0460945D01*
X0538795Y0459724D02*
X0548638Y0449882D01*
X0549386Y0448504D01*
X0538795Y0436102D02*
X0526984Y0436102D01*
X0525016Y0434134D01*
X0493520Y0434134D01*
X0491551Y0432165D01*
X0399031Y0432165D01*
X0408874Y0443976D02*
X0412811Y0447913D01*
X0414031Y0448504D01*
X0383283Y0477441D02*
X0379346Y0473504D01*
X0383283Y0477441D02*
X0384031Y0478504D01*
X0384031Y0488504D02*
X0379346Y0493189D01*
X0357693Y0479409D02*
X0353756Y0483346D01*
X0357693Y0479409D02*
X0358913Y0478504D01*
X0328913Y0478504D02*
X0328165Y0477441D01*
X0324228Y0473504D01*
X0328913Y0488504D02*
X0324228Y0493189D01*
X0303795Y0478504D02*
X0302575Y0479409D01*
X0298638Y0483346D01*
X0303795Y0448504D02*
X0302575Y0447913D01*
X0298638Y0443976D01*
X0302575Y0438071D02*
X0303795Y0438504D01*
X0302575Y0438071D02*
X0298638Y0434134D01*
X0248677Y0438504D02*
X0247457Y0438071D01*
X0243520Y0434134D01*
X0243520Y0443976D02*
X0247457Y0447913D01*
X0248677Y0448504D01*
X0206118Y0430197D02*
X0373441Y0430197D01*
X0358913Y0438504D02*
X0357693Y0438071D01*
X0353756Y0434134D01*
X0353756Y0443976D02*
X0357693Y0447913D01*
X0358913Y0448504D01*
X0397063Y0414449D02*
X0487614Y0414449D01*
X0489583Y0416417D01*
X0922654Y0416417D01*
X0926591Y0412480D01*
X0926591Y0306181D01*
X0867535Y0306181D01*
X0863598Y0310118D02*
X0859661Y0306181D01*
X0830134Y0306181D01*
X0826197Y0310118D01*
X0824976Y0310709D01*
X0824228Y0312087D01*
X0812417Y0312087D01*
X0818323Y0306181D02*
X0775016Y0306181D01*
X0771079Y0310118D01*
X0769858Y0310709D01*
X0771079Y0319961D02*
X0769858Y0320709D01*
X0771079Y0319961D02*
X0790764Y0319961D01*
X0794701Y0316024D01*
X0841945Y0316024D01*
X0845882Y0319961D01*
X0853756Y0319961D01*
X0854976Y0320709D01*
X0851787Y0325866D02*
X0849819Y0323898D01*
X0828165Y0323898D01*
X0824976Y0320709D01*
X0824976Y0330709D02*
X0824228Y0331772D01*
X0812417Y0331772D01*
X0804543Y0325866D02*
X0847850Y0325866D01*
X0851787Y0329803D01*
X0853756Y0329803D01*
X0854976Y0330709D01*
X0851787Y0325866D02*
X0859661Y0325866D01*
X0873441Y0339646D01*
X0873441Y0349488D01*
X0879346Y0349488D01*
X0880094Y0350709D01*
X0873441Y0357362D01*
X0873441Y0363268D01*
X0875409Y0365236D01*
X0887220Y0365236D01*
X0887220Y0373110D01*
X0883283Y0377047D01*
X0784858Y0377047D01*
X0780921Y0380984D01*
X0792732Y0373110D02*
X0794701Y0375079D01*
X0875409Y0375079D01*
X0879346Y0371142D01*
X0880094Y0370709D01*
X0885252Y0379016D02*
X0889189Y0375079D01*
X0889189Y0361299D01*
X0881315Y0361299D01*
X0880094Y0360709D01*
X0871472Y0353425D02*
X0865567Y0359331D01*
X0855724Y0359331D01*
X0854976Y0360709D01*
X0839976Y0353425D02*
X0832102Y0353425D01*
X0826197Y0359331D01*
X0824976Y0360709D01*
X0824228Y0361299D01*
X0820291Y0365236D01*
X0749425Y0365236D01*
X0745488Y0361299D01*
X0744740Y0360827D01*
X0743520Y0351457D02*
X0744740Y0350827D01*
X0743520Y0351457D02*
X0715961Y0351457D01*
X0714740Y0350827D01*
X0713992Y0341614D02*
X0702181Y0341614D01*
X0710055Y0335709D02*
X0652969Y0335709D01*
X0660843Y0341614D02*
X0664780Y0345551D01*
X0735646Y0345551D01*
X0735646Y0325866D01*
X0743520Y0321929D02*
X0723835Y0321929D01*
X0715961Y0329803D01*
X0714740Y0330827D01*
X0713992Y0331772D01*
X0710055Y0335709D01*
X0714740Y0340827D02*
X0713992Y0341614D01*
X0714740Y0320827D02*
X0715961Y0319961D01*
X0739583Y0296339D01*
X0794701Y0296339D01*
X0798638Y0300276D01*
X0799858Y0300709D01*
X0806512Y0296339D02*
X0904937Y0296339D01*
X0908874Y0300276D01*
X0910094Y0300709D01*
X0891157Y0312087D02*
X0881315Y0312087D01*
X0880094Y0310709D01*
X0875409Y0316024D02*
X0880094Y0320709D01*
X0875409Y0316024D02*
X0847850Y0316024D01*
X0863598Y0323898D02*
X0879346Y0339646D01*
X0880094Y0340709D01*
X0861630Y0337677D02*
X0861630Y0345551D01*
X0847850Y0345551D01*
X0843913Y0349488D01*
X0826197Y0349488D01*
X0824976Y0350709D01*
X0812417Y0355394D02*
X0775016Y0355394D01*
X0771079Y0359331D01*
X0769858Y0360709D01*
X0769858Y0370709D02*
X0771079Y0371142D01*
X0773047Y0373110D01*
X0792732Y0373110D01*
X0763205Y0377047D02*
X0761236Y0375079D01*
X0739583Y0375079D01*
X0735646Y0371142D01*
X0751394Y0380984D02*
X0678559Y0380984D01*
X0676591Y0384921D02*
X0674622Y0382953D01*
X0609661Y0382953D01*
X0607693Y0380984D01*
X0605724Y0379016D01*
X0517142Y0379016D01*
X0515173Y0380984D01*
X0511236Y0377047D02*
X0381315Y0377047D01*
X0377378Y0373110D01*
X0371472Y0373110D01*
X0363598Y0380984D01*
X0074228Y0380984D01*
X0054543Y0361299D01*
X0053323Y0360709D01*
X0058480Y0355394D02*
X0054543Y0351457D01*
X0053323Y0350709D01*
X0058480Y0355394D02*
X0103756Y0355394D01*
X0108441Y0350709D01*
X0111630Y0347520D01*
X0133283Y0347520D01*
X0135252Y0345551D01*
X0154937Y0345551D01*
X0158874Y0349488D01*
X0162811Y0349488D01*
X0163559Y0350709D01*
X0164780Y0351457D01*
X0168717Y0351457D01*
X0172654Y0355394D01*
X0213992Y0355394D01*
X0218677Y0350709D01*
X0219898Y0351457D01*
X0223835Y0355394D01*
X0269110Y0355394D01*
X0324228Y0355394D01*
X0379346Y0355394D01*
X0418717Y0355394D01*
X0420685Y0353425D01*
X0436433Y0353425D01*
X0439150Y0350709D01*
X0444307Y0355394D02*
X0424622Y0355394D01*
X0422654Y0357362D01*
X0428559Y0361299D02*
X0438402Y0361299D01*
X0439150Y0360709D01*
X0440370Y0359331D01*
X0442339Y0357362D01*
X0463992Y0357362D01*
X0465961Y0355394D01*
X0489583Y0355394D01*
X0493520Y0359331D01*
X0494268Y0360709D01*
X0489583Y0365236D02*
X0493520Y0369173D01*
X0494268Y0370709D01*
X0489583Y0365236D02*
X0450213Y0365236D01*
X0448244Y0361299D02*
X0444307Y0365236D01*
X0408874Y0365236D01*
X0353756Y0365236D01*
X0298638Y0365236D01*
X0302575Y0361299D01*
X0303795Y0360709D01*
X0298638Y0365236D02*
X0253362Y0365236D01*
X0249425Y0361299D01*
X0248677Y0360709D01*
X0247457Y0361299D01*
X0243520Y0365236D01*
X0198244Y0365236D01*
X0194307Y0361299D01*
X0193559Y0360709D01*
X0192339Y0359331D01*
X0178559Y0359331D01*
X0172654Y0359331D01*
X0168717Y0355394D01*
X0143126Y0355394D01*
X0139189Y0359331D01*
X0138441Y0360709D01*
X0137220Y0361299D01*
X0133283Y0365236D01*
X0088008Y0365236D01*
X0084071Y0361299D01*
X0083323Y0360709D01*
X0108441Y0340709D02*
X0107693Y0339646D01*
X0103756Y0335709D01*
X0099819Y0331772D01*
X0086039Y0327835D02*
X0084071Y0329803D01*
X0083323Y0330709D01*
X0058480Y0335709D02*
X0054543Y0339646D01*
X0053323Y0340709D01*
X0133283Y0306181D02*
X0137220Y0310118D01*
X0138441Y0310709D01*
X0158874Y0335709D02*
X0162811Y0339646D01*
X0163559Y0340709D01*
X0193559Y0340709D02*
X0194307Y0341614D01*
X0198244Y0345551D01*
X0213992Y0335709D02*
X0217929Y0339646D01*
X0218677Y0340709D01*
X0193559Y0310709D02*
X0192339Y0310118D01*
X0188402Y0306181D01*
X0192339Y0300276D02*
X0193559Y0300709D01*
X0192339Y0300276D02*
X0188402Y0296339D01*
X0243520Y0296339D02*
X0247457Y0300276D01*
X0248677Y0300709D01*
X0243520Y0306181D02*
X0247457Y0310118D01*
X0248677Y0310709D01*
X0269110Y0335709D02*
X0273047Y0339646D01*
X0273795Y0340709D01*
X0273795Y0350709D02*
X0269110Y0355394D01*
X0298638Y0345551D02*
X0302575Y0341614D01*
X0303795Y0340709D01*
X0324228Y0335709D02*
X0328165Y0339646D01*
X0328913Y0340709D01*
X0328913Y0350709D02*
X0324228Y0355394D01*
X0353756Y0365236D02*
X0357693Y0361299D01*
X0358913Y0360709D01*
X0353756Y0345551D02*
X0357693Y0341614D01*
X0358913Y0340709D01*
X0379346Y0335709D02*
X0383283Y0339646D01*
X0384031Y0340709D01*
X0384031Y0350709D02*
X0379346Y0355394D01*
X0408874Y0365236D02*
X0412811Y0361299D01*
X0414031Y0360709D01*
X0408874Y0345551D02*
X0412811Y0341614D01*
X0414031Y0340709D01*
X0444307Y0355394D02*
X0454150Y0345551D01*
X0473835Y0345551D01*
X0477772Y0341614D01*
X0493520Y0341614D01*
X0494268Y0340709D01*
X0487614Y0345551D02*
X0501394Y0345551D01*
X0494268Y0350709D02*
X0493520Y0351457D01*
X0469898Y0351457D01*
X0469150Y0350709D01*
X0469150Y0360709D02*
X0467929Y0361299D01*
X0448244Y0361299D01*
X0509268Y0380984D02*
X0515173Y0386890D01*
X0672654Y0386890D01*
X0676591Y0384921D02*
X0847850Y0384921D01*
X0845882Y0388858D02*
X0843913Y0386890D01*
X0721866Y0386890D01*
X0713992Y0394764D01*
X0603756Y0394764D01*
X0597850Y0382953D02*
X0574228Y0382953D01*
X0511236Y0377047D02*
X0696276Y0377047D01*
X0712024Y0398701D02*
X0475803Y0398701D01*
X0483677Y0406575D02*
X0481709Y0408543D01*
X0359661Y0408543D01*
X0361630Y0412480D02*
X0200213Y0412480D01*
X0188402Y0434134D02*
X0192339Y0438071D01*
X0193559Y0438504D01*
X0188402Y0443976D02*
X0192339Y0447913D01*
X0193559Y0448504D01*
X0138441Y0438504D02*
X0137220Y0438071D01*
X0133283Y0434134D01*
X0058480Y0473504D02*
X0054543Y0477441D01*
X0053323Y0478504D01*
X0053323Y0488504D02*
X0054543Y0489252D01*
X0058480Y0493189D01*
X0103756Y0493189D01*
X0213992Y0493189D02*
X0218677Y0488504D01*
X0361630Y0412480D02*
X0363598Y0410512D01*
X0489583Y0410512D01*
X0491551Y0412480D01*
X0465961Y0402638D02*
X0786827Y0402638D01*
X0788795Y0400669D01*
X0737614Y0394764D02*
X0873441Y0394764D01*
X0891157Y0377047D01*
X0891157Y0312087D01*
X0861630Y0337677D02*
X0859661Y0335709D01*
X0775016Y0335709D01*
X0771079Y0331772D01*
X0769858Y0330709D01*
X0769110Y0329803D01*
X0759268Y0319961D01*
X0757299Y0319961D01*
X0749425Y0316024D02*
X0788795Y0316024D01*
X0799858Y0320709D02*
X0800606Y0321929D01*
X0804543Y0325866D01*
X0824976Y0340709D02*
X0826197Y0339646D01*
X0845882Y0339646D01*
X0841945Y0345551D02*
X0775016Y0345551D01*
X0771079Y0341614D01*
X0769858Y0340709D01*
X0744740Y0320827D02*
X0743520Y0321929D01*
X0749425Y0316024D02*
X0745488Y0312087D01*
X0744740Y0310827D01*
X0725803Y0282559D02*
X0605724Y0282559D01*
X0603756Y0280591D01*
X0605724Y0276654D02*
X0568323Y0276654D01*
X0564386Y0280591D01*
X0562417Y0280591D01*
X0558480Y0276654D01*
X0489583Y0276654D01*
X0487614Y0278622D01*
X0483677Y0278622D01*
X0481709Y0276654D01*
X0422654Y0276654D01*
X0420685Y0274685D01*
X0408874Y0296339D02*
X0412811Y0300276D01*
X0414031Y0300709D01*
X0426591Y0306181D02*
X0397063Y0306181D01*
X0358913Y0310709D02*
X0357693Y0310118D01*
X0353756Y0306181D01*
X0343913Y0284528D02*
X0475803Y0284528D01*
X0481709Y0290433D02*
X0316354Y0290433D01*
X0312417Y0286496D01*
X0314386Y0292402D02*
X0493520Y0292402D01*
X0494268Y0290709D01*
X0495488Y0292402D01*
X0511236Y0292402D01*
X0519110Y0296339D02*
X0487614Y0296339D01*
X0493520Y0300276D02*
X0477772Y0300276D01*
X0471866Y0294370D01*
X0481709Y0290433D02*
X0483677Y0288465D01*
X0493520Y0300276D02*
X0494268Y0300709D01*
X0519110Y0296339D02*
X0523047Y0300276D01*
X0524268Y0300709D01*
X0528953Y0296339D02*
X0617535Y0296339D01*
X0623441Y0302244D01*
X0609661Y0280591D02*
X0605724Y0276654D01*
X0609661Y0280591D02*
X0721866Y0280591D01*
X0725803Y0276654D01*
X0778953Y0276654D01*
X0782890Y0280591D01*
X0778953Y0270748D02*
X0782890Y0266811D01*
X0814386Y0266811D01*
X0857693Y0223504D01*
X0857693Y0091614D01*
X0853756Y0091614D01*
X0853756Y0091220D01*
X0873441Y0091220D02*
X0873441Y0268780D01*
X0875409Y0274685D02*
X0723835Y0274685D01*
X0727772Y0280591D02*
X0725803Y0282559D01*
X0686433Y0251063D02*
X0684465Y0253031D01*
X0672654Y0253031D01*
X0670685Y0243189D02*
X0668717Y0241220D01*
X0570291Y0241220D01*
X0568323Y0243189D01*
X0550606Y0247126D02*
X0544701Y0247126D01*
X0562417Y0274685D02*
X0485646Y0274685D01*
X0499425Y0270748D02*
X0298638Y0270748D01*
X0271079Y0274685D02*
X0267142Y0270748D01*
X0271079Y0274685D02*
X0349819Y0274685D01*
X0322260Y0253031D02*
X0054543Y0253031D01*
X0054543Y0227441D01*
X0053323Y0225945D01*
X0058480Y0221535D02*
X0060449Y0223504D01*
X0060449Y0241220D01*
X0054543Y0195945D02*
X0053323Y0195945D01*
X0054543Y0195945D02*
X0058480Y0192008D01*
X0060449Y0178228D02*
X0060449Y0140827D01*
X0475803Y0140827D01*
X0479740Y0144764D01*
X0489583Y0154606D02*
X0491551Y0156575D01*
X0540764Y0156575D01*
X0542732Y0148701D02*
X0420685Y0148701D01*
X0418717Y0150669D01*
X0408874Y0160512D02*
X0298638Y0160512D01*
X0303795Y0165945D02*
X0304543Y0166417D01*
X0308480Y0170354D01*
X0379346Y0170354D01*
X0383283Y0166417D01*
X0384031Y0165827D01*
X0389189Y0170354D02*
X0424622Y0170354D01*
X0434465Y0160512D01*
X0456118Y0160512D01*
X0465961Y0150669D01*
X0595882Y0150669D01*
X0639189Y0150669D01*
X0643126Y0154606D01*
X0769110Y0154606D01*
X0771079Y0156575D01*
X0765173Y0160512D02*
X0629346Y0160512D01*
X0627378Y0158543D01*
X0617535Y0158543D01*
X0613598Y0154606D01*
X0625409Y0160512D02*
X0629346Y0164449D01*
X0633283Y0164449D01*
X0634504Y0165827D01*
X0635252Y0164449D01*
X0782890Y0164449D01*
X0790764Y0156575D01*
X0798638Y0152638D02*
X0645094Y0152638D01*
X0639189Y0146732D01*
X0645094Y0142795D02*
X0647063Y0144764D01*
X0771079Y0144764D01*
X0775016Y0148701D01*
X0778953Y0168386D02*
X0824228Y0168386D01*
X0855724Y0136890D01*
X0855724Y0123110D01*
X0776984Y0123110D01*
X0765173Y0111299D01*
X0765173Y0091220D01*
X0784858Y0091220D02*
X0784858Y0119173D01*
X0814386Y0115236D02*
X0818323Y0119173D01*
X0814386Y0115236D02*
X0814386Y0091220D01*
X0849819Y0132953D02*
X0615567Y0132953D01*
X0619504Y0136890D02*
X0682496Y0136890D01*
X0672654Y0140827D02*
X0540764Y0140827D01*
X0538795Y0142795D01*
X0540764Y0146732D02*
X0544701Y0142795D01*
X0645094Y0142795D01*
X0625409Y0146732D02*
X0544701Y0146732D01*
X0542732Y0148701D01*
X0540764Y0146732D02*
X0532890Y0146732D01*
X0530921Y0144764D01*
X0493520Y0174291D02*
X0494268Y0175945D01*
X0493520Y0174291D02*
X0489583Y0170354D01*
X0479740Y0170354D02*
X0444307Y0170354D01*
X0440370Y0174291D01*
X0439150Y0175827D01*
X0414031Y0185827D02*
X0412811Y0186102D01*
X0408874Y0190039D01*
X0377378Y0190039D01*
X0369504Y0190039D02*
X0278953Y0190039D01*
X0275016Y0186102D01*
X0273795Y0185945D01*
X0303795Y0175945D02*
X0304543Y0176260D01*
X0308480Y0180197D01*
X0599819Y0180197D01*
X0773047Y0180197D01*
X0780921Y0172323D01*
X0778953Y0168386D02*
X0771079Y0176260D01*
X0645094Y0176260D01*
X0637220Y0172323D02*
X0702181Y0172323D01*
X0710055Y0186102D02*
X0786827Y0262874D01*
X0812417Y0262874D02*
X0735646Y0186102D01*
X0682496Y0207756D02*
X0670685Y0195945D01*
X0649031Y0199882D02*
X0647063Y0201850D01*
X0625409Y0207756D02*
X0605724Y0207756D01*
X0604504Y0205827D01*
X0607693Y0188071D02*
X0605724Y0186102D01*
X0604504Y0185827D01*
X0599819Y0180197D02*
X0603756Y0176260D01*
X0604504Y0175827D01*
X0591945Y0176260D02*
X0586039Y0170354D01*
X0597850Y0160512D02*
X0625409Y0160512D01*
X0637220Y0172323D02*
X0635252Y0174291D01*
X0634504Y0175827D01*
X0597850Y0160512D02*
X0591945Y0154606D01*
X0692339Y0125079D02*
X0706118Y0125079D01*
X0706118Y0091220D01*
X0696276Y0091220D02*
X0696276Y0119173D01*
X0692339Y0119173D01*
X0715961Y0125079D02*
X0715961Y0091220D01*
X0473835Y0160512D02*
X0469150Y0155827D01*
X0414031Y0165827D02*
X0412811Y0164449D01*
X0408874Y0160512D01*
X0389189Y0170354D02*
X0385252Y0174291D01*
X0384031Y0175827D01*
X0384031Y0195827D02*
X0385252Y0195945D01*
X0404937Y0195945D01*
X0397063Y0199882D02*
X0324228Y0199882D01*
X0320291Y0199882D02*
X0326197Y0205787D01*
X0328165Y0205787D01*
X0328913Y0205945D01*
X0322260Y0219567D02*
X0324228Y0221535D01*
X0328165Y0235315D02*
X0406906Y0235315D01*
X0384031Y0225827D02*
X0383283Y0225472D01*
X0373441Y0215630D01*
X0439150Y0205827D02*
X0440370Y0205787D01*
X0444307Y0201850D01*
X0444307Y0221535D02*
X0440370Y0225472D01*
X0439150Y0225827D01*
X0568323Y0300276D02*
X0578165Y0300276D01*
X0579386Y0300709D01*
X0584071Y0291417D02*
X0584071Y0288465D01*
X0530921Y0317992D02*
X0525016Y0312087D01*
X0524268Y0310709D01*
X0633283Y0331772D02*
X0634504Y0330709D01*
X0634504Y0340709D02*
X0633283Y0341614D01*
X0680528Y0321929D02*
X0688402Y0321929D01*
X0689622Y0320709D01*
X0733677Y0390827D02*
X0737614Y0394764D01*
X0769110Y0430197D02*
X0830134Y0430197D01*
X0824976Y0448504D02*
X0824228Y0449882D01*
X0820291Y0453819D01*
X0814386Y0463661D02*
X0804543Y0473504D01*
X0775016Y0473504D01*
X0771079Y0477441D01*
X0769858Y0478504D01*
X0794701Y0493189D02*
X0798638Y0489252D01*
X0799858Y0488504D01*
X0800606Y0487283D01*
X0806512Y0487283D01*
X0824228Y0469567D01*
X0824976Y0468504D01*
X0814386Y0463661D02*
X0865567Y0463661D01*
X0879346Y0449882D01*
X0880094Y0448504D01*
X0880094Y0458504D02*
X0887220Y0465630D01*
X0887220Y0524685D01*
X0601787Y0524685D01*
X0599819Y0522717D01*
X0617535Y0503031D02*
X0621472Y0499094D01*
X0622220Y0498504D01*
X0617535Y0463661D02*
X0658874Y0463661D01*
X0647063Y0443976D02*
X0651000Y0440039D01*
X0652220Y0438504D01*
X0658874Y0432165D02*
X0605724Y0432165D01*
X0601787Y0436102D01*
X0597850Y0436102D01*
X0591945Y0430197D01*
X0538795Y0430197D01*
X0542732Y0432165D02*
X0538795Y0436102D01*
X0542732Y0432165D02*
X0589976Y0432165D01*
X0611630Y0459724D02*
X0621472Y0449882D01*
X0622220Y0448504D01*
X0611630Y0459724D02*
X0599819Y0459724D01*
X0599819Y0460945D01*
X0658874Y0432165D02*
X0670685Y0443976D01*
X0765173Y0443976D01*
X0769110Y0447913D01*
X0769858Y0448504D01*
X0763205Y0436102D02*
X0747457Y0436102D01*
X0745488Y0438071D01*
X0763205Y0436102D02*
X0769110Y0430197D01*
X0788795Y0449882D02*
X0798638Y0440039D01*
X0799858Y0438504D01*
X0854976Y0468504D02*
X0855724Y0469567D01*
X0879346Y0469567D01*
X0880094Y0468504D01*
X0910094Y0488504D02*
X0910843Y0489252D01*
X0932496Y0489252D01*
X0854976Y0508504D02*
X0853756Y0506969D01*
X0826197Y0479409D01*
X0824976Y0478504D01*
X0712024Y0481378D02*
X0708087Y0477441D01*
X0695055Y0498504D02*
X0694307Y0499094D01*
X0690370Y0503031D01*
X0845882Y0388858D02*
X0849819Y0388858D01*
X0859661Y0379016D01*
X0885252Y0379016D01*
X0509268Y0380984D02*
X0377378Y0380984D01*
X0373441Y0377047D01*
X0303795Y0310709D02*
X0302575Y0310118D01*
X0298638Y0306181D01*
X0278953Y0211693D02*
X0275016Y0207756D01*
X0273795Y0205945D01*
X0218677Y0185945D02*
X0217929Y0186102D01*
X0194307Y0186102D01*
X0193559Y0185945D01*
X0192339Y0176260D02*
X0193559Y0175945D01*
X0192339Y0176260D02*
X0164780Y0176260D01*
X0163559Y0175945D01*
X0163559Y0185945D02*
X0162811Y0186102D01*
X0158874Y0190039D01*
X0088008Y0170354D02*
X0084071Y0166417D01*
X0083323Y0165945D01*
X0310449Y0127047D02*
X0312417Y0129016D01*
X0463992Y0443976D02*
X0467929Y0447913D01*
X0469150Y0448504D01*
X0414031Y0478504D02*
X0412811Y0479409D01*
X0408874Y0483346D01*
X0414031Y0498504D02*
X0412811Y0499094D01*
X0408874Y0503031D01*
X0446276Y0501063D02*
X0465961Y0501063D01*
X0467929Y0499094D01*
X0469150Y0498504D01*
D22*
X0483677Y0477441D03*
X0479740Y0459724D03*
X0513205Y0438071D03*
X0511236Y0426260D03*
X0521079Y0422323D03*
X0538795Y0430197D03*
X0491551Y0412480D03*
X0483677Y0406575D03*
X0475803Y0398701D03*
X0465961Y0402638D03*
X0511236Y0377047D03*
X0515173Y0380984D03*
X0536827Y0390827D03*
X0574228Y0382953D03*
X0597850Y0382953D03*
X0607693Y0380984D03*
X0603756Y0394764D03*
X0558480Y0365236D03*
X0562417Y0343583D03*
X0570291Y0341614D03*
X0588008Y0341614D03*
X0597850Y0355394D03*
X0619504Y0355394D03*
X0623441Y0359331D03*
X0623441Y0335709D03*
X0652969Y0335709D03*
X0668717Y0331772D03*
X0651000Y0319961D03*
X0647063Y0304213D03*
X0647063Y0298307D03*
X0641157Y0288465D03*
X0623441Y0302244D03*
X0593913Y0316024D03*
X0568323Y0310118D03*
X0568323Y0300276D03*
X0542732Y0306181D03*
X0538795Y0317992D03*
X0538795Y0323898D03*
X0534858Y0327835D03*
X0536827Y0341614D03*
X0517142Y0355394D03*
X0511236Y0367205D03*
X0487614Y0345551D03*
X0511236Y0325866D03*
X0487614Y0316024D03*
X0479740Y0319961D03*
X0454150Y0325866D03*
X0446276Y0335709D03*
X0428559Y0361299D03*
X0422654Y0357362D03*
X0450213Y0365236D03*
X0373441Y0377047D03*
X0359661Y0408543D03*
X0373441Y0430197D03*
X0369504Y0443976D03*
X0399031Y0432165D03*
X0397063Y0414449D03*
X0538795Y0487283D03*
X0554543Y0522717D03*
X0526984Y0534528D03*
X0589976Y0530591D03*
X0631315Y0512874D03*
X0639189Y0518780D03*
X0670685Y0534528D03*
X0678559Y0520748D03*
X0708087Y0477441D03*
X0735646Y0453819D03*
X0745488Y0438071D03*
X0788795Y0449882D03*
X0830134Y0430197D03*
X0788795Y0400669D03*
X0780921Y0380984D03*
X0763205Y0377047D03*
X0751394Y0380984D03*
X0733677Y0390827D03*
X0712024Y0398701D03*
X0678559Y0380984D03*
X0672654Y0386890D03*
X0696276Y0377047D03*
X0731709Y0365236D03*
X0702181Y0341614D03*
X0735646Y0325866D03*
X0757299Y0319961D03*
X0788795Y0316024D03*
X0812417Y0312087D03*
X0818323Y0306181D03*
X0806512Y0296339D03*
X0782890Y0280591D03*
X0778953Y0270748D03*
X0786827Y0262874D03*
X0769110Y0260906D03*
X0765173Y0256969D03*
X0751394Y0253031D03*
X0743520Y0262874D03*
X0727772Y0268780D03*
X0727772Y0280591D03*
X0704150Y0272717D03*
X0686433Y0270748D03*
X0668717Y0276654D03*
X0668717Y0262874D03*
X0672654Y0253031D03*
X0670685Y0243189D03*
X0686433Y0251063D03*
X0651000Y0266811D03*
X0603756Y0280591D03*
X0589976Y0270748D03*
X0564386Y0280591D03*
X0562417Y0274685D03*
X0538795Y0286496D03*
X0530921Y0270748D03*
X0534858Y0255000D03*
X0546669Y0251063D03*
X0550606Y0247126D03*
X0534858Y0239252D03*
X0530921Y0245157D03*
X0568323Y0243189D03*
X0574228Y0235315D03*
X0572260Y0219567D03*
X0566354Y0219567D03*
X0572260Y0199882D03*
X0591945Y0176260D03*
X0591945Y0154606D03*
X0595882Y0150669D03*
X0613598Y0154606D03*
X0625409Y0146732D03*
X0619504Y0136890D03*
X0615567Y0132953D03*
X0619504Y0123110D03*
X0627378Y0121142D03*
X0635252Y0123110D03*
X0652969Y0119173D03*
X0660843Y0119173D03*
X0662811Y0129016D03*
X0656906Y0129016D03*
X0670685Y0125079D03*
X0672654Y0140827D03*
X0682496Y0136890D03*
X0692339Y0125079D03*
X0692339Y0119173D03*
X0715961Y0125079D03*
X0719898Y0129016D03*
X0729740Y0129016D03*
X0775016Y0148701D03*
X0771079Y0156575D03*
X0765173Y0160512D03*
X0780921Y0172323D03*
X0790764Y0156575D03*
X0798638Y0152638D03*
X0784858Y0119173D03*
X0818323Y0119173D03*
X0849819Y0132953D03*
X0735646Y0186102D03*
X0702181Y0172323D03*
X0694307Y0190039D03*
X0674622Y0190039D03*
X0660843Y0186102D03*
X0645094Y0176260D03*
X0649031Y0199882D03*
X0652969Y0215630D03*
X0625409Y0207756D03*
X0621472Y0215630D03*
X0613598Y0215630D03*
X0599819Y0247126D03*
X0532890Y0199882D03*
X0530921Y0190039D03*
X0503362Y0195945D03*
X0481709Y0195945D03*
X0479740Y0170354D03*
X0489583Y0154606D03*
X0479740Y0144764D03*
X0505331Y0127047D03*
X0511236Y0127047D03*
X0530921Y0144764D03*
X0538795Y0142795D03*
X0526984Y0160512D03*
X0591945Y0121142D03*
X0611630Y0109331D03*
X0611630Y0103425D03*
X0588008Y0107362D03*
X0639189Y0146732D03*
X0647063Y0144764D03*
X0682496Y0207756D03*
X0731709Y0235315D03*
X0757299Y0239252D03*
X0812417Y0262874D03*
X0873441Y0268780D03*
X0875409Y0274685D03*
X0867535Y0306181D03*
X0863598Y0310118D03*
X0847850Y0316024D03*
X0863598Y0323898D03*
X0845882Y0339646D03*
X0841945Y0345551D03*
X0839976Y0353425D03*
X0812417Y0355394D03*
X0812417Y0331772D03*
X0871472Y0353425D03*
X0847850Y0384921D03*
X0696276Y0296339D03*
X0678559Y0302244D03*
X0511236Y0292402D03*
X0487614Y0296339D03*
X0483677Y0288465D03*
X0475803Y0284528D03*
X0485646Y0274685D03*
X0499425Y0270748D03*
X0491551Y0237283D03*
X0481709Y0225472D03*
X0432496Y0243189D03*
X0436433Y0253031D03*
X0406906Y0235315D03*
X0399031Y0241220D03*
X0420685Y0221535D03*
X0422654Y0205787D03*
X0401000Y0201850D03*
X0399031Y0209724D03*
X0373441Y0215630D03*
X0377378Y0190039D03*
X0369504Y0190039D03*
X0322260Y0219567D03*
X0328165Y0235315D03*
X0322260Y0253031D03*
X0298638Y0270748D03*
X0267142Y0270748D03*
X0255331Y0286496D03*
X0233677Y0292402D03*
X0288795Y0292402D03*
X0310449Y0294370D03*
X0343913Y0284528D03*
X0349819Y0274685D03*
X0397063Y0306181D03*
X0426591Y0306181D03*
X0454150Y0300276D03*
X0420685Y0274685D03*
X0288795Y0229409D03*
X0243520Y0239252D03*
X0229740Y0215630D03*
X0208087Y0195945D03*
X0212024Y0192008D03*
X0318323Y0152638D03*
X0341945Y0150669D03*
X0341945Y0156575D03*
X0330134Y0125079D03*
X0310449Y0127047D03*
X0367535Y0125079D03*
X0393126Y0119173D03*
X0428559Y0123110D03*
X0101787Y0127047D03*
X0099819Y0331772D03*
X0093913Y0345551D03*
X0178559Y0359331D03*
X0200213Y0412480D03*
X0206118Y0430197D03*
X0156906Y0422323D03*
X0145094Y0408543D03*
X0089976Y0426260D03*
X0064386Y0467598D03*
X0093913Y0483346D03*
X0068323Y0503031D03*
X0125409Y0518780D03*
X0152969Y0459724D03*
X0263205Y0506969D03*
X0635252Y0443976D03*
X0658874Y0463661D03*
D23*
X0603756Y0121142D03*
X0920685Y0121142D03*
M02*
