G75*
%MOIN*%
%OFA0B0*%
%FSLAX25Y25*%
%IPPOS*%
%LPD*%
%AMOC8*
5,1,8,0,0,1.08239X$1,22.5*
%
%ADD10C,0.12611*%
%ADD11R,2.97244X0.39370*%
%ADD12R,0.07874X0.07874*%
%ADD13R,0.07493X0.48044*%
%ADD14C,0.06000*%
%ADD15OC8,0.06000*%
%ADD16C,0.09300*%
%ADD17OC8,0.09300*%
D10*
X0021079Y0544370D03*
X0930528Y0544370D03*
D11*
X0770094Y0024685D03*
D12*
X0920685Y0121142D03*
X0920685Y0134921D03*
X0603756Y0134921D03*
X0603756Y0121142D03*
D13*
X0627378Y0091220D03*
X0637220Y0091220D03*
X0647063Y0091220D03*
X0656906Y0091220D03*
X0666748Y0091220D03*
X0676591Y0091220D03*
X0686433Y0091220D03*
X0696276Y0091220D03*
X0706118Y0091220D03*
X0715961Y0091220D03*
X0725803Y0091220D03*
X0735646Y0091220D03*
X0745488Y0091220D03*
X0755331Y0091220D03*
X0765173Y0091220D03*
X0775016Y0091220D03*
X0784858Y0091220D03*
X0794701Y0091220D03*
X0804543Y0091220D03*
X0814386Y0091220D03*
X0824228Y0091220D03*
X0834071Y0091220D03*
X0843913Y0091220D03*
X0853756Y0091220D03*
X0863598Y0091220D03*
X0873441Y0091220D03*
X0883283Y0091220D03*
X0893126Y0091220D03*
X0902969Y0091220D03*
X0912811Y0091220D03*
D14*
X0637104Y0155827D02*
X0631904Y0155827D01*
X0631904Y0165827D02*
X0637104Y0165827D01*
X0637104Y0175827D02*
X0631904Y0175827D01*
X0631904Y0185827D02*
X0637104Y0185827D01*
X0637104Y0195827D02*
X0631904Y0195827D01*
X0631904Y0205827D02*
X0637104Y0205827D01*
X0637104Y0215827D02*
X0631904Y0215827D01*
X0631904Y0225827D02*
X0637104Y0225827D01*
X0607104Y0225827D02*
X0601904Y0225827D01*
X0601904Y0215827D02*
X0607104Y0215827D01*
X0607104Y0205827D02*
X0601904Y0205827D01*
X0601904Y0195827D02*
X0607104Y0195827D01*
X0607104Y0185827D02*
X0601904Y0185827D01*
X0601904Y0175827D02*
X0607104Y0175827D01*
X0607104Y0165827D02*
X0601904Y0165827D01*
X0601904Y0155827D02*
X0607104Y0155827D01*
X0581986Y0155827D02*
X0576786Y0155827D01*
X0576786Y0165827D02*
X0581986Y0165827D01*
X0581986Y0175827D02*
X0576786Y0175827D01*
X0576786Y0185827D02*
X0581986Y0185827D01*
X0581986Y0195827D02*
X0576786Y0195827D01*
X0576786Y0205827D02*
X0581986Y0205827D01*
X0581986Y0215827D02*
X0576786Y0215827D01*
X0576786Y0225827D02*
X0581986Y0225827D01*
X0551986Y0225827D02*
X0546786Y0225827D01*
X0546786Y0215827D02*
X0551986Y0215827D01*
X0551986Y0205827D02*
X0546786Y0205827D01*
X0546786Y0195827D02*
X0551986Y0195827D01*
X0551986Y0185827D02*
X0546786Y0185827D01*
X0546786Y0175827D02*
X0551986Y0175827D01*
X0551986Y0165827D02*
X0546786Y0165827D01*
X0546786Y0155827D02*
X0551986Y0155827D01*
X0526868Y0165945D02*
X0521668Y0165945D01*
X0521668Y0175945D02*
X0526868Y0175945D01*
X0526868Y0185945D02*
X0521668Y0185945D01*
X0521668Y0195945D02*
X0526868Y0195945D01*
X0526868Y0205945D02*
X0521668Y0205945D01*
X0521668Y0215945D02*
X0526868Y0215945D01*
X0526868Y0225945D02*
X0521668Y0225945D01*
X0496868Y0225945D02*
X0491668Y0225945D01*
X0491668Y0215945D02*
X0496868Y0215945D01*
X0496868Y0205945D02*
X0491668Y0205945D01*
X0491668Y0195945D02*
X0496868Y0195945D01*
X0496868Y0185945D02*
X0491668Y0185945D01*
X0491668Y0175945D02*
X0496868Y0175945D01*
X0496868Y0165945D02*
X0491668Y0165945D01*
X0471750Y0165827D02*
X0466550Y0165827D01*
X0466550Y0175827D02*
X0471750Y0175827D01*
X0471750Y0185827D02*
X0466550Y0185827D01*
X0466550Y0195827D02*
X0471750Y0195827D01*
X0471750Y0205827D02*
X0466550Y0205827D01*
X0466550Y0215827D02*
X0471750Y0215827D01*
X0471750Y0225827D02*
X0466550Y0225827D01*
X0441750Y0225827D02*
X0436550Y0225827D01*
X0436550Y0215827D02*
X0441750Y0215827D01*
X0441750Y0205827D02*
X0436550Y0205827D01*
X0436550Y0195827D02*
X0441750Y0195827D01*
X0441750Y0185827D02*
X0436550Y0185827D01*
X0436550Y0175827D02*
X0441750Y0175827D01*
X0441750Y0165827D02*
X0436550Y0165827D01*
X0436550Y0155827D02*
X0441750Y0155827D01*
X0466550Y0155827D02*
X0471750Y0155827D01*
X0416631Y0155827D02*
X0411431Y0155827D01*
X0411431Y0165827D02*
X0416631Y0165827D01*
X0416631Y0175827D02*
X0411431Y0175827D01*
X0411431Y0185827D02*
X0416631Y0185827D01*
X0416631Y0195827D02*
X0411431Y0195827D01*
X0411431Y0205827D02*
X0416631Y0205827D01*
X0416631Y0215827D02*
X0411431Y0215827D01*
X0411431Y0225827D02*
X0416631Y0225827D01*
X0386631Y0225827D02*
X0381431Y0225827D01*
X0381431Y0215827D02*
X0386631Y0215827D01*
X0386631Y0205827D02*
X0381431Y0205827D01*
X0381431Y0195827D02*
X0386631Y0195827D01*
X0386631Y0185827D02*
X0381431Y0185827D01*
X0381431Y0175827D02*
X0386631Y0175827D01*
X0386631Y0165827D02*
X0381431Y0165827D01*
X0381431Y0155827D02*
X0386631Y0155827D01*
X0386631Y0145827D02*
X0381431Y0145827D01*
X0411431Y0145827D02*
X0416631Y0145827D01*
X0361513Y0165945D02*
X0356313Y0165945D01*
X0356313Y0175945D02*
X0361513Y0175945D01*
X0361513Y0185945D02*
X0356313Y0185945D01*
X0356313Y0195945D02*
X0361513Y0195945D01*
X0361513Y0205945D02*
X0356313Y0205945D01*
X0356313Y0215945D02*
X0361513Y0215945D01*
X0361513Y0225945D02*
X0356313Y0225945D01*
X0331513Y0225945D02*
X0326313Y0225945D01*
X0326313Y0215945D02*
X0331513Y0215945D01*
X0331513Y0205945D02*
X0326313Y0205945D01*
X0326313Y0195945D02*
X0331513Y0195945D01*
X0331513Y0185945D02*
X0326313Y0185945D01*
X0326313Y0175945D02*
X0331513Y0175945D01*
X0331513Y0165945D02*
X0326313Y0165945D01*
X0306395Y0165945D02*
X0301195Y0165945D01*
X0301195Y0175945D02*
X0306395Y0175945D01*
X0306395Y0185945D02*
X0301195Y0185945D01*
X0301195Y0195945D02*
X0306395Y0195945D01*
X0306395Y0205945D02*
X0301195Y0205945D01*
X0301195Y0215945D02*
X0306395Y0215945D01*
X0306395Y0225945D02*
X0301195Y0225945D01*
X0276395Y0225945D02*
X0271195Y0225945D01*
X0271195Y0215945D02*
X0276395Y0215945D01*
X0276395Y0205945D02*
X0271195Y0205945D01*
X0271195Y0195945D02*
X0276395Y0195945D01*
X0276395Y0185945D02*
X0271195Y0185945D01*
X0271195Y0175945D02*
X0276395Y0175945D01*
X0276395Y0165945D02*
X0271195Y0165945D01*
X0251277Y0165945D02*
X0246077Y0165945D01*
X0246077Y0175945D02*
X0251277Y0175945D01*
X0251277Y0185945D02*
X0246077Y0185945D01*
X0246077Y0195945D02*
X0251277Y0195945D01*
X0251277Y0205945D02*
X0246077Y0205945D01*
X0246077Y0215945D02*
X0251277Y0215945D01*
X0251277Y0225945D02*
X0246077Y0225945D01*
X0221277Y0225945D02*
X0216077Y0225945D01*
X0216077Y0215945D02*
X0221277Y0215945D01*
X0221277Y0205945D02*
X0216077Y0205945D01*
X0216077Y0195945D02*
X0221277Y0195945D01*
X0221277Y0185945D02*
X0216077Y0185945D01*
X0216077Y0175945D02*
X0221277Y0175945D01*
X0221277Y0165945D02*
X0216077Y0165945D01*
X0196159Y0165945D02*
X0190959Y0165945D01*
X0190959Y0175945D02*
X0196159Y0175945D01*
X0196159Y0185945D02*
X0190959Y0185945D01*
X0190959Y0195945D02*
X0196159Y0195945D01*
X0196159Y0205945D02*
X0190959Y0205945D01*
X0190959Y0215945D02*
X0196159Y0215945D01*
X0196159Y0225945D02*
X0190959Y0225945D01*
X0166159Y0225945D02*
X0160959Y0225945D01*
X0160959Y0215945D02*
X0166159Y0215945D01*
X0166159Y0205945D02*
X0160959Y0205945D01*
X0160959Y0195945D02*
X0166159Y0195945D01*
X0166159Y0185945D02*
X0160959Y0185945D01*
X0160959Y0175945D02*
X0166159Y0175945D01*
X0166159Y0165945D02*
X0160959Y0165945D01*
X0141041Y0165945D02*
X0135841Y0165945D01*
X0135841Y0175945D02*
X0141041Y0175945D01*
X0141041Y0185945D02*
X0135841Y0185945D01*
X0135841Y0195945D02*
X0141041Y0195945D01*
X0141041Y0205945D02*
X0135841Y0205945D01*
X0135841Y0215945D02*
X0141041Y0215945D01*
X0141041Y0225945D02*
X0135841Y0225945D01*
X0111041Y0225945D02*
X0105841Y0225945D01*
X0105841Y0215945D02*
X0111041Y0215945D01*
X0111041Y0205945D02*
X0105841Y0205945D01*
X0105841Y0195945D02*
X0111041Y0195945D01*
X0111041Y0185945D02*
X0105841Y0185945D01*
X0105841Y0175945D02*
X0111041Y0175945D01*
X0111041Y0165945D02*
X0105841Y0165945D01*
X0085923Y0165945D02*
X0080723Y0165945D01*
X0080723Y0175945D02*
X0085923Y0175945D01*
X0085923Y0185945D02*
X0080723Y0185945D01*
X0080723Y0195945D02*
X0085923Y0195945D01*
X0085923Y0205945D02*
X0080723Y0205945D01*
X0080723Y0215945D02*
X0085923Y0215945D01*
X0085923Y0225945D02*
X0080723Y0225945D01*
X0055923Y0225945D02*
X0050723Y0225945D01*
X0050723Y0215945D02*
X0055923Y0215945D01*
X0055923Y0205945D02*
X0050723Y0205945D01*
X0050723Y0195945D02*
X0055923Y0195945D01*
X0055923Y0185945D02*
X0050723Y0185945D01*
X0050723Y0175945D02*
X0055923Y0175945D01*
X0055923Y0165945D02*
X0050723Y0165945D01*
X0050723Y0300709D02*
X0055923Y0300709D01*
X0055923Y0310709D02*
X0050723Y0310709D01*
X0050723Y0320709D02*
X0055923Y0320709D01*
X0055923Y0330709D02*
X0050723Y0330709D01*
X0050723Y0340709D02*
X0055923Y0340709D01*
X0055923Y0350709D02*
X0050723Y0350709D01*
X0050723Y0360709D02*
X0055923Y0360709D01*
X0055923Y0370709D02*
X0050723Y0370709D01*
X0080723Y0370709D02*
X0085923Y0370709D01*
X0085923Y0360709D02*
X0080723Y0360709D01*
X0080723Y0350709D02*
X0085923Y0350709D01*
X0085923Y0340709D02*
X0080723Y0340709D01*
X0080723Y0330709D02*
X0085923Y0330709D01*
X0085923Y0320709D02*
X0080723Y0320709D01*
X0080723Y0310709D02*
X0085923Y0310709D01*
X0085923Y0300709D02*
X0080723Y0300709D01*
X0105841Y0300709D02*
X0111041Y0300709D01*
X0111041Y0310709D02*
X0105841Y0310709D01*
X0105841Y0320709D02*
X0111041Y0320709D01*
X0111041Y0330709D02*
X0105841Y0330709D01*
X0105841Y0340709D02*
X0111041Y0340709D01*
X0111041Y0350709D02*
X0105841Y0350709D01*
X0105841Y0360709D02*
X0111041Y0360709D01*
X0111041Y0370709D02*
X0105841Y0370709D01*
X0135841Y0370709D02*
X0141041Y0370709D01*
X0141041Y0360709D02*
X0135841Y0360709D01*
X0135841Y0350709D02*
X0141041Y0350709D01*
X0141041Y0340709D02*
X0135841Y0340709D01*
X0135841Y0330709D02*
X0141041Y0330709D01*
X0141041Y0320709D02*
X0135841Y0320709D01*
X0135841Y0310709D02*
X0141041Y0310709D01*
X0141041Y0300709D02*
X0135841Y0300709D01*
X0160959Y0300709D02*
X0166159Y0300709D01*
X0166159Y0310709D02*
X0160959Y0310709D01*
X0160959Y0320709D02*
X0166159Y0320709D01*
X0166159Y0330709D02*
X0160959Y0330709D01*
X0160959Y0340709D02*
X0166159Y0340709D01*
X0166159Y0350709D02*
X0160959Y0350709D01*
X0160959Y0360709D02*
X0166159Y0360709D01*
X0166159Y0370709D02*
X0160959Y0370709D01*
X0190959Y0370709D02*
X0196159Y0370709D01*
X0196159Y0360709D02*
X0190959Y0360709D01*
X0190959Y0350709D02*
X0196159Y0350709D01*
X0196159Y0340709D02*
X0190959Y0340709D01*
X0190959Y0330709D02*
X0196159Y0330709D01*
X0196159Y0320709D02*
X0190959Y0320709D01*
X0190959Y0310709D02*
X0196159Y0310709D01*
X0196159Y0300709D02*
X0190959Y0300709D01*
X0216077Y0300709D02*
X0221277Y0300709D01*
X0221277Y0310709D02*
X0216077Y0310709D01*
X0216077Y0320709D02*
X0221277Y0320709D01*
X0221277Y0330709D02*
X0216077Y0330709D01*
X0216077Y0340709D02*
X0221277Y0340709D01*
X0221277Y0350709D02*
X0216077Y0350709D01*
X0216077Y0360709D02*
X0221277Y0360709D01*
X0221277Y0370709D02*
X0216077Y0370709D01*
X0246077Y0370709D02*
X0251277Y0370709D01*
X0251277Y0360709D02*
X0246077Y0360709D01*
X0246077Y0350709D02*
X0251277Y0350709D01*
X0251277Y0340709D02*
X0246077Y0340709D01*
X0246077Y0330709D02*
X0251277Y0330709D01*
X0251277Y0320709D02*
X0246077Y0320709D01*
X0246077Y0310709D02*
X0251277Y0310709D01*
X0251277Y0300709D02*
X0246077Y0300709D01*
X0271195Y0300709D02*
X0276395Y0300709D01*
X0276395Y0310709D02*
X0271195Y0310709D01*
X0271195Y0320709D02*
X0276395Y0320709D01*
X0276395Y0330709D02*
X0271195Y0330709D01*
X0271195Y0340709D02*
X0276395Y0340709D01*
X0276395Y0350709D02*
X0271195Y0350709D01*
X0271195Y0360709D02*
X0276395Y0360709D01*
X0276395Y0370709D02*
X0271195Y0370709D01*
X0301195Y0370709D02*
X0306395Y0370709D01*
X0306395Y0360709D02*
X0301195Y0360709D01*
X0301195Y0350709D02*
X0306395Y0350709D01*
X0306395Y0340709D02*
X0301195Y0340709D01*
X0301195Y0330709D02*
X0306395Y0330709D01*
X0306395Y0320709D02*
X0301195Y0320709D01*
X0301195Y0310709D02*
X0306395Y0310709D01*
X0306395Y0300709D02*
X0301195Y0300709D01*
X0326313Y0300709D02*
X0331513Y0300709D01*
X0331513Y0310709D02*
X0326313Y0310709D01*
X0326313Y0320709D02*
X0331513Y0320709D01*
X0331513Y0330709D02*
X0326313Y0330709D01*
X0326313Y0340709D02*
X0331513Y0340709D01*
X0331513Y0350709D02*
X0326313Y0350709D01*
X0326313Y0360709D02*
X0331513Y0360709D01*
X0331513Y0370709D02*
X0326313Y0370709D01*
X0356313Y0370709D02*
X0361513Y0370709D01*
X0361513Y0360709D02*
X0356313Y0360709D01*
X0356313Y0350709D02*
X0361513Y0350709D01*
X0361513Y0340709D02*
X0356313Y0340709D01*
X0356313Y0330709D02*
X0361513Y0330709D01*
X0361513Y0320709D02*
X0356313Y0320709D01*
X0356313Y0310709D02*
X0361513Y0310709D01*
X0361513Y0300709D02*
X0356313Y0300709D01*
X0381431Y0300709D02*
X0386631Y0300709D01*
X0386631Y0310709D02*
X0381431Y0310709D01*
X0381431Y0320709D02*
X0386631Y0320709D01*
X0386631Y0330709D02*
X0381431Y0330709D01*
X0381431Y0340709D02*
X0386631Y0340709D01*
X0386631Y0350709D02*
X0381431Y0350709D01*
X0381431Y0360709D02*
X0386631Y0360709D01*
X0386631Y0370709D02*
X0381431Y0370709D01*
X0411431Y0370709D02*
X0416631Y0370709D01*
X0416631Y0360709D02*
X0411431Y0360709D01*
X0411431Y0350709D02*
X0416631Y0350709D01*
X0416631Y0340709D02*
X0411431Y0340709D01*
X0411431Y0330709D02*
X0416631Y0330709D01*
X0416631Y0320709D02*
X0411431Y0320709D01*
X0411431Y0310709D02*
X0416631Y0310709D01*
X0416631Y0300709D02*
X0411431Y0300709D01*
X0436550Y0300709D02*
X0441750Y0300709D01*
X0441750Y0310709D02*
X0436550Y0310709D01*
X0436550Y0320709D02*
X0441750Y0320709D01*
X0441750Y0330709D02*
X0436550Y0330709D01*
X0436550Y0340709D02*
X0441750Y0340709D01*
X0441750Y0350709D02*
X0436550Y0350709D01*
X0436550Y0360709D02*
X0441750Y0360709D01*
X0441750Y0370709D02*
X0436550Y0370709D01*
X0466550Y0370709D02*
X0471750Y0370709D01*
X0471750Y0360709D02*
X0466550Y0360709D01*
X0466550Y0350709D02*
X0471750Y0350709D01*
X0471750Y0340709D02*
X0466550Y0340709D01*
X0466550Y0330709D02*
X0471750Y0330709D01*
X0471750Y0320709D02*
X0466550Y0320709D01*
X0466550Y0310709D02*
X0471750Y0310709D01*
X0471750Y0300709D02*
X0466550Y0300709D01*
X0491668Y0300709D02*
X0496868Y0300709D01*
X0496868Y0310709D02*
X0491668Y0310709D01*
X0491668Y0320709D02*
X0496868Y0320709D01*
X0496868Y0330709D02*
X0491668Y0330709D01*
X0491668Y0340709D02*
X0496868Y0340709D01*
X0496868Y0350709D02*
X0491668Y0350709D01*
X0491668Y0360709D02*
X0496868Y0360709D01*
X0496868Y0370709D02*
X0491668Y0370709D01*
X0521668Y0370709D02*
X0526868Y0370709D01*
X0526868Y0360709D02*
X0521668Y0360709D01*
X0521668Y0350709D02*
X0526868Y0350709D01*
X0526868Y0340709D02*
X0521668Y0340709D01*
X0521668Y0330709D02*
X0526868Y0330709D01*
X0526868Y0320709D02*
X0521668Y0320709D01*
X0521668Y0310709D02*
X0526868Y0310709D01*
X0526868Y0300709D02*
X0521668Y0300709D01*
X0521668Y0290709D02*
X0526868Y0290709D01*
X0526868Y0280709D02*
X0521668Y0280709D01*
X0496868Y0280709D02*
X0491668Y0280709D01*
X0491668Y0290709D02*
X0496868Y0290709D01*
X0546786Y0300709D02*
X0551986Y0300709D01*
X0551986Y0310709D02*
X0546786Y0310709D01*
X0546786Y0320709D02*
X0551986Y0320709D01*
X0551986Y0330709D02*
X0546786Y0330709D01*
X0546786Y0340709D02*
X0551986Y0340709D01*
X0551986Y0350709D02*
X0546786Y0350709D01*
X0546786Y0360709D02*
X0551986Y0360709D01*
X0551986Y0370709D02*
X0546786Y0370709D01*
X0576786Y0370709D02*
X0581986Y0370709D01*
X0581986Y0360709D02*
X0576786Y0360709D01*
X0576786Y0350709D02*
X0581986Y0350709D01*
X0581986Y0340709D02*
X0576786Y0340709D01*
X0576786Y0330709D02*
X0581986Y0330709D01*
X0581986Y0320709D02*
X0576786Y0320709D01*
X0576786Y0310709D02*
X0581986Y0310709D01*
X0581986Y0300709D02*
X0576786Y0300709D01*
X0601904Y0300709D02*
X0607104Y0300709D01*
X0607104Y0310709D02*
X0601904Y0310709D01*
X0601904Y0320709D02*
X0607104Y0320709D01*
X0607104Y0330709D02*
X0601904Y0330709D01*
X0601904Y0340709D02*
X0607104Y0340709D01*
X0607104Y0350709D02*
X0601904Y0350709D01*
X0601904Y0360709D02*
X0607104Y0360709D01*
X0607104Y0370709D02*
X0601904Y0370709D01*
X0631904Y0370709D02*
X0637104Y0370709D01*
X0637104Y0360709D02*
X0631904Y0360709D01*
X0631904Y0350709D02*
X0637104Y0350709D01*
X0637104Y0340709D02*
X0631904Y0340709D01*
X0631904Y0330709D02*
X0637104Y0330709D01*
X0637104Y0320709D02*
X0631904Y0320709D01*
X0631904Y0310709D02*
X0637104Y0310709D01*
X0637104Y0300709D02*
X0631904Y0300709D01*
X0657022Y0300709D02*
X0662222Y0300709D01*
X0662222Y0310709D02*
X0657022Y0310709D01*
X0657022Y0320709D02*
X0662222Y0320709D01*
X0662222Y0330709D02*
X0657022Y0330709D01*
X0657022Y0340709D02*
X0662222Y0340709D01*
X0662222Y0350709D02*
X0657022Y0350709D01*
X0657022Y0360709D02*
X0662222Y0360709D01*
X0662222Y0370709D02*
X0657022Y0370709D01*
X0687022Y0370709D02*
X0692222Y0370709D01*
X0692222Y0360709D02*
X0687022Y0360709D01*
X0687022Y0350709D02*
X0692222Y0350709D01*
X0692222Y0340709D02*
X0687022Y0340709D01*
X0687022Y0330709D02*
X0692222Y0330709D01*
X0692222Y0320709D02*
X0687022Y0320709D01*
X0687022Y0310709D02*
X0692222Y0310709D01*
X0692222Y0300709D02*
X0687022Y0300709D01*
X0712140Y0310827D02*
X0717340Y0310827D01*
X0717340Y0320827D02*
X0712140Y0320827D01*
X0712140Y0330827D02*
X0717340Y0330827D01*
X0717340Y0340827D02*
X0712140Y0340827D01*
X0712140Y0350827D02*
X0717340Y0350827D01*
X0717340Y0360827D02*
X0712140Y0360827D01*
X0712140Y0370827D02*
X0717340Y0370827D01*
X0742140Y0370827D02*
X0747340Y0370827D01*
X0747340Y0360827D02*
X0742140Y0360827D01*
X0742140Y0350827D02*
X0747340Y0350827D01*
X0747340Y0340827D02*
X0742140Y0340827D01*
X0742140Y0330827D02*
X0747340Y0330827D01*
X0747340Y0320827D02*
X0742140Y0320827D01*
X0742140Y0310827D02*
X0747340Y0310827D01*
X0767258Y0310709D02*
X0772458Y0310709D01*
X0772458Y0300709D02*
X0767258Y0300709D01*
X0767258Y0320709D02*
X0772458Y0320709D01*
X0772458Y0330709D02*
X0767258Y0330709D01*
X0767258Y0340709D02*
X0772458Y0340709D01*
X0772458Y0350709D02*
X0767258Y0350709D01*
X0767258Y0360709D02*
X0772458Y0360709D01*
X0772458Y0370709D02*
X0767258Y0370709D01*
X0797258Y0370709D02*
X0802458Y0370709D01*
X0802458Y0360709D02*
X0797258Y0360709D01*
X0797258Y0350709D02*
X0802458Y0350709D01*
X0802458Y0340709D02*
X0797258Y0340709D01*
X0797258Y0330709D02*
X0802458Y0330709D01*
X0802458Y0320709D02*
X0797258Y0320709D01*
X0797258Y0310709D02*
X0802458Y0310709D01*
X0802458Y0300709D02*
X0797258Y0300709D01*
X0822376Y0300709D02*
X0827576Y0300709D01*
X0827576Y0310709D02*
X0822376Y0310709D01*
X0822376Y0320709D02*
X0827576Y0320709D01*
X0827576Y0330709D02*
X0822376Y0330709D01*
X0822376Y0340709D02*
X0827576Y0340709D01*
X0827576Y0350709D02*
X0822376Y0350709D01*
X0822376Y0360709D02*
X0827576Y0360709D01*
X0827576Y0370709D02*
X0822376Y0370709D01*
X0852376Y0370709D02*
X0857576Y0370709D01*
X0857576Y0360709D02*
X0852376Y0360709D01*
X0852376Y0350709D02*
X0857576Y0350709D01*
X0857576Y0340709D02*
X0852376Y0340709D01*
X0852376Y0330709D02*
X0857576Y0330709D01*
X0857576Y0320709D02*
X0852376Y0320709D01*
X0852376Y0310709D02*
X0857576Y0310709D01*
X0857576Y0300709D02*
X0852376Y0300709D01*
X0877494Y0300709D02*
X0882694Y0300709D01*
X0882694Y0310709D02*
X0877494Y0310709D01*
X0877494Y0320709D02*
X0882694Y0320709D01*
X0882694Y0330709D02*
X0877494Y0330709D01*
X0877494Y0340709D02*
X0882694Y0340709D01*
X0882694Y0350709D02*
X0877494Y0350709D01*
X0877494Y0360709D02*
X0882694Y0360709D01*
X0882694Y0370709D02*
X0877494Y0370709D01*
X0907494Y0370709D02*
X0912694Y0370709D01*
X0912694Y0360709D02*
X0907494Y0360709D01*
X0907494Y0350709D02*
X0912694Y0350709D01*
X0912694Y0340709D02*
X0907494Y0340709D01*
X0907494Y0330709D02*
X0912694Y0330709D01*
X0912694Y0320709D02*
X0907494Y0320709D01*
X0907494Y0310709D02*
X0912694Y0310709D01*
X0912694Y0300709D02*
X0907494Y0300709D01*
X0907494Y0438504D02*
X0912694Y0438504D01*
X0912694Y0448504D02*
X0907494Y0448504D01*
X0907494Y0458504D02*
X0912694Y0458504D01*
X0912694Y0468504D02*
X0907494Y0468504D01*
X0907494Y0478504D02*
X0912694Y0478504D01*
X0912694Y0488504D02*
X0907494Y0488504D01*
X0907494Y0498504D02*
X0912694Y0498504D01*
X0912694Y0508504D02*
X0907494Y0508504D01*
X0882694Y0508504D02*
X0877494Y0508504D01*
X0877494Y0498504D02*
X0882694Y0498504D01*
X0882694Y0488504D02*
X0877494Y0488504D01*
X0877494Y0478504D02*
X0882694Y0478504D01*
X0882694Y0468504D02*
X0877494Y0468504D01*
X0877494Y0458504D02*
X0882694Y0458504D01*
X0882694Y0448504D02*
X0877494Y0448504D01*
X0877494Y0438504D02*
X0882694Y0438504D01*
X0857576Y0438504D02*
X0852376Y0438504D01*
X0852376Y0448504D02*
X0857576Y0448504D01*
X0857576Y0458504D02*
X0852376Y0458504D01*
X0852376Y0468504D02*
X0857576Y0468504D01*
X0857576Y0478504D02*
X0852376Y0478504D01*
X0852376Y0488504D02*
X0857576Y0488504D01*
X0857576Y0498504D02*
X0852376Y0498504D01*
X0852376Y0508504D02*
X0857576Y0508504D01*
X0827576Y0508504D02*
X0822376Y0508504D01*
X0822376Y0498504D02*
X0827576Y0498504D01*
X0827576Y0488504D02*
X0822376Y0488504D01*
X0822376Y0478504D02*
X0827576Y0478504D01*
X0827576Y0468504D02*
X0822376Y0468504D01*
X0822376Y0458504D02*
X0827576Y0458504D01*
X0827576Y0448504D02*
X0822376Y0448504D01*
X0822376Y0438504D02*
X0827576Y0438504D01*
X0802458Y0438504D02*
X0797258Y0438504D01*
X0797258Y0448504D02*
X0802458Y0448504D01*
X0802458Y0458504D02*
X0797258Y0458504D01*
X0797258Y0468504D02*
X0802458Y0468504D01*
X0802458Y0478504D02*
X0797258Y0478504D01*
X0797258Y0488504D02*
X0802458Y0488504D01*
X0802458Y0498504D02*
X0797258Y0498504D01*
X0797258Y0508504D02*
X0802458Y0508504D01*
X0772458Y0508504D02*
X0767258Y0508504D01*
X0767258Y0498504D02*
X0772458Y0498504D01*
X0772458Y0488504D02*
X0767258Y0488504D01*
X0767258Y0478504D02*
X0772458Y0478504D01*
X0772458Y0468504D02*
X0767258Y0468504D01*
X0767258Y0458504D02*
X0772458Y0458504D01*
X0772458Y0448504D02*
X0767258Y0448504D01*
X0767258Y0438504D02*
X0772458Y0438504D01*
X0727655Y0438504D02*
X0722455Y0438504D01*
X0722455Y0448504D02*
X0727655Y0448504D01*
X0727655Y0458504D02*
X0722455Y0458504D01*
X0722455Y0468504D02*
X0727655Y0468504D01*
X0727655Y0478504D02*
X0722455Y0478504D01*
X0722455Y0488504D02*
X0727655Y0488504D01*
X0727655Y0498504D02*
X0722455Y0498504D01*
X0722455Y0508504D02*
X0727655Y0508504D01*
X0697655Y0508504D02*
X0692455Y0508504D01*
X0692455Y0498504D02*
X0697655Y0498504D01*
X0697655Y0488504D02*
X0692455Y0488504D01*
X0692455Y0478504D02*
X0697655Y0478504D01*
X0697655Y0468504D02*
X0692455Y0468504D01*
X0692455Y0458504D02*
X0697655Y0458504D01*
X0697655Y0448504D02*
X0692455Y0448504D01*
X0692455Y0438504D02*
X0697655Y0438504D01*
X0654820Y0438504D02*
X0649620Y0438504D01*
X0649620Y0448504D02*
X0654820Y0448504D01*
X0654820Y0458504D02*
X0649620Y0458504D01*
X0649620Y0468504D02*
X0654820Y0468504D01*
X0654820Y0478504D02*
X0649620Y0478504D01*
X0649620Y0488504D02*
X0654820Y0488504D01*
X0654820Y0498504D02*
X0649620Y0498504D01*
X0649620Y0508504D02*
X0654820Y0508504D01*
X0624820Y0508504D02*
X0619620Y0508504D01*
X0619620Y0498504D02*
X0624820Y0498504D01*
X0624820Y0488504D02*
X0619620Y0488504D01*
X0619620Y0478504D02*
X0624820Y0478504D01*
X0624820Y0468504D02*
X0619620Y0468504D01*
X0619620Y0458504D02*
X0624820Y0458504D01*
X0624820Y0448504D02*
X0619620Y0448504D01*
X0619620Y0438504D02*
X0624820Y0438504D01*
X0581986Y0438504D02*
X0576786Y0438504D01*
X0576786Y0448504D02*
X0581986Y0448504D01*
X0581986Y0458504D02*
X0576786Y0458504D01*
X0576786Y0468504D02*
X0581986Y0468504D01*
X0581986Y0478504D02*
X0576786Y0478504D01*
X0576786Y0488504D02*
X0581986Y0488504D01*
X0581986Y0498504D02*
X0576786Y0498504D01*
X0576786Y0508504D02*
X0581986Y0508504D01*
X0551986Y0508504D02*
X0546786Y0508504D01*
X0546786Y0498504D02*
X0551986Y0498504D01*
X0551986Y0488504D02*
X0546786Y0488504D01*
X0546786Y0478504D02*
X0551986Y0478504D01*
X0551986Y0468504D02*
X0546786Y0468504D01*
X0546786Y0458504D02*
X0551986Y0458504D01*
X0551986Y0448504D02*
X0546786Y0448504D01*
X0546786Y0438504D02*
X0551986Y0438504D01*
X0471750Y0438504D02*
X0466550Y0438504D01*
X0466550Y0448504D02*
X0471750Y0448504D01*
X0471750Y0458504D02*
X0466550Y0458504D01*
X0466550Y0468504D02*
X0471750Y0468504D01*
X0471750Y0478504D02*
X0466550Y0478504D01*
X0466550Y0488504D02*
X0471750Y0488504D01*
X0471750Y0498504D02*
X0466550Y0498504D01*
X0466550Y0508504D02*
X0471750Y0508504D01*
X0441750Y0508504D02*
X0436550Y0508504D01*
X0436550Y0498504D02*
X0441750Y0498504D01*
X0441750Y0488504D02*
X0436550Y0488504D01*
X0436550Y0478504D02*
X0441750Y0478504D01*
X0441750Y0468504D02*
X0436550Y0468504D01*
X0436550Y0458504D02*
X0441750Y0458504D01*
X0441750Y0448504D02*
X0436550Y0448504D01*
X0436550Y0438504D02*
X0441750Y0438504D01*
X0416631Y0438504D02*
X0411431Y0438504D01*
X0411431Y0448504D02*
X0416631Y0448504D01*
X0416631Y0458504D02*
X0411431Y0458504D01*
X0411431Y0468504D02*
X0416631Y0468504D01*
X0416631Y0478504D02*
X0411431Y0478504D01*
X0411431Y0488504D02*
X0416631Y0488504D01*
X0416631Y0498504D02*
X0411431Y0498504D01*
X0411431Y0508504D02*
X0416631Y0508504D01*
X0386631Y0508504D02*
X0381431Y0508504D01*
X0381431Y0498504D02*
X0386631Y0498504D01*
X0386631Y0488504D02*
X0381431Y0488504D01*
X0381431Y0478504D02*
X0386631Y0478504D01*
X0386631Y0468504D02*
X0381431Y0468504D01*
X0381431Y0458504D02*
X0386631Y0458504D01*
X0386631Y0448504D02*
X0381431Y0448504D01*
X0381431Y0438504D02*
X0386631Y0438504D01*
X0361513Y0438504D02*
X0356313Y0438504D01*
X0356313Y0448504D02*
X0361513Y0448504D01*
X0361513Y0458504D02*
X0356313Y0458504D01*
X0356313Y0468504D02*
X0361513Y0468504D01*
X0361513Y0478504D02*
X0356313Y0478504D01*
X0356313Y0488504D02*
X0361513Y0488504D01*
X0361513Y0498504D02*
X0356313Y0498504D01*
X0356313Y0508504D02*
X0361513Y0508504D01*
X0331513Y0508504D02*
X0326313Y0508504D01*
X0326313Y0498504D02*
X0331513Y0498504D01*
X0331513Y0488504D02*
X0326313Y0488504D01*
X0326313Y0478504D02*
X0331513Y0478504D01*
X0331513Y0468504D02*
X0326313Y0468504D01*
X0326313Y0458504D02*
X0331513Y0458504D01*
X0331513Y0448504D02*
X0326313Y0448504D01*
X0326313Y0438504D02*
X0331513Y0438504D01*
X0306395Y0438504D02*
X0301195Y0438504D01*
X0301195Y0448504D02*
X0306395Y0448504D01*
X0306395Y0458504D02*
X0301195Y0458504D01*
X0301195Y0468504D02*
X0306395Y0468504D01*
X0306395Y0478504D02*
X0301195Y0478504D01*
X0301195Y0488504D02*
X0306395Y0488504D01*
X0306395Y0498504D02*
X0301195Y0498504D01*
X0301195Y0508504D02*
X0306395Y0508504D01*
X0276395Y0508504D02*
X0271195Y0508504D01*
X0271195Y0498504D02*
X0276395Y0498504D01*
X0276395Y0488504D02*
X0271195Y0488504D01*
X0271195Y0478504D02*
X0276395Y0478504D01*
X0276395Y0468504D02*
X0271195Y0468504D01*
X0271195Y0458504D02*
X0276395Y0458504D01*
X0276395Y0448504D02*
X0271195Y0448504D01*
X0271195Y0438504D02*
X0276395Y0438504D01*
X0251277Y0438504D02*
X0246077Y0438504D01*
X0246077Y0448504D02*
X0251277Y0448504D01*
X0251277Y0458504D02*
X0246077Y0458504D01*
X0246077Y0468504D02*
X0251277Y0468504D01*
X0251277Y0478504D02*
X0246077Y0478504D01*
X0246077Y0488504D02*
X0251277Y0488504D01*
X0251277Y0498504D02*
X0246077Y0498504D01*
X0246077Y0508504D02*
X0251277Y0508504D01*
X0221277Y0508504D02*
X0216077Y0508504D01*
X0216077Y0498504D02*
X0221277Y0498504D01*
X0221277Y0488504D02*
X0216077Y0488504D01*
X0216077Y0478504D02*
X0221277Y0478504D01*
X0221277Y0468504D02*
X0216077Y0468504D01*
X0216077Y0458504D02*
X0221277Y0458504D01*
X0221277Y0448504D02*
X0216077Y0448504D01*
X0216077Y0438504D02*
X0221277Y0438504D01*
X0196159Y0438504D02*
X0190959Y0438504D01*
X0190959Y0448504D02*
X0196159Y0448504D01*
X0196159Y0458504D02*
X0190959Y0458504D01*
X0190959Y0468504D02*
X0196159Y0468504D01*
X0196159Y0478504D02*
X0190959Y0478504D01*
X0190959Y0488504D02*
X0196159Y0488504D01*
X0196159Y0498504D02*
X0190959Y0498504D01*
X0190959Y0508504D02*
X0196159Y0508504D01*
X0166159Y0508504D02*
X0160959Y0508504D01*
X0160959Y0498504D02*
X0166159Y0498504D01*
X0166159Y0488504D02*
X0160959Y0488504D01*
X0160959Y0478504D02*
X0166159Y0478504D01*
X0166159Y0468504D02*
X0160959Y0468504D01*
X0160959Y0458504D02*
X0166159Y0458504D01*
X0166159Y0448504D02*
X0160959Y0448504D01*
X0160959Y0438504D02*
X0166159Y0438504D01*
X0141041Y0438504D02*
X0135841Y0438504D01*
X0135841Y0448504D02*
X0141041Y0448504D01*
X0141041Y0458504D02*
X0135841Y0458504D01*
X0135841Y0468504D02*
X0141041Y0468504D01*
X0141041Y0478504D02*
X0135841Y0478504D01*
X0135841Y0488504D02*
X0141041Y0488504D01*
X0141041Y0498504D02*
X0135841Y0498504D01*
X0135841Y0508504D02*
X0141041Y0508504D01*
X0111041Y0508504D02*
X0105841Y0508504D01*
X0105841Y0498504D02*
X0111041Y0498504D01*
X0111041Y0488504D02*
X0105841Y0488504D01*
X0105841Y0478504D02*
X0111041Y0478504D01*
X0111041Y0468504D02*
X0105841Y0468504D01*
X0105841Y0458504D02*
X0111041Y0458504D01*
X0111041Y0448504D02*
X0105841Y0448504D01*
X0105841Y0438504D02*
X0111041Y0438504D01*
X0085923Y0438504D02*
X0080723Y0438504D01*
X0080723Y0448504D02*
X0085923Y0448504D01*
X0085923Y0458504D02*
X0080723Y0458504D01*
X0080723Y0468504D02*
X0085923Y0468504D01*
X0085923Y0478504D02*
X0080723Y0478504D01*
X0080723Y0488504D02*
X0085923Y0488504D01*
X0085923Y0498504D02*
X0080723Y0498504D01*
X0080723Y0508504D02*
X0085923Y0508504D01*
X0055923Y0508504D02*
X0050723Y0508504D01*
X0050723Y0498504D02*
X0055923Y0498504D01*
X0055923Y0488504D02*
X0050723Y0488504D01*
X0050723Y0478504D02*
X0055923Y0478504D01*
X0055923Y0468504D02*
X0050723Y0468504D01*
X0050723Y0458504D02*
X0055923Y0458504D01*
X0055923Y0448504D02*
X0050723Y0448504D01*
X0050723Y0438504D02*
X0055923Y0438504D01*
D15*
X0035606Y0148701D03*
X0065606Y0148701D03*
X0062260Y0245157D03*
X0082260Y0245157D03*
X0074386Y0280591D03*
X0054386Y0280591D03*
X0109504Y0280591D03*
X0129504Y0280591D03*
X0164622Y0280591D03*
X0184622Y0280591D03*
X0219740Y0280591D03*
X0239740Y0280591D03*
X0274858Y0280591D03*
X0294858Y0280591D03*
X0329976Y0280591D03*
X0349976Y0280591D03*
X0385094Y0280591D03*
X0405094Y0280591D03*
X0440213Y0280591D03*
X0460213Y0280591D03*
X0468087Y0245157D03*
X0448087Y0245157D03*
X0412969Y0245157D03*
X0392969Y0245157D03*
X0302732Y0245157D03*
X0282732Y0245157D03*
X0192496Y0245157D03*
X0172496Y0245157D03*
X0164622Y0418386D03*
X0184622Y0418386D03*
X0219740Y0418386D03*
X0239740Y0418386D03*
X0274858Y0418386D03*
X0294858Y0418386D03*
X0329976Y0418386D03*
X0349976Y0418386D03*
X0385094Y0418386D03*
X0405094Y0418386D03*
X0440213Y0418386D03*
X0460213Y0418386D03*
X0503205Y0390827D03*
X0523205Y0390827D03*
X0528953Y0430945D03*
X0528953Y0460945D03*
X0528953Y0484094D03*
X0528953Y0514094D03*
X0521827Y0529016D03*
X0512457Y0529016D03*
X0482457Y0529016D03*
X0551827Y0529016D03*
X0564228Y0529016D03*
X0584228Y0529016D03*
X0596630Y0529016D03*
X0599819Y0514094D03*
X0626630Y0529016D03*
X0636000Y0529016D03*
X0666000Y0529016D03*
X0677339Y0529016D03*
X0672654Y0514094D03*
X0707339Y0529016D03*
X0716709Y0529016D03*
X0746709Y0529016D03*
X0758047Y0529016D03*
X0747457Y0514094D03*
X0788047Y0529016D03*
X0797417Y0529016D03*
X0827417Y0529016D03*
X0873283Y0529016D03*
X0893283Y0529016D03*
X0747457Y0484094D03*
X0747457Y0460945D03*
X0747457Y0430945D03*
X0743677Y0390827D03*
X0723677Y0390827D03*
X0672654Y0430945D03*
X0672654Y0460945D03*
X0672654Y0484094D03*
X0599819Y0484094D03*
X0599819Y0460945D03*
X0599819Y0430945D03*
X0613441Y0390827D03*
X0633441Y0390827D03*
X0833913Y0390827D03*
X0853913Y0390827D03*
X0897063Y0275906D03*
X0897063Y0245906D03*
X0578323Y0245157D03*
X0558323Y0245157D03*
X0129504Y0418386D03*
X0109504Y0418386D03*
X0074386Y0418386D03*
X0054386Y0418386D03*
D16*
X0897063Y0223976D03*
D17*
X0897063Y0163976D03*
M02*
