G75*
%MOIN*%
%OFA0B0*%
%FSLAX25Y25*%
%IPPOS*%
%LPD*%
%AMOC8*
5,1,8,0,0,1.08239X$1,22.5*
%
%ADD10C,0.00600*%
%ADD11C,0.00900*%
%ADD12C,0.00300*%
%ADD13R,0.13780X0.00197*%
%ADD14R,0.00394X0.00197*%
%ADD15R,0.00787X0.00197*%
%ADD16R,0.01181X0.00197*%
%ADD17R,0.01575X0.00197*%
%ADD18R,0.01969X0.00197*%
%ADD19R,0.02362X0.00197*%
%ADD20R,0.02756X0.00197*%
%ADD21R,0.03150X0.00197*%
%ADD22R,0.03543X0.00197*%
%ADD23R,0.03937X0.00197*%
%ADD24R,0.04331X0.00197*%
%ADD25R,0.04724X0.00197*%
%ADD26R,0.05118X0.00197*%
%ADD27R,0.05512X0.00197*%
%ADD28R,0.05906X0.00197*%
%ADD29R,0.06299X0.00197*%
%ADD30R,0.06693X0.00197*%
%ADD31R,0.07087X0.00197*%
%ADD32R,0.07480X0.00197*%
%ADD33R,0.07874X0.00197*%
%ADD34R,0.08268X0.00197*%
%ADD35R,0.08661X0.00197*%
%ADD36R,0.09055X0.00197*%
%ADD37R,0.09449X0.00197*%
%ADD38R,0.14173X0.00197*%
%ADD39R,0.09843X0.00197*%
%ADD40R,0.24016X0.00197*%
%ADD41R,0.10236X0.00197*%
%ADD42R,0.10630X0.00197*%
%ADD43R,0.11024X0.00197*%
%ADD44R,0.11417X0.00197*%
%ADD45R,0.11811X0.00197*%
%ADD46R,0.12205X0.00197*%
%ADD47R,0.12598X0.00197*%
%ADD48R,0.12992X0.00197*%
%ADD49R,0.13386X0.00197*%
%ADD50R,0.14567X0.00197*%
%ADD51R,0.14961X0.00197*%
%ADD52R,0.15354X0.00197*%
%ADD53R,0.15748X0.00197*%
%ADD54R,0.16142X0.00197*%
%ADD55R,0.16535X0.00197*%
%ADD56R,0.16929X0.00197*%
%ADD57R,0.17323X0.00197*%
%ADD58R,0.17717X0.00197*%
%ADD59R,0.18110X0.00197*%
%ADD60R,0.18504X0.00197*%
%ADD61R,0.18898X0.00197*%
%ADD62R,0.19291X0.00197*%
%ADD63R,0.19685X0.00197*%
%ADD64R,0.20079X0.00197*%
%ADD65R,0.34252X0.00197*%
%ADD66R,0.33858X0.00197*%
%ADD67R,0.33465X0.00197*%
%ADD68R,0.33071X0.00197*%
%ADD69R,0.32677X0.00197*%
%ADD70R,0.32283X0.00197*%
%ADD71R,0.31890X0.00197*%
%ADD72R,0.29528X0.00197*%
%ADD73R,0.37402X0.00197*%
%ADD74R,0.31496X0.00197*%
%ADD75R,0.31102X0.00197*%
%ADD76R,0.30709X0.00197*%
%ADD77R,0.30315X0.00197*%
%ADD78R,0.29921X0.00197*%
%ADD79R,0.29134X0.00197*%
%ADD80R,0.28740X0.00197*%
%ADD81R,0.28346X0.00197*%
%ADD82R,0.27953X0.00197*%
%ADD83R,0.27559X0.00197*%
%ADD84R,0.27165X0.00197*%
%ADD85R,0.26772X0.00197*%
%ADD86R,0.26378X0.00197*%
%ADD87R,0.25984X0.00197*%
%ADD88R,0.25591X0.00197*%
%ADD89R,0.25197X0.00197*%
%ADD90R,0.24803X0.00197*%
%ADD91R,0.24409X0.00197*%
%ADD92R,0.23622X0.00197*%
%ADD93R,0.23228X0.00197*%
%ADD94R,0.22835X0.00197*%
%ADD95R,0.22441X0.00197*%
%ADD96R,0.22047X0.00197*%
%ADD97R,0.21654X0.00197*%
%ADD98R,0.21260X0.00197*%
%ADD99R,0.20866X0.00197*%
%ADD100R,0.20472X0.00197*%
%ADD101C,0.00394*%
%ADD102C,0.00500*%
%ADD103R,0.00472X0.00236*%
%ADD104R,0.00945X0.00236*%
%ADD105R,0.00709X0.00236*%
%ADD106R,0.01181X0.00236*%
%ADD107R,0.02598X0.00236*%
%ADD108R,0.01654X0.00236*%
%ADD109R,0.03071X0.00236*%
%ADD110R,0.03780X0.00236*%
%ADD111R,0.05906X0.00236*%
%ADD112R,0.06378X0.00236*%
%ADD113R,0.01417X0.00236*%
%ADD114R,0.03543X0.00236*%
%ADD115R,0.02362X0.00236*%
%ADD116R,0.01890X0.00236*%
%ADD117R,0.00236X0.00236*%
%ADD118R,0.04016X0.00236*%
%ADD119R,0.05669X0.00236*%
%ADD120R,0.02835X0.00236*%
%ADD121R,0.02126X0.00236*%
%ADD122R,0.03307X0.00236*%
%ADD123R,0.04252X0.00236*%
%ADD124R,0.06142X0.00236*%
%ADD125R,0.04488X0.00236*%
%ADD126R,0.04724X0.00236*%
%ADD127R,0.06614X0.00236*%
%ADD128R,0.05433X0.00236*%
%ADD129R,0.13228X0.00236*%
%ADD130R,0.12992X0.00236*%
%ADD131R,0.12283X0.00236*%
%ADD132R,0.09921X0.00236*%
%ADD133R,0.07323X0.00236*%
%ADD134R,0.07559X0.00236*%
%ADD135R,0.04961X0.00236*%
%ADD136R,0.10157X0.00236*%
%ADD137R,0.16299X0.00236*%
%ADD138R,0.08976X0.00236*%
%ADD139R,0.08268X0.00236*%
%ADD140R,0.08031X0.00236*%
%ADD141R,0.06850X0.00236*%
%ADD142R,0.05197X0.00236*%
%ADD143R,0.14882X0.00236*%
%ADD144R,0.21260X0.00236*%
%ADD145R,0.24803X0.00236*%
%ADD146R,0.12756X0.00236*%
%ADD147R,0.11339X0.00236*%
%ADD148R,0.09213X0.00236*%
%ADD149R,0.07087X0.00236*%
%ADD150R,0.08504X0.00236*%
%ADD151R,0.07795X0.00236*%
%ADD152R,0.09449X0.00236*%
%ADD153R,0.08740X0.00236*%
%ADD154R,0.09685X0.00236*%
D10*
X0046139Y0076166D02*
X0046139Y0079369D01*
X0047206Y0080436D01*
X0048274Y0079369D01*
X0048274Y0076166D01*
X0050409Y0076166D02*
X0050409Y0080436D01*
X0049341Y0080436D01*
X0048274Y0079369D01*
X0052584Y0080436D02*
X0052584Y0076166D01*
X0055787Y0076166D01*
X0056854Y0077234D01*
X0056854Y0080436D01*
X0059023Y0080436D02*
X0060090Y0080436D01*
X0062226Y0078301D01*
X0062226Y0076166D02*
X0062226Y0080436D01*
X0064401Y0079369D02*
X0065468Y0080436D01*
X0067604Y0080436D01*
X0068671Y0079369D01*
X0068671Y0077234D01*
X0067604Y0076166D01*
X0065468Y0076166D01*
X0064401Y0077234D01*
X0064401Y0079369D01*
X0070833Y0079369D02*
X0072968Y0079369D01*
X0071901Y0081504D02*
X0070833Y0082572D01*
X0071901Y0081504D02*
X0071901Y0076166D01*
X0081589Y0076166D02*
X0081589Y0080436D01*
X0081589Y0076166D02*
X0084792Y0076166D01*
X0085859Y0077234D01*
X0085859Y0080436D01*
X0088028Y0080436D02*
X0089095Y0080436D01*
X0091230Y0078301D01*
X0091230Y0076166D02*
X0091230Y0080436D01*
X0093386Y0077234D02*
X0093386Y0076166D01*
X0094453Y0076166D01*
X0094453Y0077234D01*
X0093386Y0077234D01*
X0096622Y0076166D02*
X0099824Y0078301D01*
X0096622Y0080436D01*
X0099824Y0082572D02*
X0099824Y0076166D01*
X0102000Y0077234D02*
X0103067Y0076166D01*
X0106270Y0076166D01*
X0106270Y0074031D02*
X0106270Y0080436D01*
X0103067Y0080436D01*
X0102000Y0079369D01*
X0102000Y0077234D01*
X0108445Y0079369D02*
X0112715Y0079369D01*
X0114891Y0080436D02*
X0119161Y0076166D01*
X0121336Y0076166D02*
X0125606Y0076166D01*
X0121336Y0080436D01*
X0125606Y0080436D01*
X0119161Y0080436D02*
X0114891Y0076166D01*
X0134227Y0076166D02*
X0134227Y0079369D01*
X0135295Y0080436D01*
X0136362Y0079369D01*
X0136362Y0076166D01*
X0138497Y0076166D02*
X0138497Y0080436D01*
X0137430Y0080436D01*
X0136362Y0079369D01*
X0140672Y0079369D02*
X0141740Y0080436D01*
X0143875Y0080436D01*
X0144943Y0079369D01*
X0144943Y0077234D01*
X0143875Y0076166D01*
X0141740Y0076166D01*
X0140672Y0077234D01*
X0140672Y0079369D01*
X0147111Y0080436D02*
X0148179Y0080436D01*
X0150314Y0078301D01*
X0150314Y0076166D02*
X0150314Y0080436D01*
X0152476Y0079369D02*
X0154611Y0079369D01*
X0153543Y0081504D02*
X0152476Y0082572D01*
X0153543Y0081504D02*
X0153543Y0076166D01*
X0163232Y0077234D02*
X0164299Y0078301D01*
X0166434Y0078301D01*
X0167502Y0079369D01*
X0166434Y0080436D01*
X0163232Y0080436D01*
X0163232Y0077234D02*
X0164299Y0076166D01*
X0167502Y0076166D01*
X0169671Y0080436D02*
X0170738Y0080436D01*
X0172873Y0078301D01*
X0172873Y0076166D02*
X0172873Y0080436D01*
X0175048Y0079369D02*
X0175048Y0078301D01*
X0179319Y0078301D01*
X0179319Y0077234D02*
X0179319Y0079369D01*
X0178251Y0080436D01*
X0176116Y0080436D01*
X0175048Y0079369D01*
X0176116Y0076166D02*
X0178251Y0076166D01*
X0179319Y0077234D01*
X0181494Y0076166D02*
X0181494Y0079369D01*
X0182562Y0080436D01*
X0184697Y0080436D01*
X0185764Y0079369D01*
X0187926Y0080436D02*
X0190061Y0080436D01*
X0188994Y0081504D02*
X0188994Y0077234D01*
X0187926Y0076166D01*
X0185764Y0076166D02*
X0185764Y0082572D01*
X0192236Y0079369D02*
X0192236Y0077234D01*
X0193304Y0076166D01*
X0195439Y0076166D01*
X0196507Y0077234D01*
X0196507Y0079369D01*
X0195439Y0080436D01*
X0193304Y0080436D01*
X0192236Y0079369D01*
X0205127Y0078301D02*
X0207263Y0076166D01*
X0208330Y0076166D01*
X0209398Y0077234D01*
X0209398Y0078301D01*
X0207263Y0080436D01*
X0207263Y0081504D01*
X0208330Y0082572D01*
X0209398Y0081504D01*
X0209398Y0080436D01*
X0205127Y0076166D01*
X0218018Y0077234D02*
X0218018Y0078301D01*
X0219086Y0079369D01*
X0222289Y0079369D01*
X0222289Y0077234D01*
X0221221Y0076166D01*
X0219086Y0076166D01*
X0218018Y0077234D01*
X0220154Y0081504D02*
X0218018Y0082572D01*
X0220154Y0081504D02*
X0222289Y0079369D01*
X0224464Y0076166D02*
X0228734Y0076166D01*
X0226599Y0076166D02*
X0226599Y0082572D01*
X0228734Y0080436D01*
X0230909Y0080436D02*
X0231977Y0079369D01*
X0234112Y0079369D01*
X0235180Y0080436D01*
X0235180Y0081504D01*
X0234112Y0082572D01*
X0231977Y0082572D01*
X0230909Y0081504D01*
X0230909Y0080436D01*
X0231977Y0079369D02*
X0230909Y0078301D01*
X0230909Y0077234D01*
X0231977Y0076166D01*
X0234112Y0076166D01*
X0235180Y0077234D01*
X0235180Y0078301D01*
X0234112Y0079369D01*
X0237355Y0079369D02*
X0237355Y0077234D01*
X0238423Y0076166D01*
X0240558Y0076166D01*
X0241625Y0077234D01*
X0241625Y0079369D02*
X0239490Y0080436D01*
X0238423Y0080436D01*
X0237355Y0079369D01*
X0237355Y0082572D02*
X0241625Y0082572D01*
X0241625Y0079369D01*
X0243800Y0078301D02*
X0244868Y0079369D01*
X0248071Y0079369D01*
X0248071Y0077234D01*
X0247003Y0076166D01*
X0244868Y0076166D01*
X0243800Y0077234D01*
X0243800Y0078301D01*
X0245936Y0081504D02*
X0248071Y0079369D01*
X0245936Y0081504D02*
X0243800Y0082572D01*
X0250246Y0082572D02*
X0250246Y0076166D01*
X0254516Y0082572D01*
X0254516Y0076166D01*
X0256691Y0077234D02*
X0256691Y0079369D01*
X0257759Y0080436D01*
X0259894Y0080436D01*
X0260962Y0079369D01*
X0260962Y0077234D01*
X0259894Y0076166D01*
X0257759Y0076166D01*
X0256691Y0077234D01*
X0263137Y0078301D02*
X0263137Y0079369D01*
X0264205Y0080436D01*
X0266340Y0080436D01*
X0267407Y0079369D01*
X0267407Y0077234D01*
X0266340Y0076166D01*
X0264205Y0076166D01*
X0263137Y0078301D02*
X0267407Y0078301D01*
X0269582Y0076166D02*
X0273853Y0076166D01*
X0273853Y0082572D01*
X0282460Y0077234D02*
X0283528Y0077234D01*
X0283528Y0076166D01*
X0282460Y0076166D01*
X0282460Y0077234D01*
X0282460Y0076166D02*
X0284595Y0074031D01*
X0286770Y0077234D02*
X0287838Y0076166D01*
X0289973Y0076166D01*
X0291041Y0077234D01*
X0293216Y0076166D02*
X0297486Y0076166D01*
X0293216Y0080436D01*
X0293216Y0081504D01*
X0294284Y0082572D01*
X0296419Y0082572D01*
X0297486Y0081504D01*
X0299648Y0080436D02*
X0301783Y0080436D01*
X0300716Y0081504D02*
X0300716Y0077234D01*
X0299648Y0076166D01*
X0303958Y0076166D02*
X0303958Y0079369D01*
X0305026Y0080436D01*
X0308229Y0080436D01*
X0308229Y0076166D01*
X0312539Y0076166D02*
X0312539Y0082572D01*
X0314674Y0082572D02*
X0310404Y0082572D01*
X0323282Y0077234D02*
X0324349Y0077234D01*
X0324349Y0076166D01*
X0323282Y0076166D01*
X0323282Y0077234D01*
X0323282Y0076166D02*
X0325417Y0074031D01*
X0327592Y0077234D02*
X0327592Y0079369D01*
X0328659Y0080436D01*
X0330795Y0080436D01*
X0331862Y0079369D01*
X0331862Y0077234D01*
X0330795Y0076166D01*
X0328659Y0076166D01*
X0327592Y0077234D01*
X0334031Y0080436D02*
X0335098Y0080436D01*
X0337233Y0078301D01*
X0337233Y0076166D02*
X0337233Y0080436D01*
X0339409Y0079369D02*
X0339409Y0078301D01*
X0343679Y0078301D01*
X0343679Y0077234D02*
X0343679Y0079369D01*
X0342611Y0080436D01*
X0340476Y0080436D01*
X0339409Y0079369D01*
X0340476Y0076166D02*
X0342611Y0076166D01*
X0343679Y0077234D01*
X0345841Y0076166D02*
X0346908Y0077234D01*
X0346908Y0081504D01*
X0345841Y0080436D02*
X0347976Y0080436D01*
X0350151Y0079369D02*
X0351219Y0078301D01*
X0354421Y0078301D01*
X0354421Y0076166D02*
X0354421Y0082572D01*
X0351219Y0082572D01*
X0350151Y0081504D01*
X0350151Y0079369D01*
X0363029Y0077234D02*
X0364096Y0077234D01*
X0364096Y0076166D01*
X0363029Y0076166D01*
X0363029Y0077234D01*
X0363029Y0076166D02*
X0365164Y0074031D01*
X0370535Y0076166D02*
X0370535Y0080436D01*
X0370535Y0078301D02*
X0368400Y0080436D01*
X0367332Y0080436D01*
X0373765Y0080436D02*
X0373765Y0076166D01*
X0374832Y0076166D02*
X0372697Y0076166D01*
X0377007Y0076166D02*
X0377007Y0079369D01*
X0378075Y0080436D01*
X0379143Y0079369D01*
X0379143Y0076166D01*
X0381278Y0076166D02*
X0381278Y0080436D01*
X0380210Y0080436D01*
X0379143Y0079369D01*
X0374832Y0080436D02*
X0373765Y0080436D01*
X0373765Y0082572D02*
X0373765Y0083639D01*
X0384507Y0083639D02*
X0384507Y0082572D01*
X0384507Y0080436D02*
X0384507Y0076166D01*
X0383440Y0076166D02*
X0385575Y0076166D01*
X0387750Y0076166D02*
X0390953Y0076166D01*
X0392020Y0077234D01*
X0392020Y0079369D01*
X0390953Y0080436D01*
X0387750Y0080436D01*
X0387750Y0082572D02*
X0387750Y0076166D01*
X0385575Y0080436D02*
X0384507Y0080436D01*
X0394195Y0079369D02*
X0394195Y0076166D01*
X0397398Y0076166D01*
X0398466Y0077234D01*
X0397398Y0078301D01*
X0394195Y0078301D01*
X0394195Y0079369D02*
X0395263Y0080436D01*
X0397398Y0080436D01*
X0401695Y0082572D02*
X0401695Y0076166D01*
X0400628Y0076166D02*
X0402763Y0076166D01*
X0404938Y0078301D02*
X0404938Y0082572D01*
X0402763Y0082572D02*
X0401695Y0082572D01*
X0404938Y0078301D02*
X0407073Y0076166D01*
X0409208Y0078301D01*
X0409208Y0082572D01*
X0417816Y0077234D02*
X0418883Y0077234D01*
X0418883Y0076166D01*
X0417816Y0076166D01*
X0417816Y0077234D01*
X0417816Y0076166D02*
X0419951Y0074031D01*
X0422126Y0076166D02*
X0422126Y0079369D01*
X0423193Y0080436D01*
X0426396Y0080436D01*
X0426396Y0076166D01*
X0428571Y0077234D02*
X0428571Y0079369D01*
X0429639Y0080436D01*
X0431774Y0080436D01*
X0432842Y0079369D01*
X0432842Y0077234D01*
X0431774Y0076166D01*
X0429639Y0076166D01*
X0428571Y0077234D01*
X0435017Y0076166D02*
X0439287Y0076166D01*
X0435017Y0080436D01*
X0439287Y0080436D01*
X0442517Y0080436D02*
X0442517Y0076166D01*
X0443584Y0076166D02*
X0441449Y0076166D01*
X0445759Y0076166D02*
X0445759Y0079369D01*
X0446827Y0080436D01*
X0450030Y0080436D01*
X0450030Y0076166D01*
X0452198Y0080436D02*
X0453266Y0080436D01*
X0455401Y0078301D01*
X0455401Y0076166D02*
X0455401Y0080436D01*
X0457576Y0079369D02*
X0457576Y0076166D01*
X0460779Y0076166D01*
X0461846Y0077234D01*
X0460779Y0078301D01*
X0457576Y0078301D01*
X0457576Y0079369D02*
X0458644Y0080436D01*
X0460779Y0080436D01*
X0464022Y0079369D02*
X0466157Y0079369D01*
X0464022Y0079369D02*
X0464022Y0077234D01*
X0465089Y0076166D01*
X0467224Y0076166D01*
X0468292Y0077234D01*
X0468292Y0081504D01*
X0467224Y0082572D01*
X0465089Y0082572D01*
X0464022Y0081504D01*
X0476893Y0080436D02*
X0476893Y0079369D01*
X0477960Y0079369D01*
X0477960Y0080436D01*
X0476893Y0080436D01*
X0476893Y0077234D02*
X0476893Y0076166D01*
X0477960Y0076166D01*
X0477960Y0077234D01*
X0476893Y0077234D01*
X0480135Y0077234D02*
X0480135Y0079369D01*
X0481203Y0080436D01*
X0483338Y0080436D01*
X0484406Y0079369D01*
X0484406Y0077234D01*
X0483338Y0076166D01*
X0481203Y0076166D01*
X0480135Y0077234D01*
X0486567Y0076166D02*
X0487635Y0077234D01*
X0487635Y0081504D01*
X0488703Y0080436D02*
X0486567Y0080436D01*
X0497323Y0080436D02*
X0500526Y0080436D01*
X0501594Y0079369D01*
X0500526Y0078301D01*
X0498391Y0078301D01*
X0497323Y0077234D01*
X0498391Y0076166D01*
X0501594Y0076166D01*
X0503762Y0076166D02*
X0506965Y0078301D01*
X0503762Y0080436D01*
X0506965Y0082572D02*
X0506965Y0076166D01*
X0509140Y0076166D02*
X0509140Y0079369D01*
X0510208Y0080436D01*
X0513410Y0080436D01*
X0513410Y0076166D01*
X0515586Y0076166D02*
X0515586Y0079369D01*
X0516653Y0080436D01*
X0518788Y0080436D01*
X0518788Y0078301D02*
X0515586Y0078301D01*
X0515586Y0076166D02*
X0518788Y0076166D01*
X0519856Y0077234D01*
X0518788Y0078301D01*
X0522031Y0079369D02*
X0522031Y0076166D01*
X0522031Y0079369D02*
X0523099Y0080436D01*
X0525234Y0080436D01*
X0526301Y0079369D01*
X0528463Y0080436D02*
X0530598Y0080436D01*
X0529531Y0081504D02*
X0529531Y0077234D01*
X0528463Y0076166D01*
X0526301Y0076166D02*
X0526301Y0082572D01*
X0540273Y0082572D02*
X0540273Y0076166D01*
X0539206Y0076166D02*
X0541341Y0076166D01*
X0543516Y0076166D02*
X0543516Y0079369D01*
X0544584Y0080436D01*
X0546719Y0080436D01*
X0546719Y0078301D02*
X0543516Y0078301D01*
X0543516Y0076166D02*
X0546719Y0076166D01*
X0547786Y0077234D01*
X0546719Y0078301D01*
X0549948Y0076166D02*
X0552083Y0076166D01*
X0551016Y0076166D02*
X0551016Y0080436D01*
X0552083Y0080436D01*
X0554259Y0080436D02*
X0557461Y0080436D01*
X0558529Y0079369D01*
X0558529Y0077234D01*
X0557461Y0076166D01*
X0554259Y0076166D01*
X0560704Y0078301D02*
X0564974Y0078301D01*
X0564974Y0077234D02*
X0564974Y0079369D01*
X0563907Y0080436D01*
X0561772Y0080436D01*
X0560704Y0079369D01*
X0560704Y0078301D01*
X0561772Y0076166D02*
X0563907Y0076166D01*
X0564974Y0077234D01*
X0567150Y0077234D02*
X0568217Y0076166D01*
X0571420Y0076166D01*
X0571420Y0074031D02*
X0571420Y0080436D01*
X0568217Y0080436D01*
X0567150Y0079369D01*
X0567150Y0077234D01*
X0573595Y0077234D02*
X0574663Y0076166D01*
X0576798Y0076166D01*
X0577865Y0077234D01*
X0576798Y0079369D02*
X0574663Y0079369D01*
X0573595Y0078301D01*
X0573595Y0077234D01*
X0576798Y0079369D02*
X0577865Y0080436D01*
X0577865Y0081504D01*
X0576798Y0082572D01*
X0574663Y0082572D01*
X0573595Y0081504D01*
X0551016Y0082572D02*
X0551016Y0083639D01*
X0541341Y0082572D02*
X0540273Y0082572D01*
X0613957Y0075508D02*
X0613957Y0070654D01*
X0613957Y0074294D02*
X0618810Y0074294D01*
X0618810Y0075508D02*
X0616384Y0077935D01*
X0613957Y0075508D01*
X0618810Y0075508D02*
X0618810Y0070654D01*
X0619565Y0117505D02*
X0617430Y0117505D01*
X0616362Y0118572D01*
X0616362Y0120707D01*
X0617430Y0121775D01*
X0618497Y0121775D01*
X0620632Y0120707D01*
X0620632Y0123910D01*
X0616362Y0123910D01*
X0614187Y0123910D02*
X0614187Y0119640D01*
X0612052Y0117505D01*
X0609917Y0119640D01*
X0609917Y0123910D01*
X0619565Y0117505D02*
X0620632Y0118572D01*
X0622808Y0120707D02*
X0627078Y0120707D01*
X0624943Y0118572D02*
X0624943Y0122843D01*
X0626010Y0130891D02*
X0623875Y0130891D01*
X0622808Y0131958D01*
X0622808Y0134093D01*
X0624943Y0134093D01*
X0627078Y0131958D02*
X0626010Y0130891D01*
X0627078Y0131958D02*
X0627078Y0136228D01*
X0626010Y0137296D01*
X0623875Y0137296D01*
X0622808Y0136228D01*
X0620632Y0137296D02*
X0616362Y0130891D01*
X0616362Y0137296D01*
X0614187Y0137296D02*
X0610984Y0137296D01*
X0609917Y0136228D01*
X0609917Y0131958D01*
X0610984Y0130891D01*
X0614187Y0130891D01*
X0614187Y0137296D01*
X0620632Y0137296D02*
X0620632Y0130891D01*
X0456015Y0107095D02*
X0456015Y0102824D01*
X0454947Y0101757D01*
X0452812Y0101757D01*
X0451745Y0102824D01*
X0449569Y0101757D02*
X0449569Y0106027D01*
X0447434Y0106027D02*
X0446367Y0106027D01*
X0447434Y0106027D02*
X0449569Y0103892D01*
X0451745Y0107095D02*
X0452812Y0108162D01*
X0454947Y0108162D01*
X0456015Y0107095D01*
X0444198Y0104959D02*
X0443131Y0106027D01*
X0440995Y0106027D01*
X0439928Y0104959D01*
X0439928Y0103892D01*
X0444198Y0103892D01*
X0444198Y0104959D02*
X0444198Y0102824D01*
X0443131Y0101757D01*
X0440995Y0101757D01*
X0437753Y0102824D02*
X0436685Y0103892D01*
X0433482Y0103892D01*
X0433482Y0104959D02*
X0433482Y0101757D01*
X0436685Y0101757D01*
X0437753Y0102824D01*
X0436685Y0106027D02*
X0434550Y0106027D01*
X0433482Y0104959D01*
X0431307Y0106027D02*
X0429172Y0106027D01*
X0430240Y0107095D02*
X0430240Y0102824D01*
X0429172Y0101757D01*
X0427010Y0102824D02*
X0427010Y0104959D01*
X0425943Y0106027D01*
X0423807Y0106027D01*
X0422740Y0104959D01*
X0422740Y0103892D01*
X0427010Y0103892D01*
X0427010Y0102824D02*
X0425943Y0101757D01*
X0423807Y0101757D01*
X0420565Y0102824D02*
X0419497Y0101757D01*
X0416294Y0101757D01*
X0416294Y0108162D01*
X0416294Y0106027D02*
X0419497Y0106027D01*
X0420565Y0104959D01*
X0420565Y0102824D01*
X0407674Y0101757D02*
X0404471Y0101757D01*
X0403403Y0102824D01*
X0403403Y0104959D01*
X0404471Y0106027D01*
X0407674Y0106027D01*
X0407674Y0108162D02*
X0407674Y0101757D01*
X0401228Y0102824D02*
X0400161Y0101757D01*
X0396958Y0101757D01*
X0396958Y0100689D02*
X0398026Y0099622D01*
X0399093Y0099622D01*
X0396958Y0100689D02*
X0396958Y0106027D01*
X0401228Y0106027D02*
X0401228Y0102824D01*
X0388337Y0101757D02*
X0386202Y0103892D01*
X0384067Y0101757D01*
X0384067Y0108162D01*
X0381892Y0106027D02*
X0380824Y0106027D01*
X0380824Y0101757D01*
X0379757Y0101757D02*
X0381892Y0101757D01*
X0377595Y0102824D02*
X0377595Y0104959D01*
X0376527Y0106027D01*
X0374392Y0106027D01*
X0373324Y0104959D01*
X0373324Y0103892D01*
X0377595Y0103892D01*
X0377595Y0102824D02*
X0376527Y0101757D01*
X0374392Y0101757D01*
X0371149Y0101757D02*
X0371149Y0106027D01*
X0371149Y0103892D02*
X0369014Y0106027D01*
X0367947Y0106027D01*
X0365778Y0106027D02*
X0361508Y0106027D01*
X0365778Y0101757D01*
X0361508Y0101757D01*
X0359333Y0101757D02*
X0356130Y0101757D01*
X0355062Y0102824D01*
X0355062Y0104959D01*
X0356130Y0106027D01*
X0359333Y0106027D01*
X0359333Y0108162D02*
X0359333Y0101757D01*
X0352887Y0102824D02*
X0351819Y0101757D01*
X0349684Y0101757D01*
X0348617Y0102824D01*
X0348617Y0104959D01*
X0349684Y0106027D01*
X0351819Y0106027D01*
X0352887Y0104959D01*
X0352887Y0102824D01*
X0346442Y0102824D02*
X0345374Y0101757D01*
X0344306Y0102824D01*
X0343239Y0101757D01*
X0342171Y0102824D01*
X0342171Y0106027D01*
X0339996Y0104959D02*
X0338928Y0106027D01*
X0335726Y0106027D01*
X0336793Y0103892D02*
X0338928Y0103892D01*
X0339996Y0104959D01*
X0339996Y0101757D02*
X0336793Y0101757D01*
X0335726Y0102824D01*
X0336793Y0103892D01*
X0333551Y0103892D02*
X0330348Y0106027D01*
X0328179Y0106027D02*
X0328179Y0102824D01*
X0327112Y0101757D01*
X0323909Y0101757D01*
X0323909Y0100689D02*
X0324977Y0099622D01*
X0326044Y0099622D01*
X0323909Y0100689D02*
X0323909Y0106027D01*
X0330348Y0101757D02*
X0333551Y0103892D01*
X0333551Y0101757D02*
X0333551Y0108162D01*
X0346442Y0106027D02*
X0346442Y0102824D01*
X0315288Y0101757D02*
X0315288Y0108162D01*
X0313153Y0108162D01*
X0310991Y0108162D02*
X0307789Y0108162D01*
X0306721Y0107095D01*
X0306721Y0104959D01*
X0307789Y0103892D01*
X0310991Y0103892D01*
X0308856Y0103892D02*
X0306721Y0101757D01*
X0304546Y0101757D02*
X0301343Y0101757D01*
X0300275Y0102824D01*
X0300275Y0103892D01*
X0301343Y0104959D01*
X0304546Y0104959D01*
X0304546Y0101757D02*
X0304546Y0108162D01*
X0301343Y0108162D01*
X0300275Y0107095D01*
X0300275Y0106027D01*
X0301343Y0104959D01*
X0298100Y0106027D02*
X0297033Y0104959D01*
X0294898Y0104959D01*
X0293830Y0103892D01*
X0293830Y0102824D01*
X0294898Y0101757D01*
X0297033Y0101757D01*
X0298100Y0102824D01*
X0298100Y0106027D02*
X0298100Y0107095D01*
X0297033Y0108162D01*
X0294898Y0108162D01*
X0293830Y0107095D01*
X0291655Y0107095D02*
X0291655Y0102824D01*
X0290587Y0101757D01*
X0288452Y0101757D01*
X0287384Y0102824D01*
X0285209Y0101757D02*
X0283074Y0101757D01*
X0283074Y0108162D01*
X0285209Y0108162D01*
X0287384Y0107095D02*
X0288452Y0108162D01*
X0290587Y0108162D01*
X0291655Y0107095D01*
X0280912Y0102824D02*
X0280912Y0101757D01*
X0279845Y0101757D01*
X0279845Y0102824D01*
X0280912Y0102824D01*
X0271244Y0102824D02*
X0270176Y0101757D01*
X0268041Y0101757D01*
X0266974Y0102824D01*
X0264799Y0102824D02*
X0263731Y0101757D01*
X0261596Y0101757D01*
X0260528Y0102824D01*
X0260528Y0104959D01*
X0261596Y0106027D01*
X0263731Y0106027D01*
X0264799Y0104959D01*
X0264799Y0102824D01*
X0266974Y0107095D02*
X0268041Y0108162D01*
X0270176Y0108162D01*
X0271244Y0107095D01*
X0271244Y0102824D01*
X0258353Y0101757D02*
X0255150Y0101757D01*
X0254083Y0102824D01*
X0254083Y0104959D01*
X0255150Y0106027D01*
X0258353Y0106027D01*
X0258353Y0099622D01*
X0251908Y0102824D02*
X0250840Y0101757D01*
X0247637Y0101757D01*
X0247637Y0100689D02*
X0248705Y0099622D01*
X0249772Y0099622D01*
X0247637Y0100689D02*
X0247637Y0106027D01*
X0245462Y0106027D02*
X0245462Y0101757D01*
X0245462Y0103892D02*
X0243327Y0106027D01*
X0242259Y0106027D01*
X0240091Y0106027D02*
X0239023Y0106027D01*
X0239023Y0101757D01*
X0237956Y0101757D02*
X0240091Y0101757D01*
X0235794Y0102824D02*
X0234726Y0101757D01*
X0231523Y0101757D01*
X0231523Y0100689D02*
X0231523Y0106027D01*
X0234726Y0106027D01*
X0235794Y0104959D01*
X0235794Y0102824D01*
X0233659Y0099622D02*
X0232591Y0099622D01*
X0231523Y0100689D01*
X0229348Y0101757D02*
X0229348Y0108162D01*
X0228281Y0106027D02*
X0226146Y0106027D01*
X0225078Y0104959D01*
X0225078Y0101757D01*
X0221835Y0102824D02*
X0220768Y0101757D01*
X0221835Y0102824D02*
X0221835Y0107095D01*
X0220768Y0106027D02*
X0222903Y0106027D01*
X0228281Y0106027D02*
X0229348Y0104959D01*
X0239023Y0108162D02*
X0239023Y0109230D01*
X0251908Y0106027D02*
X0251908Y0102824D01*
X0212160Y0103892D02*
X0210025Y0101757D01*
X0207863Y0102824D02*
X0206796Y0101757D01*
X0204661Y0101757D01*
X0203593Y0102824D01*
X0201418Y0101757D02*
X0199283Y0103892D01*
X0199283Y0106027D01*
X0201418Y0108162D01*
X0203593Y0107095D02*
X0204661Y0108162D01*
X0206796Y0108162D01*
X0207863Y0107095D01*
X0207863Y0102824D01*
X0212160Y0103892D02*
X0212160Y0106027D01*
X0210025Y0108162D01*
X0190675Y0107095D02*
X0189608Y0108162D01*
X0187473Y0108162D01*
X0186405Y0107095D01*
X0186405Y0106027D01*
X0190675Y0101757D01*
X0186405Y0101757D01*
X0184230Y0102824D02*
X0183162Y0101757D01*
X0181027Y0101757D01*
X0179960Y0102824D01*
X0179960Y0107095D01*
X0184230Y0102824D01*
X0184230Y0107095D01*
X0183162Y0108162D01*
X0181027Y0108162D01*
X0179960Y0107095D01*
X0177784Y0106027D02*
X0175649Y0108162D01*
X0175649Y0101757D01*
X0177784Y0101757D02*
X0173514Y0101757D01*
X0171339Y0102824D02*
X0170271Y0101757D01*
X0168136Y0101757D01*
X0167069Y0102824D01*
X0167069Y0103892D01*
X0168136Y0104959D01*
X0171339Y0104959D01*
X0171339Y0102824D01*
X0171339Y0104959D02*
X0169204Y0107095D01*
X0167069Y0108162D01*
X0286770Y0081504D02*
X0286770Y0080436D01*
X0287838Y0079369D01*
X0286770Y0078301D01*
X0286770Y0077234D01*
X0287838Y0079369D02*
X0288906Y0079369D01*
X0291041Y0081504D02*
X0289973Y0082572D01*
X0287838Y0082572D01*
X0286770Y0081504D01*
X0310991Y0101757D02*
X0310991Y0108162D01*
X0313153Y0101757D02*
X0315288Y0101757D01*
X0380824Y0108162D02*
X0380824Y0109230D01*
X0388337Y0108162D02*
X0388337Y0101757D01*
X0442517Y0083639D02*
X0442517Y0082572D01*
X0442517Y0080436D02*
X0443584Y0080436D01*
X0897318Y0119640D02*
X0899453Y0117505D01*
X0901589Y0119640D01*
X0901589Y0123910D01*
X0903764Y0123910D02*
X0908034Y0123910D01*
X0908034Y0120707D01*
X0905899Y0121775D01*
X0904831Y0121775D01*
X0903764Y0120707D01*
X0903764Y0118572D01*
X0904831Y0117505D01*
X0906966Y0117505D01*
X0908034Y0118572D01*
X0910209Y0120707D02*
X0914480Y0120707D01*
X0912344Y0122843D02*
X0912344Y0118572D01*
X0897318Y0119640D02*
X0897318Y0123910D01*
X0898386Y0131284D02*
X0897318Y0132352D01*
X0897318Y0136622D01*
X0898386Y0137690D01*
X0901589Y0137690D01*
X0901589Y0131284D01*
X0898386Y0131284D01*
X0903764Y0131284D02*
X0903764Y0137690D01*
X0908034Y0137690D02*
X0903764Y0131284D01*
X0908034Y0131284D02*
X0908034Y0137690D01*
X0910209Y0136622D02*
X0911277Y0137690D01*
X0913412Y0137690D01*
X0914480Y0136622D01*
X0914480Y0132352D01*
X0913412Y0131284D01*
X0911277Y0131284D01*
X0910209Y0132352D01*
X0910209Y0134487D01*
X0912344Y0134487D01*
X0923864Y0077935D02*
X0921437Y0075508D01*
X0921437Y0070654D01*
X0921437Y0074294D02*
X0926291Y0074294D01*
X0926291Y0075508D02*
X0923864Y0077935D01*
X0926291Y0075508D02*
X0926291Y0070654D01*
D11*
X0479290Y0113718D02*
X0479290Y0120998D01*
X0475650Y0124638D01*
X0472010Y0120998D01*
X0472010Y0113718D01*
X0468415Y0115538D02*
X0466595Y0113718D01*
X0462955Y0113718D01*
X0461134Y0115538D01*
X0461134Y0119178D01*
X0464775Y0119178D01*
X0468415Y0122818D02*
X0468415Y0115538D01*
X0472010Y0119178D02*
X0479290Y0119178D01*
X0468415Y0122818D02*
X0466595Y0124638D01*
X0462955Y0124638D01*
X0461134Y0122818D01*
X0457539Y0120998D02*
X0453899Y0124638D01*
X0450259Y0120998D01*
X0450259Y0113718D01*
X0450259Y0119178D02*
X0457539Y0119178D01*
X0457539Y0120998D02*
X0457539Y0113718D01*
X0443024Y0113718D02*
X0443024Y0124638D01*
X0446664Y0124638D02*
X0439384Y0124638D01*
X0435788Y0119178D02*
X0428508Y0119178D01*
X0424913Y0120998D02*
X0423093Y0119178D01*
X0417633Y0119178D01*
X0417633Y0122818D02*
X0419453Y0124638D01*
X0423093Y0124638D01*
X0424913Y0122818D01*
X0424913Y0120998D01*
X0424913Y0115538D02*
X0423093Y0113718D01*
X0419453Y0113718D01*
X0417633Y0115538D01*
X0417633Y0122818D01*
X0403162Y0124638D02*
X0403162Y0113718D01*
X0403162Y0117358D02*
X0397702Y0117358D01*
X0395882Y0119178D01*
X0395882Y0122818D01*
X0397702Y0124638D01*
X0403162Y0124638D01*
X0392287Y0120998D02*
X0388647Y0124638D01*
X0385006Y0120998D01*
X0385006Y0113718D01*
X0381411Y0113718D02*
X0381411Y0124638D01*
X0377771Y0120998D01*
X0374131Y0124638D01*
X0374131Y0113718D01*
X0385006Y0119178D02*
X0392287Y0119178D01*
X0392287Y0120998D02*
X0392287Y0113718D01*
X0395882Y0113718D02*
X0399522Y0117358D01*
X0359660Y0119178D02*
X0356020Y0119178D01*
X0352380Y0124638D02*
X0359660Y0124638D01*
X0359660Y0113718D01*
X0352380Y0113718D01*
X0348785Y0113718D02*
X0341505Y0120998D01*
X0337910Y0120998D02*
X0332449Y0120998D01*
X0330629Y0119178D01*
X0330629Y0115538D01*
X0332449Y0113718D01*
X0337910Y0113718D01*
X0341505Y0113718D02*
X0348785Y0120998D01*
X0337910Y0120998D02*
X0337910Y0110078D01*
X0327034Y0115538D02*
X0325214Y0117358D01*
X0319754Y0117358D01*
X0319754Y0119178D02*
X0319754Y0113718D01*
X0325214Y0113718D01*
X0327034Y0115538D01*
X0325214Y0120998D02*
X0321574Y0120998D01*
X0319754Y0119178D01*
X0316159Y0120998D02*
X0310699Y0120998D01*
X0308878Y0119178D01*
X0308878Y0113718D01*
X0305283Y0113718D02*
X0299823Y0113718D01*
X0298003Y0115538D01*
X0299823Y0117358D01*
X0303463Y0117358D01*
X0305283Y0119178D01*
X0303463Y0120998D01*
X0298003Y0120998D01*
X0294408Y0120998D02*
X0292588Y0120998D01*
X0292588Y0113718D01*
X0294408Y0113718D02*
X0290768Y0113718D01*
X0287158Y0115538D02*
X0285338Y0113718D01*
X0281697Y0113718D01*
X0279877Y0115538D01*
X0279877Y0119178D01*
X0281697Y0120998D01*
X0285338Y0120998D01*
X0287158Y0119178D01*
X0287158Y0115538D01*
X0276282Y0113718D02*
X0276282Y0120998D01*
X0270822Y0120998D01*
X0269002Y0119178D01*
X0269002Y0113718D01*
X0254531Y0113718D02*
X0254531Y0124638D01*
X0249071Y0124638D01*
X0247251Y0122818D01*
X0247251Y0120998D01*
X0249071Y0119178D01*
X0254531Y0119178D01*
X0249071Y0119178D02*
X0247251Y0117358D01*
X0247251Y0115538D01*
X0249071Y0113718D01*
X0254531Y0113718D01*
X0243656Y0115538D02*
X0243656Y0119178D01*
X0241836Y0120998D01*
X0238196Y0120998D01*
X0236376Y0119178D01*
X0236376Y0115538D01*
X0238196Y0113718D01*
X0241836Y0113718D01*
X0243656Y0115538D01*
X0232780Y0115538D02*
X0230960Y0117358D01*
X0225500Y0117358D01*
X0225500Y0119178D02*
X0225500Y0113718D01*
X0230960Y0113718D01*
X0232780Y0115538D01*
X0230960Y0120998D02*
X0227320Y0120998D01*
X0225500Y0119178D01*
X0221905Y0120998D02*
X0221905Y0113718D01*
X0221905Y0117358D02*
X0218265Y0120998D01*
X0216445Y0120998D01*
X0212842Y0119178D02*
X0211022Y0120998D01*
X0205562Y0120998D01*
X0205562Y0124638D02*
X0205562Y0113718D01*
X0211022Y0113718D01*
X0212842Y0115538D01*
X0212842Y0119178D01*
X0191091Y0120998D02*
X0187451Y0124638D01*
X0187451Y0113718D01*
X0191091Y0113718D02*
X0183811Y0113718D01*
X0180216Y0113718D02*
X0172936Y0120998D01*
X0172936Y0122818D01*
X0174756Y0124638D01*
X0178396Y0124638D01*
X0180216Y0122818D01*
X0180216Y0113718D02*
X0172936Y0113718D01*
X0169340Y0115538D02*
X0169340Y0117358D01*
X0167520Y0119178D01*
X0163880Y0119178D01*
X0162060Y0117358D01*
X0162060Y0115538D01*
X0163880Y0113718D01*
X0167520Y0113718D01*
X0169340Y0115538D01*
X0167520Y0119178D02*
X0169340Y0120998D01*
X0169340Y0122818D01*
X0167520Y0124638D01*
X0163880Y0124638D01*
X0162060Y0122818D01*
X0162060Y0120998D01*
X0163880Y0119178D01*
X0158465Y0117358D02*
X0153005Y0120998D01*
X0149402Y0120998D02*
X0143942Y0120998D01*
X0142122Y0119178D01*
X0142122Y0115538D01*
X0143942Y0113718D01*
X0149402Y0113718D01*
X0149402Y0124638D01*
X0158465Y0124638D02*
X0158465Y0113718D01*
X0158465Y0117358D02*
X0153005Y0113718D01*
X0292588Y0124638D02*
X0292588Y0126458D01*
X0316159Y0120998D02*
X0316159Y0113718D01*
D12*
X0625982Y0061449D02*
X0628409Y0061449D01*
X0627196Y0061449D02*
X0627196Y0065089D01*
X0628409Y0063876D01*
X0635825Y0063876D02*
X0635825Y0064483D01*
X0636432Y0065089D01*
X0637645Y0065089D01*
X0638252Y0064483D01*
X0635825Y0063876D02*
X0638252Y0061449D01*
X0635825Y0061449D01*
X0645667Y0062056D02*
X0645667Y0062663D01*
X0646274Y0063269D01*
X0646881Y0063269D01*
X0646274Y0063269D02*
X0645667Y0063876D01*
X0645667Y0064483D01*
X0646274Y0065089D01*
X0647487Y0065089D01*
X0648094Y0064483D01*
X0648094Y0062056D02*
X0647487Y0061449D01*
X0646274Y0061449D01*
X0645667Y0062056D01*
X0655116Y0063269D02*
X0657543Y0063269D01*
X0655723Y0065089D01*
X0655723Y0061449D01*
X0665352Y0062056D02*
X0665352Y0063269D01*
X0665959Y0063876D01*
X0666566Y0063876D01*
X0667779Y0063269D01*
X0667779Y0065089D01*
X0665352Y0065089D01*
X0665352Y0062056D02*
X0665959Y0061449D01*
X0667172Y0061449D01*
X0667779Y0062056D01*
X0675195Y0062056D02*
X0675195Y0062663D01*
X0675802Y0063269D01*
X0677622Y0063269D01*
X0677622Y0062056D01*
X0677015Y0061449D01*
X0675802Y0061449D01*
X0675195Y0062056D01*
X0676408Y0064483D02*
X0675195Y0065089D01*
X0676408Y0064483D02*
X0677622Y0063269D01*
X0685037Y0064483D02*
X0687464Y0062056D01*
X0687464Y0061449D01*
X0687464Y0065089D02*
X0685037Y0065089D01*
X0685037Y0064483D01*
X0695274Y0064483D02*
X0695274Y0063876D01*
X0695880Y0063269D01*
X0697094Y0063269D01*
X0697700Y0063876D01*
X0697700Y0064483D01*
X0697094Y0065089D01*
X0695880Y0065089D01*
X0695274Y0064483D01*
X0695880Y0063269D02*
X0695274Y0062663D01*
X0695274Y0062056D01*
X0695880Y0061449D01*
X0697094Y0061449D01*
X0697700Y0062056D01*
X0697700Y0062663D01*
X0697094Y0063269D01*
X0705116Y0063269D02*
X0706936Y0063269D01*
X0707543Y0063876D01*
X0707543Y0064483D01*
X0706936Y0065089D01*
X0705723Y0065089D01*
X0705116Y0064483D01*
X0705116Y0062056D01*
X0705723Y0061449D01*
X0706936Y0061449D01*
X0707543Y0062056D01*
X0713302Y0062056D02*
X0713909Y0061449D01*
X0715122Y0061449D01*
X0715729Y0062056D01*
X0713302Y0064483D01*
X0713302Y0062056D01*
X0713302Y0064483D02*
X0713909Y0065089D01*
X0715122Y0065089D01*
X0715729Y0064483D01*
X0715729Y0062056D01*
X0716927Y0061449D02*
X0719354Y0061449D01*
X0718141Y0061449D02*
X0718141Y0065089D01*
X0719354Y0063876D01*
X0722357Y0061449D02*
X0724784Y0061449D01*
X0725982Y0061449D02*
X0728409Y0061449D01*
X0727196Y0061449D02*
X0727196Y0065089D01*
X0728409Y0063876D01*
X0724784Y0063876D02*
X0723571Y0065089D01*
X0723571Y0061449D01*
X0732200Y0061449D02*
X0734626Y0061449D01*
X0732200Y0063876D01*
X0732200Y0064483D01*
X0732806Y0065089D01*
X0734020Y0065089D01*
X0734626Y0064483D01*
X0737038Y0065089D02*
X0737038Y0061449D01*
X0735825Y0061449D02*
X0738252Y0061449D01*
X0738252Y0063876D02*
X0737038Y0065089D01*
X0742436Y0064483D02*
X0742436Y0063876D01*
X0743043Y0063269D01*
X0742436Y0062663D01*
X0742436Y0062056D01*
X0743043Y0061449D01*
X0744256Y0061449D01*
X0744863Y0062056D01*
X0746061Y0061449D02*
X0748488Y0061449D01*
X0747274Y0061449D02*
X0747274Y0065089D01*
X0748488Y0063876D01*
X0751885Y0063269D02*
X0754311Y0063269D01*
X0752491Y0065089D01*
X0752491Y0061449D01*
X0755510Y0061449D02*
X0757937Y0061449D01*
X0756723Y0061449D02*
X0756723Y0065089D01*
X0757937Y0063876D01*
X0762121Y0063269D02*
X0762121Y0062056D01*
X0762728Y0061449D01*
X0763941Y0061449D01*
X0764548Y0062056D01*
X0764548Y0063269D02*
X0763334Y0063876D01*
X0762728Y0063876D01*
X0762121Y0063269D01*
X0762121Y0065089D02*
X0764548Y0065089D01*
X0764548Y0063269D01*
X0765746Y0061449D02*
X0768173Y0061449D01*
X0766959Y0061449D02*
X0766959Y0065089D01*
X0768173Y0063876D01*
X0771570Y0065089D02*
X0772783Y0064483D01*
X0773997Y0063269D01*
X0772176Y0063269D01*
X0771570Y0062663D01*
X0771570Y0062056D01*
X0772176Y0061449D01*
X0773390Y0061449D01*
X0773997Y0062056D01*
X0773997Y0063269D01*
X0775195Y0061449D02*
X0777622Y0061449D01*
X0776408Y0061449D02*
X0776408Y0065089D01*
X0777622Y0063876D01*
X0781806Y0064483D02*
X0784233Y0062056D01*
X0784233Y0061449D01*
X0785431Y0061449D02*
X0787858Y0061449D01*
X0786645Y0061449D02*
X0786645Y0065089D01*
X0787858Y0063876D01*
X0784233Y0065089D02*
X0781806Y0065089D01*
X0781806Y0064483D01*
X0792042Y0064483D02*
X0792042Y0063876D01*
X0792649Y0063269D01*
X0793862Y0063269D01*
X0794469Y0063876D01*
X0794469Y0064483D01*
X0793862Y0065089D01*
X0792649Y0065089D01*
X0792042Y0064483D01*
X0792649Y0063269D02*
X0792042Y0062663D01*
X0792042Y0062056D01*
X0792649Y0061449D01*
X0793862Y0061449D01*
X0794469Y0062056D01*
X0794469Y0062663D01*
X0793862Y0063269D01*
X0795667Y0061449D02*
X0798094Y0061449D01*
X0796881Y0061449D02*
X0796881Y0065089D01*
X0798094Y0063876D01*
X0801491Y0064483D02*
X0801491Y0062056D01*
X0802098Y0061449D01*
X0803311Y0061449D01*
X0803918Y0062056D01*
X0805116Y0061449D02*
X0807543Y0061449D01*
X0806330Y0061449D02*
X0806330Y0065089D01*
X0807543Y0063876D01*
X0803918Y0063876D02*
X0803311Y0063269D01*
X0801491Y0063269D01*
X0801491Y0064483D02*
X0802098Y0065089D01*
X0803311Y0065089D01*
X0803918Y0064483D01*
X0803918Y0063876D01*
X0811334Y0064483D02*
X0813760Y0062056D01*
X0813154Y0061449D01*
X0811940Y0061449D01*
X0811334Y0062056D01*
X0811334Y0064483D01*
X0811940Y0065089D01*
X0813154Y0065089D01*
X0813760Y0064483D01*
X0813760Y0062056D01*
X0814959Y0061449D02*
X0817385Y0061449D01*
X0814959Y0063876D01*
X0814959Y0064483D01*
X0815565Y0065089D01*
X0816779Y0065089D01*
X0817385Y0064483D01*
X0820782Y0061449D02*
X0823209Y0061449D01*
X0824408Y0061449D02*
X0826834Y0061449D01*
X0824408Y0063876D01*
X0824408Y0064483D01*
X0825014Y0065089D01*
X0826228Y0065089D01*
X0826834Y0064483D01*
X0823209Y0063876D02*
X0821996Y0065089D01*
X0821996Y0061449D01*
X0831019Y0061449D02*
X0833445Y0061449D01*
X0831019Y0063876D01*
X0831019Y0064483D01*
X0831625Y0065089D01*
X0832839Y0065089D01*
X0833445Y0064483D01*
X0834644Y0064483D02*
X0835250Y0065089D01*
X0836464Y0065089D01*
X0837070Y0064483D01*
X0834644Y0064483D02*
X0834644Y0063876D01*
X0837070Y0061449D01*
X0834644Y0061449D01*
X0840861Y0062056D02*
X0840861Y0062663D01*
X0841468Y0063269D01*
X0842074Y0063269D01*
X0841468Y0063269D02*
X0840861Y0063876D01*
X0840861Y0064483D01*
X0841468Y0065089D01*
X0842681Y0065089D01*
X0843288Y0064483D01*
X0844486Y0064483D02*
X0845093Y0065089D01*
X0846306Y0065089D01*
X0846913Y0064483D01*
X0844486Y0064483D02*
X0844486Y0063876D01*
X0846913Y0061449D01*
X0844486Y0061449D01*
X0843288Y0062056D02*
X0842681Y0061449D01*
X0841468Y0061449D01*
X0840861Y0062056D01*
X0850704Y0063269D02*
X0853130Y0063269D01*
X0851310Y0065089D01*
X0851310Y0061449D01*
X0854329Y0061449D02*
X0856756Y0061449D01*
X0854329Y0063876D01*
X0854329Y0064483D01*
X0854935Y0065089D01*
X0856149Y0065089D01*
X0856756Y0064483D01*
X0860546Y0065089D02*
X0862973Y0065089D01*
X0862973Y0063269D01*
X0861760Y0063876D01*
X0861153Y0063876D01*
X0860546Y0063269D01*
X0860546Y0062056D01*
X0861153Y0061449D01*
X0862366Y0061449D01*
X0862973Y0062056D01*
X0864171Y0061449D02*
X0866598Y0061449D01*
X0864171Y0063876D01*
X0864171Y0064483D01*
X0864778Y0065089D01*
X0865991Y0065089D01*
X0866598Y0064483D01*
X0870389Y0065089D02*
X0871602Y0064483D01*
X0872815Y0063269D01*
X0870995Y0063269D01*
X0870389Y0062663D01*
X0870389Y0062056D01*
X0870995Y0061449D01*
X0872209Y0061449D01*
X0872815Y0062056D01*
X0872815Y0063269D01*
X0874014Y0063876D02*
X0874014Y0064483D01*
X0874620Y0065089D01*
X0875834Y0065089D01*
X0876441Y0064483D01*
X0874014Y0063876D02*
X0876441Y0061449D01*
X0874014Y0061449D01*
X0880231Y0064483D02*
X0882658Y0062056D01*
X0882658Y0061449D01*
X0883856Y0061449D02*
X0886283Y0061449D01*
X0883856Y0063876D01*
X0883856Y0064483D01*
X0884463Y0065089D01*
X0885676Y0065089D01*
X0886283Y0064483D01*
X0882658Y0065089D02*
X0880231Y0065089D01*
X0880231Y0064483D01*
X0890074Y0064483D02*
X0890074Y0063876D01*
X0890680Y0063269D01*
X0891894Y0063269D01*
X0892500Y0063876D01*
X0892500Y0064483D01*
X0891894Y0065089D01*
X0890680Y0065089D01*
X0890074Y0064483D01*
X0890680Y0063269D02*
X0890074Y0062663D01*
X0890074Y0062056D01*
X0890680Y0061449D01*
X0891894Y0061449D01*
X0892500Y0062056D01*
X0892500Y0062663D01*
X0891894Y0063269D01*
X0893699Y0063876D02*
X0893699Y0064483D01*
X0894306Y0065089D01*
X0895519Y0065089D01*
X0896126Y0064483D01*
X0893699Y0063876D02*
X0896126Y0061449D01*
X0893699Y0061449D01*
X0899916Y0062056D02*
X0899916Y0064483D01*
X0900523Y0065089D01*
X0901736Y0065089D01*
X0902343Y0064483D01*
X0902343Y0063876D01*
X0901736Y0063269D01*
X0899916Y0063269D01*
X0899916Y0062056D02*
X0900523Y0061449D01*
X0901736Y0061449D01*
X0902343Y0062056D01*
X0903541Y0061449D02*
X0905968Y0061449D01*
X0903541Y0063876D01*
X0903541Y0064483D01*
X0904148Y0065089D01*
X0905361Y0065089D01*
X0905968Y0064483D01*
X0909365Y0064483D02*
X0911792Y0062056D01*
X0911185Y0061449D01*
X0909972Y0061449D01*
X0909365Y0062056D01*
X0909365Y0064483D01*
X0909972Y0065089D01*
X0911185Y0065089D01*
X0911792Y0064483D01*
X0911792Y0062056D01*
X0912990Y0062056D02*
X0913597Y0061449D01*
X0914810Y0061449D01*
X0915417Y0062056D01*
X0914204Y0063269D02*
X0913597Y0063269D01*
X0912990Y0062663D01*
X0912990Y0062056D01*
X0913597Y0063269D02*
X0912990Y0063876D01*
X0912990Y0064483D01*
X0913597Y0065089D01*
X0914810Y0065089D01*
X0915417Y0064483D01*
X0744863Y0064483D02*
X0744256Y0065089D01*
X0743043Y0065089D01*
X0742436Y0064483D01*
X0743043Y0063269D02*
X0743649Y0063269D01*
X0743047Y0179166D02*
X0743047Y0182806D01*
X0744260Y0181592D01*
X0745473Y0182806D01*
X0745473Y0179166D01*
X0746672Y0179166D02*
X0746672Y0181592D01*
X0747885Y0182806D01*
X0749098Y0181592D01*
X0749098Y0179166D01*
X0750297Y0179166D02*
X0751510Y0180379D01*
X0750903Y0180379D02*
X0752724Y0180379D01*
X0752724Y0179166D02*
X0752724Y0182806D01*
X0750903Y0182806D01*
X0750297Y0182199D01*
X0750297Y0180986D01*
X0750903Y0180379D01*
X0749098Y0180986D02*
X0746672Y0180986D01*
X0741848Y0182806D02*
X0740635Y0181592D01*
X0740635Y0180379D01*
X0741848Y0179166D01*
X0753922Y0179772D02*
X0753922Y0182199D01*
X0754529Y0182806D01*
X0756349Y0182806D01*
X0756349Y0179166D01*
X0754529Y0179166D01*
X0753922Y0179772D01*
X0757552Y0179166D02*
X0758765Y0180379D01*
X0758765Y0181592D01*
X0757552Y0182806D01*
X0763589Y0180986D02*
X0766016Y0180986D01*
X0764196Y0182806D01*
X0764196Y0179166D01*
X0767214Y0179772D02*
X0767214Y0180379D01*
X0767821Y0180986D01*
X0769641Y0180986D01*
X0769641Y0179772D01*
X0769034Y0179166D01*
X0767821Y0179166D01*
X0767214Y0179772D01*
X0768427Y0182199D02*
X0769641Y0180986D01*
X0768427Y0182199D02*
X0767214Y0182806D01*
X0770238Y0185071D02*
X0770238Y0188711D01*
X0772058Y0186891D01*
X0769631Y0186891D01*
X0773256Y0185678D02*
X0773863Y0185071D01*
X0775076Y0185071D01*
X0775683Y0185678D01*
X0773256Y0188105D01*
X0773256Y0185678D01*
X0773256Y0188105D02*
X0773863Y0188711D01*
X0775076Y0188711D01*
X0775683Y0188105D01*
X0775683Y0185678D01*
X0776881Y0185678D02*
X0777488Y0185071D01*
X0778701Y0185071D01*
X0779308Y0185678D01*
X0780506Y0185071D02*
X0782933Y0185071D01*
X0782933Y0188711D01*
X0784131Y0187498D02*
X0784131Y0185071D01*
X0784131Y0186891D02*
X0786558Y0186891D01*
X0786558Y0187498D02*
X0785345Y0188711D01*
X0784131Y0187498D01*
X0786558Y0187498D02*
X0786558Y0185071D01*
X0788363Y0185071D02*
X0788363Y0188711D01*
X0790183Y0186891D01*
X0787757Y0186891D01*
X0791382Y0188105D02*
X0793808Y0185678D01*
X0793808Y0185071D01*
X0793197Y0182806D02*
X0795017Y0180986D01*
X0792590Y0180986D01*
X0791392Y0181592D02*
X0790178Y0182806D01*
X0790178Y0179166D01*
X0788965Y0179166D02*
X0791392Y0179166D01*
X0793197Y0179166D02*
X0793197Y0182806D01*
X0796215Y0182199D02*
X0796822Y0182806D01*
X0798035Y0182806D01*
X0798642Y0182199D01*
X0798642Y0179772D01*
X0798035Y0179166D01*
X0796822Y0179166D01*
X0796215Y0179772D01*
X0799845Y0179166D02*
X0801059Y0179166D01*
X0800452Y0179166D02*
X0800452Y0182806D01*
X0801059Y0182806D02*
X0799845Y0182806D01*
X0802257Y0180986D02*
X0804684Y0180986D01*
X0805882Y0180986D02*
X0808309Y0180986D01*
X0806489Y0182806D01*
X0806489Y0179166D01*
X0809507Y0179166D02*
X0811934Y0179166D01*
X0809507Y0181592D01*
X0809507Y0182199D01*
X0810114Y0182806D01*
X0811327Y0182806D01*
X0811934Y0182199D01*
X0813132Y0182199D02*
X0813739Y0182806D01*
X0814953Y0182806D01*
X0815559Y0182199D01*
X0815559Y0179772D01*
X0814953Y0179166D01*
X0813739Y0179166D01*
X0813132Y0179772D01*
X0816763Y0179166D02*
X0817976Y0179166D01*
X0817369Y0179166D02*
X0817369Y0182806D01*
X0816763Y0182806D02*
X0817976Y0182806D01*
X0817976Y0185071D02*
X0816763Y0185071D01*
X0817369Y0185071D02*
X0817369Y0188711D01*
X0816763Y0188711D02*
X0817976Y0188711D01*
X0817976Y0190977D02*
X0816763Y0190977D01*
X0817369Y0190977D02*
X0817369Y0194617D01*
X0816763Y0194617D02*
X0817976Y0194617D01*
X0817976Y0196882D02*
X0816763Y0196882D01*
X0817369Y0196882D02*
X0817369Y0200522D01*
X0816763Y0200522D02*
X0817976Y0200522D01*
X0817976Y0202788D02*
X0816763Y0202788D01*
X0817369Y0202788D02*
X0817369Y0206428D01*
X0816763Y0206428D02*
X0817976Y0206428D01*
X0817976Y0208693D02*
X0816763Y0208693D01*
X0817369Y0208693D02*
X0817369Y0212333D01*
X0816763Y0212333D02*
X0817976Y0212333D01*
X0817976Y0214599D02*
X0816763Y0214599D01*
X0817369Y0214599D02*
X0817369Y0218239D01*
X0816763Y0218239D02*
X0817976Y0218239D01*
X0817976Y0220504D02*
X0816763Y0220504D01*
X0817369Y0220504D02*
X0817369Y0224144D01*
X0816763Y0224144D02*
X0817976Y0224144D01*
X0817976Y0226410D02*
X0816763Y0226410D01*
X0817369Y0226410D02*
X0817369Y0230050D01*
X0816763Y0230050D02*
X0817976Y0230050D01*
X0817976Y0232315D02*
X0816763Y0232315D01*
X0817369Y0232315D02*
X0817369Y0235955D01*
X0816763Y0235955D02*
X0817976Y0235955D01*
X0817976Y0238221D02*
X0816763Y0238221D01*
X0817369Y0238221D02*
X0817369Y0241861D01*
X0816763Y0241861D02*
X0817976Y0241861D01*
X0817976Y0244126D02*
X0816763Y0244126D01*
X0817369Y0244126D02*
X0817369Y0247766D01*
X0816763Y0247766D02*
X0817976Y0247766D01*
X0817976Y0250032D02*
X0816763Y0250032D01*
X0817369Y0250032D02*
X0817369Y0253672D01*
X0816763Y0253672D02*
X0817976Y0253672D01*
X0817976Y0255937D02*
X0816763Y0255937D01*
X0817369Y0255937D02*
X0817369Y0259578D01*
X0816763Y0259578D02*
X0817976Y0259578D01*
X0817976Y0261843D02*
X0816763Y0261843D01*
X0817369Y0261843D02*
X0817369Y0265483D01*
X0816763Y0265483D02*
X0817976Y0265483D01*
X0817976Y0267748D02*
X0816763Y0267748D01*
X0817369Y0267748D02*
X0817369Y0271389D01*
X0816763Y0271389D02*
X0817976Y0271389D01*
X0815559Y0270782D02*
X0815559Y0268355D01*
X0814953Y0267748D01*
X0813739Y0267748D01*
X0813132Y0268355D01*
X0811934Y0267748D02*
X0809507Y0267748D01*
X0810721Y0267748D02*
X0810721Y0271389D01*
X0811934Y0270175D01*
X0813132Y0270782D02*
X0813739Y0271389D01*
X0814953Y0271389D01*
X0815559Y0270782D01*
X0815549Y0275474D02*
X0817976Y0275474D01*
X0814351Y0275474D02*
X0811924Y0275474D01*
X0810726Y0275474D02*
X0808299Y0275474D01*
X0807101Y0275474D02*
X0804674Y0275474D01*
X0803475Y0275474D02*
X0801049Y0275474D01*
X0799850Y0275474D02*
X0797424Y0275474D01*
X0796225Y0275474D02*
X0793798Y0275474D01*
X0792600Y0275474D02*
X0790173Y0275474D01*
X0788975Y0275474D02*
X0786548Y0275474D01*
X0785350Y0275474D02*
X0782923Y0275474D01*
X0781725Y0275474D02*
X0779298Y0275474D01*
X0778099Y0275474D02*
X0775673Y0275474D01*
X0774474Y0275474D02*
X0772048Y0275474D01*
X0770849Y0275474D02*
X0768422Y0275474D01*
X0767224Y0275474D02*
X0764797Y0275474D01*
X0763599Y0275474D02*
X0761172Y0275474D01*
X0759974Y0275474D02*
X0757547Y0275474D01*
X0756349Y0275474D02*
X0753922Y0275474D01*
X0752724Y0275474D02*
X0750297Y0275474D01*
X0749098Y0275474D02*
X0746672Y0275474D01*
X0745473Y0275474D02*
X0743047Y0275474D01*
X0741848Y0275474D02*
X0739421Y0275474D01*
X0738223Y0275474D02*
X0735796Y0275474D01*
X0734598Y0275474D02*
X0732171Y0275474D01*
X0730973Y0275474D02*
X0728546Y0275474D01*
X0727949Y0271389D02*
X0726736Y0271389D01*
X0726129Y0270782D01*
X0726129Y0270175D01*
X0726736Y0269568D01*
X0726129Y0268962D01*
X0726129Y0268355D01*
X0726736Y0267748D01*
X0727949Y0267748D01*
X0728556Y0268355D01*
X0729754Y0268355D02*
X0730361Y0267748D01*
X0731574Y0267748D01*
X0732181Y0268355D01*
X0732181Y0269568D02*
X0730968Y0270175D01*
X0730361Y0270175D01*
X0729754Y0269568D01*
X0729754Y0268355D01*
X0727343Y0269568D02*
X0726736Y0269568D01*
X0728556Y0270782D02*
X0727949Y0271389D01*
X0729754Y0271389D02*
X0732181Y0271389D01*
X0732181Y0269568D01*
X0733380Y0270175D02*
X0733380Y0270782D01*
X0733986Y0271389D01*
X0735200Y0271389D01*
X0735806Y0270782D01*
X0737005Y0270782D02*
X0737611Y0271389D01*
X0738825Y0271389D01*
X0739431Y0270782D01*
X0739431Y0270175D01*
X0738825Y0269568D01*
X0737611Y0269568D01*
X0737005Y0268962D01*
X0737005Y0268355D01*
X0737611Y0267748D01*
X0738825Y0267748D01*
X0739431Y0268355D01*
X0740630Y0267748D02*
X0743057Y0267748D01*
X0743057Y0271389D01*
X0744862Y0271389D02*
X0746682Y0269568D01*
X0744255Y0269568D01*
X0744862Y0267748D02*
X0744862Y0271389D01*
X0747880Y0271389D02*
X0747880Y0270782D01*
X0750307Y0268355D01*
X0750307Y0267748D01*
X0750307Y0271389D02*
X0747880Y0271389D01*
X0755130Y0269568D02*
X0757557Y0269568D01*
X0758154Y0265483D02*
X0757547Y0264876D01*
X0757547Y0264270D01*
X0758154Y0263663D01*
X0757547Y0263056D01*
X0757547Y0262450D01*
X0758154Y0261843D01*
X0759367Y0261843D01*
X0759974Y0262450D01*
X0761172Y0262450D02*
X0761172Y0264876D01*
X0761779Y0265483D01*
X0762992Y0265483D01*
X0763599Y0264876D01*
X0763599Y0264270D01*
X0762992Y0263663D01*
X0761172Y0263663D01*
X0761172Y0262450D02*
X0761779Y0261843D01*
X0762992Y0261843D01*
X0763599Y0262450D01*
X0764797Y0261843D02*
X0767224Y0261843D01*
X0766011Y0261843D02*
X0766011Y0265483D01*
X0767224Y0264270D01*
X0768422Y0264876D02*
X0769029Y0265483D01*
X0770243Y0265483D01*
X0770849Y0264876D01*
X0770849Y0264270D01*
X0770243Y0263663D01*
X0769029Y0263663D01*
X0768422Y0263056D01*
X0768422Y0262450D01*
X0769029Y0261843D01*
X0770243Y0261843D01*
X0770849Y0262450D01*
X0772048Y0261843D02*
X0774474Y0261843D01*
X0774474Y0265483D01*
X0776279Y0265483D02*
X0778099Y0263663D01*
X0775673Y0263663D01*
X0776279Y0261843D02*
X0776279Y0265483D01*
X0776891Y0266535D02*
X0775678Y0267748D01*
X0776284Y0267748D01*
X0776284Y0268355D01*
X0775678Y0268355D01*
X0775678Y0267748D01*
X0778090Y0268355D02*
X0778696Y0267748D01*
X0779910Y0267748D01*
X0780516Y0268355D01*
X0781715Y0268355D02*
X0782321Y0267748D01*
X0783535Y0267748D01*
X0784141Y0268355D01*
X0784141Y0270782D01*
X0783535Y0271389D01*
X0782321Y0271389D01*
X0781715Y0270782D01*
X0780516Y0270782D02*
X0779910Y0271389D01*
X0778696Y0271389D01*
X0778090Y0270782D01*
X0778090Y0270175D01*
X0778696Y0269568D01*
X0778090Y0268962D01*
X0778090Y0268355D01*
X0778696Y0269568D02*
X0779303Y0269568D01*
X0779298Y0265483D02*
X0779298Y0264876D01*
X0781725Y0262450D01*
X0781725Y0261843D01*
X0782326Y0259578D02*
X0782933Y0258971D01*
X0782933Y0258364D01*
X0782326Y0257757D01*
X0781113Y0257757D01*
X0780506Y0257151D01*
X0780506Y0256544D01*
X0781113Y0255937D01*
X0782326Y0255937D01*
X0782933Y0256544D01*
X0784131Y0255937D02*
X0786558Y0255937D01*
X0786558Y0259578D01*
X0787757Y0258364D02*
X0787757Y0255937D01*
X0787757Y0257757D02*
X0790183Y0257757D01*
X0790183Y0258364D02*
X0788970Y0259578D01*
X0787757Y0258364D01*
X0790183Y0258364D02*
X0790183Y0255937D01*
X0791988Y0255937D02*
X0791988Y0259578D01*
X0793808Y0257757D01*
X0791382Y0257757D01*
X0795007Y0258971D02*
X0797434Y0256544D01*
X0797434Y0255937D01*
X0798030Y0253672D02*
X0799244Y0253672D01*
X0799850Y0253065D01*
X0799850Y0250639D01*
X0799244Y0250032D01*
X0798030Y0250032D01*
X0797424Y0250639D01*
X0796225Y0250639D02*
X0795618Y0250032D01*
X0794405Y0250032D01*
X0793798Y0250639D01*
X0793798Y0253065D01*
X0794405Y0253672D01*
X0795618Y0253672D01*
X0796225Y0253065D01*
X0796225Y0252459D01*
X0795618Y0251852D01*
X0793798Y0251852D01*
X0791993Y0250639D02*
X0791993Y0250032D01*
X0791387Y0250032D01*
X0791387Y0250639D01*
X0791993Y0250639D01*
X0791387Y0250032D02*
X0792600Y0248819D01*
X0791387Y0247766D02*
X0791387Y0244126D01*
X0792600Y0244126D02*
X0790173Y0244126D01*
X0788975Y0244126D02*
X0788975Y0244733D01*
X0786548Y0247160D01*
X0786548Y0247766D01*
X0788975Y0247766D01*
X0791387Y0247766D02*
X0792600Y0246553D01*
X0793798Y0247160D02*
X0794405Y0247766D01*
X0795618Y0247766D01*
X0796225Y0247160D01*
X0796225Y0244733D01*
X0795618Y0244126D01*
X0794405Y0244126D01*
X0793798Y0244733D01*
X0794405Y0241861D02*
X0795618Y0241861D01*
X0796225Y0241254D01*
X0796225Y0238828D01*
X0795618Y0238221D01*
X0794405Y0238221D01*
X0793798Y0238828D01*
X0792600Y0238221D02*
X0790173Y0238221D01*
X0791387Y0238221D02*
X0791387Y0241861D01*
X0792600Y0240648D01*
X0793798Y0241254D02*
X0794405Y0241861D01*
X0797429Y0241861D02*
X0798642Y0241861D01*
X0798035Y0241861D02*
X0798035Y0238221D01*
X0797429Y0238221D02*
X0798642Y0238221D01*
X0798632Y0234135D02*
X0801059Y0234135D01*
X0804684Y0237008D02*
X0803470Y0238221D01*
X0804077Y0238221D01*
X0804077Y0238828D01*
X0803470Y0238828D01*
X0803470Y0238221D01*
X0805882Y0238221D02*
X0808309Y0238221D01*
X0805882Y0240648D01*
X0805882Y0241254D01*
X0806489Y0241861D01*
X0807702Y0241861D01*
X0808309Y0241254D01*
X0810721Y0241861D02*
X0810721Y0238221D01*
X0811934Y0238221D02*
X0809507Y0238221D01*
X0810721Y0235955D02*
X0810721Y0232315D01*
X0811934Y0232315D02*
X0809507Y0232315D01*
X0808309Y0232922D02*
X0807702Y0232315D01*
X0806489Y0232315D01*
X0805882Y0232922D01*
X0805882Y0233529D01*
X0806489Y0234135D01*
X0807096Y0234135D01*
X0806489Y0234135D02*
X0805882Y0234742D01*
X0805882Y0235349D01*
X0806489Y0235955D01*
X0807702Y0235955D01*
X0808309Y0235349D01*
X0810721Y0235955D02*
X0811934Y0234742D01*
X0813132Y0235349D02*
X0813739Y0235955D01*
X0814953Y0235955D01*
X0815559Y0235349D01*
X0815559Y0232922D01*
X0814953Y0232315D01*
X0813739Y0232315D01*
X0813132Y0232922D01*
X0813739Y0230050D02*
X0814953Y0230050D01*
X0815559Y0229443D01*
X0815559Y0227017D01*
X0814953Y0226410D01*
X0813739Y0226410D01*
X0813132Y0227017D01*
X0811934Y0226410D02*
X0809507Y0226410D01*
X0810721Y0226410D02*
X0810721Y0230050D01*
X0811934Y0228837D01*
X0813132Y0229443D02*
X0813739Y0230050D01*
X0808309Y0230050D02*
X0808309Y0228230D01*
X0807096Y0228837D01*
X0806489Y0228837D01*
X0805882Y0228230D01*
X0805882Y0227017D01*
X0806489Y0226410D01*
X0807702Y0226410D01*
X0808309Y0227017D01*
X0808309Y0230050D02*
X0805882Y0230050D01*
X0801059Y0228230D02*
X0798632Y0228230D01*
X0793808Y0227017D02*
X0793808Y0226410D01*
X0793808Y0227017D02*
X0791382Y0229443D01*
X0791382Y0230050D01*
X0793808Y0230050D01*
X0793202Y0232315D02*
X0791988Y0232315D01*
X0791382Y0232922D01*
X0791382Y0235349D01*
X0791988Y0235955D01*
X0793202Y0235955D01*
X0793808Y0235349D01*
X0793808Y0234742D01*
X0793202Y0234135D01*
X0791382Y0234135D01*
X0790183Y0232922D02*
X0789577Y0232315D01*
X0788363Y0232315D01*
X0787757Y0232922D01*
X0787757Y0233529D01*
X0788363Y0234135D01*
X0788970Y0234135D01*
X0788363Y0234135D02*
X0787757Y0234742D01*
X0787757Y0235349D01*
X0788363Y0235955D01*
X0789577Y0235955D01*
X0790183Y0235349D01*
X0786558Y0234135D02*
X0784131Y0234135D01*
X0782933Y0235349D02*
X0782326Y0235955D01*
X0781113Y0235955D01*
X0780506Y0235349D01*
X0780506Y0234742D01*
X0782933Y0232315D01*
X0780506Y0232315D01*
X0779308Y0232315D02*
X0779308Y0232922D01*
X0776881Y0235349D01*
X0776881Y0235955D01*
X0779308Y0235955D01*
X0775683Y0235349D02*
X0775683Y0232922D01*
X0775076Y0232315D01*
X0773863Y0232315D01*
X0773256Y0232922D01*
X0773256Y0235349D02*
X0773863Y0235955D01*
X0775076Y0235955D01*
X0775683Y0235349D01*
X0774474Y0238221D02*
X0774474Y0238828D01*
X0772048Y0241254D01*
X0772048Y0241861D01*
X0774474Y0241861D01*
X0774474Y0244126D02*
X0774474Y0244733D01*
X0772048Y0247160D01*
X0772048Y0247766D01*
X0774474Y0247766D01*
X0773266Y0248819D02*
X0772053Y0250032D01*
X0772659Y0250032D01*
X0772659Y0250639D01*
X0772053Y0250639D01*
X0772053Y0250032D01*
X0774464Y0250639D02*
X0775071Y0250032D01*
X0776284Y0250032D01*
X0776891Y0250639D01*
X0774464Y0253065D01*
X0774464Y0250639D01*
X0774464Y0253065D02*
X0775071Y0253672D01*
X0776284Y0253672D01*
X0776891Y0253065D01*
X0776891Y0250639D01*
X0778090Y0250032D02*
X0780516Y0250032D01*
X0779303Y0250032D02*
X0779303Y0253672D01*
X0780516Y0252459D01*
X0781715Y0253065D02*
X0782321Y0253672D01*
X0783535Y0253672D01*
X0784141Y0253065D01*
X0784141Y0250639D01*
X0783535Y0250032D01*
X0782321Y0250032D01*
X0781715Y0250639D01*
X0785345Y0250032D02*
X0786558Y0250032D01*
X0785951Y0250032D02*
X0785951Y0253672D01*
X0785345Y0253672D02*
X0786558Y0253672D01*
X0782326Y0259578D02*
X0781113Y0259578D01*
X0780506Y0258971D01*
X0779308Y0258971D02*
X0778701Y0259578D01*
X0777488Y0259578D01*
X0776881Y0258971D01*
X0776881Y0258364D01*
X0777488Y0257757D01*
X0776881Y0257151D01*
X0776881Y0256544D01*
X0777488Y0255937D01*
X0778701Y0255937D01*
X0779308Y0256544D01*
X0778095Y0257757D02*
X0777488Y0257757D01*
X0775683Y0256544D02*
X0775683Y0255937D01*
X0775683Y0256544D02*
X0773256Y0258971D01*
X0773256Y0259578D01*
X0775683Y0259578D01*
X0772058Y0258971D02*
X0771451Y0259578D01*
X0770238Y0259578D01*
X0769631Y0258971D01*
X0769631Y0258364D01*
X0770238Y0257757D01*
X0769631Y0257151D01*
X0769631Y0256544D01*
X0770238Y0255937D01*
X0771451Y0255937D01*
X0772058Y0256544D01*
X0770844Y0257757D02*
X0770238Y0257757D01*
X0767224Y0253672D02*
X0766011Y0253672D01*
X0766617Y0253672D02*
X0766617Y0250032D01*
X0766011Y0250032D02*
X0767224Y0250032D01*
X0767224Y0247766D02*
X0767224Y0244126D01*
X0764797Y0244126D01*
X0763599Y0244733D02*
X0762992Y0244126D01*
X0761779Y0244126D01*
X0761172Y0244733D01*
X0761172Y0245340D01*
X0761779Y0245946D01*
X0762992Y0245946D01*
X0763599Y0246553D01*
X0763599Y0247160D01*
X0762992Y0247766D01*
X0761779Y0247766D01*
X0761172Y0247160D01*
X0759974Y0247160D02*
X0759367Y0247766D01*
X0758154Y0247766D01*
X0757547Y0247160D01*
X0757547Y0246553D01*
X0758154Y0245946D01*
X0757547Y0245340D01*
X0757547Y0244733D01*
X0758154Y0244126D01*
X0759367Y0244126D01*
X0759974Y0244733D01*
X0758760Y0245946D02*
X0758154Y0245946D01*
X0756349Y0247160D02*
X0755742Y0247766D01*
X0754529Y0247766D01*
X0753922Y0247160D01*
X0753922Y0246553D01*
X0756349Y0244126D01*
X0753922Y0244126D01*
X0752724Y0241861D02*
X0750297Y0241861D01*
X0750297Y0241254D01*
X0752724Y0238828D01*
X0752724Y0238221D01*
X0753922Y0238221D02*
X0756349Y0238221D01*
X0755135Y0238221D02*
X0755135Y0241861D01*
X0756349Y0240648D01*
X0757547Y0241254D02*
X0758154Y0241861D01*
X0759367Y0241861D01*
X0759974Y0241254D01*
X0759974Y0240648D01*
X0759367Y0240041D01*
X0758154Y0240041D01*
X0757547Y0239434D01*
X0757547Y0238828D01*
X0758154Y0238221D01*
X0759367Y0238221D01*
X0759974Y0238828D01*
X0761172Y0238221D02*
X0763599Y0238221D01*
X0763599Y0241861D01*
X0764797Y0240648D02*
X0764797Y0238221D01*
X0764797Y0240041D02*
X0767224Y0240041D01*
X0767224Y0240648D02*
X0766011Y0241861D01*
X0764797Y0240648D01*
X0767224Y0240648D02*
X0767224Y0238221D01*
X0769029Y0238221D02*
X0769029Y0241861D01*
X0770849Y0240041D01*
X0768422Y0240041D01*
X0769029Y0244126D02*
X0769029Y0247766D01*
X0770849Y0245946D01*
X0768422Y0245946D01*
X0764201Y0250032D02*
X0762987Y0250032D01*
X0762381Y0250639D01*
X0761182Y0250032D02*
X0758755Y0252459D01*
X0758755Y0253065D01*
X0759362Y0253672D01*
X0760576Y0253672D01*
X0761182Y0253065D01*
X0762381Y0253065D02*
X0762987Y0253672D01*
X0764201Y0253672D01*
X0764807Y0253065D01*
X0764807Y0250639D01*
X0764201Y0250032D01*
X0761182Y0250032D02*
X0758755Y0250032D01*
X0757557Y0250639D02*
X0756950Y0250032D01*
X0755737Y0250032D01*
X0755130Y0250639D01*
X0755130Y0251852D01*
X0755737Y0252459D01*
X0756344Y0252459D01*
X0757557Y0251852D01*
X0757557Y0253672D01*
X0755130Y0253672D01*
X0750307Y0251852D02*
X0747880Y0251852D01*
X0743057Y0250639D02*
X0743057Y0250032D01*
X0743057Y0250639D02*
X0740630Y0253065D01*
X0740630Y0253672D01*
X0743057Y0253672D01*
X0739431Y0251852D02*
X0737005Y0251852D01*
X0737611Y0253672D02*
X0739431Y0251852D01*
X0737611Y0250032D02*
X0737611Y0253672D01*
X0735806Y0253672D02*
X0735806Y0250032D01*
X0733380Y0250032D01*
X0732181Y0250639D02*
X0731574Y0250032D01*
X0730361Y0250032D01*
X0729754Y0250639D01*
X0729754Y0251245D01*
X0730361Y0251852D01*
X0731574Y0251852D01*
X0732181Y0252459D01*
X0732181Y0253065D01*
X0731574Y0253672D01*
X0730361Y0253672D01*
X0729754Y0253065D01*
X0728556Y0253065D02*
X0727949Y0253672D01*
X0726736Y0253672D01*
X0726129Y0253065D01*
X0726129Y0252459D01*
X0728556Y0250032D01*
X0726129Y0250032D01*
X0724931Y0250639D02*
X0724324Y0250032D01*
X0723111Y0250032D01*
X0722504Y0250639D01*
X0722504Y0251852D01*
X0723111Y0252459D01*
X0723717Y0252459D01*
X0724931Y0251852D01*
X0724931Y0253672D01*
X0722504Y0253672D01*
X0721306Y0253672D02*
X0718879Y0253672D01*
X0718879Y0253065D01*
X0721306Y0250639D01*
X0721306Y0250032D01*
X0733380Y0267748D02*
X0735806Y0267748D01*
X0733380Y0270175D01*
X0733389Y0279559D02*
X0733389Y0281986D01*
X0732176Y0283200D01*
X0730963Y0281986D01*
X0730963Y0279559D01*
X0729764Y0279559D02*
X0728551Y0280773D01*
X0728551Y0281986D01*
X0729764Y0283200D01*
X0730963Y0281380D02*
X0733389Y0281380D01*
X0734588Y0280773D02*
X0734588Y0280166D01*
X0735195Y0279559D01*
X0736408Y0279559D01*
X0737015Y0280166D01*
X0738213Y0280166D02*
X0738213Y0283200D01*
X0737015Y0282593D02*
X0736408Y0283200D01*
X0735195Y0283200D01*
X0734588Y0282593D01*
X0735195Y0281380D02*
X0734588Y0280773D01*
X0735195Y0281380D02*
X0736408Y0281380D01*
X0737015Y0281986D01*
X0737015Y0282593D01*
X0738213Y0280166D02*
X0738820Y0279559D01*
X0740033Y0279559D01*
X0740640Y0280166D01*
X0740640Y0283200D01*
X0741838Y0283200D02*
X0744265Y0279559D01*
X0745463Y0280166D02*
X0745463Y0283200D01*
X0747890Y0283200D02*
X0747890Y0280166D01*
X0747283Y0279559D01*
X0746070Y0279559D01*
X0745463Y0280166D01*
X0749088Y0279559D02*
X0751515Y0279559D01*
X0751515Y0283200D01*
X0749088Y0283200D01*
X0750302Y0281380D02*
X0751515Y0281380D01*
X0752719Y0283200D02*
X0753932Y0281986D01*
X0753932Y0280773D01*
X0752719Y0279559D01*
X0758755Y0280166D02*
X0759362Y0280773D01*
X0760576Y0280773D01*
X0761182Y0281380D01*
X0760576Y0281986D01*
X0758755Y0281986D01*
X0758755Y0280166D02*
X0759362Y0279559D01*
X0761182Y0279559D01*
X0762386Y0279559D02*
X0762992Y0280166D01*
X0762992Y0282593D01*
X0762386Y0281986D02*
X0763599Y0281986D01*
X0764797Y0281380D02*
X0764797Y0279559D01*
X0764797Y0281380D02*
X0765404Y0281986D01*
X0767224Y0281986D01*
X0767224Y0279559D01*
X0768422Y0280773D02*
X0770849Y0280773D01*
X0770849Y0281380D02*
X0770243Y0281986D01*
X0769029Y0281986D01*
X0768422Y0281380D01*
X0768422Y0280773D01*
X0769029Y0279559D02*
X0770243Y0279559D01*
X0770849Y0280166D01*
X0770849Y0281380D01*
X0772048Y0281380D02*
X0772048Y0279559D01*
X0772048Y0281380D02*
X0772654Y0281986D01*
X0774474Y0281986D01*
X0774474Y0279559D01*
X0775673Y0280166D02*
X0775673Y0281380D01*
X0776279Y0281986D01*
X0777493Y0281986D01*
X0778099Y0281380D01*
X0778099Y0280166D01*
X0777493Y0279559D01*
X0776279Y0279559D01*
X0775673Y0280166D01*
X0779298Y0280166D02*
X0779905Y0279559D01*
X0781725Y0279559D01*
X0782923Y0279559D02*
X0782923Y0281380D01*
X0783530Y0281986D01*
X0784136Y0281380D01*
X0784136Y0279559D01*
X0785350Y0279559D02*
X0785350Y0281986D01*
X0784743Y0281986D01*
X0784136Y0281380D01*
X0786548Y0281380D02*
X0787155Y0281986D01*
X0788368Y0281986D01*
X0788975Y0281380D01*
X0788975Y0280166D01*
X0788368Y0279559D01*
X0787155Y0279559D01*
X0786548Y0280166D01*
X0786548Y0281380D01*
X0790173Y0281986D02*
X0791993Y0281986D01*
X0792600Y0281380D01*
X0792600Y0280166D01*
X0791993Y0279559D01*
X0790173Y0279559D01*
X0797429Y0281380D02*
X0798642Y0281380D01*
X0799840Y0281380D02*
X0800447Y0281986D01*
X0801660Y0281986D01*
X0802267Y0281380D01*
X0802267Y0280166D01*
X0801660Y0279559D01*
X0800447Y0279559D01*
X0799840Y0280166D01*
X0799840Y0281380D01*
X0798035Y0282593D02*
X0797429Y0283200D01*
X0798035Y0282593D02*
X0798035Y0279559D01*
X0807096Y0279559D02*
X0807702Y0280166D01*
X0807702Y0282593D01*
X0807096Y0281986D02*
X0808309Y0281986D01*
X0809507Y0281986D02*
X0811327Y0281986D01*
X0811934Y0281380D01*
X0811327Y0280773D01*
X0810114Y0280773D01*
X0809507Y0280166D01*
X0810114Y0279559D01*
X0811934Y0279559D01*
X0813137Y0279559D02*
X0814351Y0279559D01*
X0813744Y0279559D02*
X0813744Y0281986D01*
X0814351Y0281986D01*
X0813744Y0283200D02*
X0813744Y0283806D01*
X0817976Y0283200D02*
X0817976Y0279559D01*
X0815549Y0279559D01*
X0807702Y0268355D02*
X0807702Y0267748D01*
X0807096Y0267748D01*
X0807096Y0268355D01*
X0807702Y0268355D01*
X0807096Y0267748D02*
X0808309Y0266535D01*
X0809507Y0265483D02*
X0811934Y0265483D01*
X0811934Y0263663D01*
X0810721Y0264270D01*
X0810114Y0264270D01*
X0809507Y0263663D01*
X0809507Y0262450D01*
X0810114Y0261843D01*
X0811327Y0261843D01*
X0811934Y0262450D01*
X0813132Y0262450D02*
X0813739Y0261843D01*
X0814953Y0261843D01*
X0815559Y0262450D01*
X0815559Y0264876D01*
X0814953Y0265483D01*
X0813739Y0265483D01*
X0813132Y0264876D01*
X0813739Y0259578D02*
X0814953Y0259578D01*
X0815559Y0258971D01*
X0815559Y0256544D01*
X0814953Y0255937D01*
X0813739Y0255937D01*
X0813132Y0256544D01*
X0811934Y0256544D02*
X0811934Y0255937D01*
X0811934Y0256544D02*
X0809507Y0258971D01*
X0809507Y0259578D01*
X0811934Y0259578D01*
X0813132Y0258971D02*
X0813739Y0259578D01*
X0808309Y0260630D02*
X0807096Y0261843D01*
X0807702Y0261843D01*
X0807702Y0262450D01*
X0807096Y0262450D01*
X0807096Y0261843D01*
X0804684Y0257757D02*
X0802257Y0257757D01*
X0802267Y0253672D02*
X0801054Y0253672D01*
X0801660Y0253672D02*
X0801660Y0250032D01*
X0801054Y0250032D02*
X0802267Y0250032D01*
X0798642Y0247766D02*
X0797429Y0247766D01*
X0798035Y0247766D02*
X0798035Y0244126D01*
X0797429Y0244126D02*
X0798642Y0244126D01*
X0803470Y0244126D02*
X0804684Y0242913D01*
X0804077Y0244126D02*
X0803470Y0244126D01*
X0803470Y0244733D01*
X0804077Y0244733D01*
X0804077Y0244126D01*
X0805882Y0244126D02*
X0808309Y0244126D01*
X0809507Y0244126D02*
X0811934Y0244126D01*
X0810721Y0244126D02*
X0810721Y0247766D01*
X0811934Y0246553D01*
X0813132Y0247160D02*
X0813739Y0247766D01*
X0814953Y0247766D01*
X0815559Y0247160D01*
X0815559Y0244733D01*
X0814953Y0244126D01*
X0813739Y0244126D01*
X0813132Y0244733D01*
X0813739Y0241861D02*
X0814953Y0241861D01*
X0815559Y0241254D01*
X0815559Y0238828D01*
X0814953Y0238221D01*
X0813739Y0238221D01*
X0813132Y0238828D01*
X0811934Y0240648D02*
X0810721Y0241861D01*
X0813132Y0241254D02*
X0813739Y0241861D01*
X0807096Y0244126D02*
X0807096Y0247766D01*
X0808309Y0246553D01*
X0808309Y0248819D02*
X0807096Y0250032D01*
X0807702Y0250032D01*
X0807702Y0250639D01*
X0807096Y0250639D01*
X0807096Y0250032D01*
X0809507Y0250639D02*
X0810114Y0250032D01*
X0811327Y0250032D01*
X0811934Y0250639D01*
X0811934Y0251245D01*
X0811327Y0251852D01*
X0810114Y0251852D01*
X0809507Y0251245D01*
X0809507Y0250639D01*
X0810114Y0251852D02*
X0809507Y0252459D01*
X0809507Y0253065D01*
X0810114Y0253672D01*
X0811327Y0253672D01*
X0811934Y0253065D01*
X0811934Y0252459D01*
X0811327Y0251852D01*
X0813132Y0253065D02*
X0813739Y0253672D01*
X0814953Y0253672D01*
X0815559Y0253065D01*
X0815559Y0250639D01*
X0814953Y0250032D01*
X0813739Y0250032D01*
X0813132Y0250639D01*
X0798030Y0253672D02*
X0797424Y0253065D01*
X0795007Y0258971D02*
X0795007Y0259578D01*
X0797434Y0259578D01*
X0798030Y0261843D02*
X0797424Y0262450D01*
X0798030Y0261843D02*
X0799244Y0261843D01*
X0799850Y0262450D01*
X0799850Y0264876D01*
X0799244Y0265483D01*
X0798030Y0265483D01*
X0797424Y0264876D01*
X0796225Y0263663D02*
X0794405Y0263663D01*
X0793798Y0263056D01*
X0793798Y0262450D01*
X0794405Y0261843D01*
X0795618Y0261843D01*
X0796225Y0262450D01*
X0796225Y0263663D01*
X0795012Y0264876D01*
X0793798Y0265483D01*
X0792600Y0266535D02*
X0791387Y0267748D01*
X0791993Y0267748D01*
X0791993Y0268355D01*
X0791387Y0268355D01*
X0791387Y0267748D01*
X0793798Y0267748D02*
X0796225Y0267748D01*
X0793798Y0270175D01*
X0793798Y0270782D01*
X0794405Y0271389D01*
X0795618Y0271389D01*
X0796225Y0270782D01*
X0797424Y0270782D02*
X0798030Y0271389D01*
X0799244Y0271389D01*
X0799850Y0270782D01*
X0799850Y0268355D01*
X0799244Y0267748D01*
X0798030Y0267748D01*
X0797424Y0268355D01*
X0801054Y0267748D02*
X0802267Y0267748D01*
X0801660Y0267748D02*
X0801660Y0271389D01*
X0801054Y0271389D02*
X0802267Y0271389D01*
X0802267Y0265483D02*
X0801054Y0265483D01*
X0801660Y0265483D02*
X0801660Y0261843D01*
X0801054Y0261843D02*
X0802267Y0261843D01*
X0788975Y0263663D02*
X0786548Y0263663D01*
X0786558Y0267748D02*
X0785345Y0267748D01*
X0785951Y0267748D02*
X0785951Y0271389D01*
X0785345Y0271389D02*
X0786558Y0271389D01*
X0781725Y0265483D02*
X0779298Y0265483D01*
X0770849Y0267748D02*
X0769636Y0267748D01*
X0770243Y0267748D02*
X0770243Y0271389D01*
X0770849Y0271389D02*
X0769636Y0271389D01*
X0768432Y0270782D02*
X0768432Y0268355D01*
X0767826Y0267748D01*
X0766612Y0267748D01*
X0766006Y0268355D01*
X0764807Y0269568D02*
X0762381Y0269568D01*
X0762987Y0267748D02*
X0762987Y0271389D01*
X0764807Y0269568D01*
X0766006Y0270782D02*
X0766612Y0271389D01*
X0767826Y0271389D01*
X0768432Y0270782D01*
X0759974Y0264876D02*
X0759367Y0265483D01*
X0758154Y0265483D01*
X0758154Y0263663D02*
X0758760Y0263663D01*
X0779298Y0280166D02*
X0779298Y0281380D01*
X0779905Y0281986D01*
X0781725Y0281986D01*
X0781725Y0278346D01*
X0781725Y0245946D02*
X0779298Y0245946D01*
X0779298Y0240041D02*
X0781725Y0240041D01*
X0786548Y0240041D02*
X0788975Y0240041D01*
X0787155Y0241861D01*
X0787155Y0238221D01*
X0784738Y0235955D02*
X0786558Y0234135D01*
X0784738Y0232315D02*
X0784738Y0235955D01*
X0786558Y0230050D02*
X0786558Y0226410D01*
X0784131Y0226410D01*
X0782933Y0227017D02*
X0782326Y0226410D01*
X0781113Y0226410D01*
X0780506Y0227017D01*
X0780506Y0227623D01*
X0781113Y0228230D01*
X0782326Y0228230D01*
X0782933Y0228837D01*
X0782933Y0229443D01*
X0782326Y0230050D01*
X0781113Y0230050D01*
X0780506Y0229443D01*
X0779308Y0228837D02*
X0778095Y0230050D01*
X0778095Y0226410D01*
X0779308Y0226410D02*
X0776881Y0226410D01*
X0775683Y0228230D02*
X0773256Y0228230D01*
X0773863Y0230050D02*
X0775683Y0228230D01*
X0773863Y0226410D02*
X0773863Y0230050D01*
X0773863Y0224144D02*
X0775076Y0224144D01*
X0775683Y0223538D01*
X0775683Y0222931D01*
X0775076Y0222324D01*
X0773256Y0222324D01*
X0772058Y0222324D02*
X0770844Y0222931D01*
X0770238Y0222931D01*
X0769631Y0222324D01*
X0769631Y0221111D01*
X0770238Y0220504D01*
X0771451Y0220504D01*
X0772058Y0221111D01*
X0773256Y0221111D02*
X0773256Y0223538D01*
X0773863Y0224144D01*
X0772058Y0224144D02*
X0772058Y0222324D01*
X0773256Y0221111D02*
X0773863Y0220504D01*
X0775076Y0220504D01*
X0775683Y0221111D01*
X0776881Y0220504D02*
X0779308Y0220504D01*
X0776881Y0222931D01*
X0776881Y0223538D01*
X0777488Y0224144D01*
X0778701Y0224144D01*
X0779308Y0223538D01*
X0780506Y0223538D02*
X0781113Y0224144D01*
X0782326Y0224144D01*
X0782933Y0223538D01*
X0782933Y0222931D01*
X0782326Y0222324D01*
X0781113Y0222324D01*
X0780506Y0221718D01*
X0780506Y0221111D01*
X0781113Y0220504D01*
X0782326Y0220504D01*
X0782933Y0221111D01*
X0784131Y0220504D02*
X0786558Y0220504D01*
X0786558Y0224144D01*
X0788363Y0224144D02*
X0790183Y0222324D01*
X0787757Y0222324D01*
X0788363Y0220504D02*
X0788363Y0224144D01*
X0788363Y0226410D02*
X0788363Y0230050D01*
X0790183Y0228230D01*
X0787757Y0228230D01*
X0791382Y0224144D02*
X0791382Y0223538D01*
X0793808Y0221111D01*
X0793808Y0220504D01*
X0793808Y0218239D02*
X0791382Y0218239D01*
X0791382Y0217632D01*
X0793808Y0215205D01*
X0793808Y0214599D01*
X0793808Y0212333D02*
X0791382Y0212333D01*
X0791382Y0211727D01*
X0793808Y0209300D01*
X0793808Y0208693D01*
X0793808Y0206428D02*
X0791382Y0206428D01*
X0791382Y0205821D01*
X0793808Y0203394D01*
X0793808Y0202788D01*
X0793202Y0200522D02*
X0791988Y0200522D01*
X0791382Y0199916D01*
X0791382Y0199309D01*
X0791988Y0198702D01*
X0793202Y0198702D01*
X0793808Y0199309D01*
X0793808Y0199916D01*
X0793202Y0200522D01*
X0793202Y0198702D02*
X0793808Y0198096D01*
X0793808Y0197489D01*
X0793202Y0196882D01*
X0791988Y0196882D01*
X0791382Y0197489D01*
X0791382Y0198096D01*
X0791988Y0198702D01*
X0790183Y0199916D02*
X0789577Y0200522D01*
X0788363Y0200522D01*
X0787757Y0199916D01*
X0787757Y0199309D01*
X0790183Y0196882D01*
X0787757Y0196882D01*
X0786558Y0197489D02*
X0785951Y0196882D01*
X0784738Y0196882D01*
X0784131Y0197489D01*
X0784131Y0198096D01*
X0784738Y0198702D01*
X0785951Y0198702D01*
X0786558Y0199309D01*
X0786558Y0199916D01*
X0785951Y0200522D01*
X0784738Y0200522D01*
X0784131Y0199916D01*
X0782933Y0199309D02*
X0781720Y0200522D01*
X0781720Y0196882D01*
X0782933Y0196882D02*
X0780506Y0196882D01*
X0779308Y0197489D02*
X0778701Y0196882D01*
X0777488Y0196882D01*
X0776881Y0197489D01*
X0776881Y0198096D01*
X0777488Y0198702D01*
X0778095Y0198702D01*
X0777488Y0198702D02*
X0776881Y0199309D01*
X0776881Y0199916D01*
X0777488Y0200522D01*
X0778701Y0200522D01*
X0779308Y0199916D01*
X0778701Y0202788D02*
X0779308Y0203394D01*
X0776881Y0205821D01*
X0776881Y0203394D01*
X0777488Y0202788D01*
X0778701Y0202788D01*
X0779308Y0203394D02*
X0779308Y0205821D01*
X0778701Y0206428D01*
X0777488Y0206428D01*
X0776881Y0205821D01*
X0775683Y0205821D02*
X0775683Y0205215D01*
X0775076Y0204608D01*
X0773863Y0204608D01*
X0773256Y0204001D01*
X0773256Y0203394D01*
X0773863Y0202788D01*
X0775076Y0202788D01*
X0775683Y0203394D01*
X0775683Y0204001D01*
X0775076Y0204608D01*
X0773863Y0204608D02*
X0773256Y0205215D01*
X0773256Y0205821D01*
X0773863Y0206428D01*
X0775076Y0206428D01*
X0775683Y0205821D01*
X0775076Y0208693D02*
X0775683Y0209300D01*
X0773256Y0211727D01*
X0773256Y0209300D01*
X0773863Y0208693D01*
X0775076Y0208693D01*
X0775683Y0209300D02*
X0775683Y0211727D01*
X0775076Y0212333D01*
X0773863Y0212333D01*
X0773256Y0211727D01*
X0773256Y0214599D02*
X0775683Y0214599D01*
X0773256Y0217026D01*
X0773256Y0217632D01*
X0773863Y0218239D01*
X0775076Y0218239D01*
X0775683Y0217632D01*
X0776881Y0217632D02*
X0779308Y0215205D01*
X0778701Y0214599D01*
X0777488Y0214599D01*
X0776881Y0215205D01*
X0776881Y0217632D01*
X0777488Y0218239D01*
X0778701Y0218239D01*
X0779308Y0217632D01*
X0779308Y0215205D01*
X0780506Y0215205D02*
X0781113Y0214599D01*
X0782326Y0214599D01*
X0782933Y0215205D01*
X0784131Y0214599D02*
X0786558Y0214599D01*
X0786558Y0218239D01*
X0788363Y0218239D02*
X0790183Y0216419D01*
X0787757Y0216419D01*
X0788363Y0214599D02*
X0788363Y0218239D01*
X0782933Y0217632D02*
X0782933Y0217026D01*
X0782326Y0216419D01*
X0781113Y0216419D01*
X0780506Y0215812D01*
X0780506Y0215205D01*
X0780506Y0217632D02*
X0781113Y0218239D01*
X0782326Y0218239D01*
X0782933Y0217632D01*
X0782326Y0212333D02*
X0782933Y0211727D01*
X0782933Y0211120D01*
X0782326Y0210513D01*
X0781113Y0210513D01*
X0780506Y0209907D01*
X0780506Y0209300D01*
X0781113Y0208693D01*
X0782326Y0208693D01*
X0782933Y0209300D01*
X0784131Y0208693D02*
X0786558Y0208693D01*
X0786558Y0212333D01*
X0788363Y0212333D02*
X0790183Y0210513D01*
X0787757Y0210513D01*
X0788363Y0208693D02*
X0788363Y0212333D01*
X0788363Y0206428D02*
X0790183Y0204608D01*
X0787757Y0204608D01*
X0788363Y0202788D02*
X0788363Y0206428D01*
X0786558Y0206428D02*
X0786558Y0202788D01*
X0784131Y0202788D01*
X0782933Y0203394D02*
X0782326Y0202788D01*
X0781113Y0202788D01*
X0780506Y0203394D01*
X0780506Y0204001D01*
X0781113Y0204608D01*
X0782326Y0204608D01*
X0782933Y0205215D01*
X0782933Y0205821D01*
X0782326Y0206428D01*
X0781113Y0206428D01*
X0780506Y0205821D01*
X0778701Y0208693D02*
X0779308Y0209300D01*
X0776881Y0211727D01*
X0776881Y0209300D01*
X0777488Y0208693D01*
X0778701Y0208693D01*
X0779308Y0209300D02*
X0779308Y0211727D01*
X0778701Y0212333D01*
X0777488Y0212333D01*
X0776881Y0211727D01*
X0780506Y0211727D02*
X0781113Y0212333D01*
X0782326Y0212333D01*
X0798632Y0210513D02*
X0801059Y0210513D01*
X0805882Y0210513D02*
X0807702Y0210513D01*
X0808309Y0211120D01*
X0808309Y0211727D01*
X0807702Y0212333D01*
X0806489Y0212333D01*
X0805882Y0211727D01*
X0805882Y0209300D01*
X0806489Y0208693D01*
X0807702Y0208693D01*
X0808309Y0209300D01*
X0809507Y0208693D02*
X0811934Y0208693D01*
X0810721Y0208693D02*
X0810721Y0212333D01*
X0811934Y0211120D01*
X0813132Y0211727D02*
X0813739Y0212333D01*
X0814953Y0212333D01*
X0815559Y0211727D01*
X0815559Y0209300D01*
X0814953Y0208693D01*
X0813739Y0208693D01*
X0813132Y0209300D01*
X0813739Y0206428D02*
X0814953Y0206428D01*
X0815559Y0205821D01*
X0815559Y0203394D01*
X0814953Y0202788D01*
X0813739Y0202788D01*
X0813132Y0203394D01*
X0811934Y0202788D02*
X0809507Y0205215D01*
X0809507Y0205821D01*
X0810114Y0206428D01*
X0811327Y0206428D01*
X0811934Y0205821D01*
X0813132Y0205821D02*
X0813739Y0206428D01*
X0811934Y0202788D02*
X0809507Y0202788D01*
X0808309Y0203394D02*
X0805882Y0205821D01*
X0805882Y0203394D01*
X0806489Y0202788D01*
X0807702Y0202788D01*
X0808309Y0203394D01*
X0808309Y0205821D01*
X0807702Y0206428D01*
X0806489Y0206428D01*
X0805882Y0205821D01*
X0801059Y0204608D02*
X0798632Y0204608D01*
X0798632Y0198702D02*
X0801059Y0198702D01*
X0798642Y0194617D02*
X0797429Y0194617D01*
X0798035Y0194617D02*
X0798035Y0190977D01*
X0797429Y0190977D02*
X0798642Y0190977D01*
X0796225Y0191583D02*
X0795618Y0190977D01*
X0794405Y0190977D01*
X0793798Y0191583D01*
X0792600Y0190977D02*
X0790173Y0193404D01*
X0790173Y0194010D01*
X0790780Y0194617D01*
X0791993Y0194617D01*
X0792600Y0194010D01*
X0793798Y0194010D02*
X0794405Y0194617D01*
X0795618Y0194617D01*
X0796225Y0194010D01*
X0796225Y0191583D01*
X0792600Y0190977D02*
X0790173Y0190977D01*
X0788975Y0192797D02*
X0786548Y0192797D01*
X0787155Y0194617D02*
X0788975Y0192797D01*
X0787155Y0190977D02*
X0787155Y0194617D01*
X0781725Y0192797D02*
X0779298Y0192797D01*
X0778701Y0188711D02*
X0779308Y0188105D01*
X0779308Y0187498D01*
X0778701Y0186891D01*
X0777488Y0186891D01*
X0776881Y0186285D01*
X0776881Y0185678D01*
X0776881Y0188105D02*
X0777488Y0188711D01*
X0778701Y0188711D01*
X0774474Y0190977D02*
X0774474Y0191583D01*
X0772048Y0194010D01*
X0772048Y0194617D01*
X0774474Y0194617D01*
X0775683Y0196882D02*
X0775683Y0197489D01*
X0773256Y0199916D01*
X0773256Y0200522D01*
X0775683Y0200522D01*
X0769029Y0194617D02*
X0770849Y0192797D01*
X0768422Y0192797D01*
X0767224Y0193404D02*
X0766617Y0192797D01*
X0765404Y0192797D01*
X0764797Y0192190D01*
X0764797Y0191583D01*
X0765404Y0190977D01*
X0766617Y0190977D01*
X0767224Y0191583D01*
X0767224Y0193404D02*
X0767224Y0194010D01*
X0766617Y0194617D01*
X0765404Y0194617D01*
X0764797Y0194010D01*
X0763599Y0193404D02*
X0762386Y0194617D01*
X0762386Y0190977D01*
X0763599Y0190977D02*
X0761172Y0190977D01*
X0759974Y0191583D02*
X0759974Y0192190D01*
X0759367Y0192797D01*
X0758154Y0192797D01*
X0757547Y0192190D01*
X0757547Y0191583D01*
X0758154Y0190977D01*
X0759367Y0190977D01*
X0759974Y0191583D01*
X0759367Y0192797D02*
X0759974Y0193404D01*
X0759974Y0194010D01*
X0759367Y0194617D01*
X0758154Y0194617D01*
X0757547Y0194010D01*
X0757547Y0193404D01*
X0758154Y0192797D01*
X0756349Y0193404D02*
X0755742Y0192797D01*
X0753922Y0192797D01*
X0753922Y0194010D02*
X0754529Y0194617D01*
X0755742Y0194617D01*
X0756349Y0194010D01*
X0756349Y0193404D01*
X0756349Y0191583D02*
X0755742Y0190977D01*
X0754529Y0190977D01*
X0753922Y0191583D01*
X0753922Y0194010D01*
X0769029Y0194617D02*
X0769029Y0190977D01*
X0772053Y0182806D02*
X0772053Y0179166D01*
X0773266Y0179166D02*
X0770839Y0179166D01*
X0773266Y0181592D02*
X0772053Y0182806D01*
X0775071Y0182806D02*
X0776891Y0180986D01*
X0774464Y0180986D01*
X0775071Y0179166D02*
X0775071Y0182806D01*
X0781715Y0180986D02*
X0784141Y0180986D01*
X0791382Y0188105D02*
X0791382Y0188711D01*
X0793808Y0188711D01*
X0798632Y0186891D02*
X0801059Y0186891D01*
X0804684Y0189763D02*
X0803470Y0190977D01*
X0804077Y0190977D01*
X0804077Y0191583D01*
X0803470Y0191583D01*
X0803470Y0190977D01*
X0805882Y0190977D02*
X0808309Y0190977D01*
X0805882Y0193404D01*
X0805882Y0194010D01*
X0806489Y0194617D01*
X0807702Y0194617D01*
X0808309Y0194010D01*
X0809507Y0194010D02*
X0810114Y0194617D01*
X0811327Y0194617D01*
X0811934Y0194010D01*
X0813132Y0194010D02*
X0813739Y0194617D01*
X0814953Y0194617D01*
X0815559Y0194010D01*
X0815559Y0191583D01*
X0814953Y0190977D01*
X0813739Y0190977D01*
X0813132Y0191583D01*
X0811934Y0190977D02*
X0809507Y0193404D01*
X0809507Y0194010D01*
X0809507Y0196882D02*
X0811934Y0196882D01*
X0809507Y0199309D01*
X0809507Y0199916D01*
X0810114Y0200522D01*
X0811327Y0200522D01*
X0811934Y0199916D01*
X0813132Y0199916D02*
X0813739Y0200522D01*
X0814953Y0200522D01*
X0815559Y0199916D01*
X0815559Y0197489D01*
X0814953Y0196882D01*
X0813739Y0196882D01*
X0813132Y0197489D01*
X0808309Y0196882D02*
X0805882Y0196882D01*
X0807096Y0196882D02*
X0807096Y0200522D01*
X0808309Y0199309D01*
X0809507Y0190977D02*
X0811934Y0190977D01*
X0811327Y0188711D02*
X0811934Y0188105D01*
X0811327Y0188711D02*
X0810114Y0188711D01*
X0809507Y0188105D01*
X0809507Y0187498D01*
X0811934Y0185071D01*
X0809507Y0185071D01*
X0808309Y0185678D02*
X0807702Y0185071D01*
X0806489Y0185071D01*
X0805882Y0185678D01*
X0805882Y0186285D01*
X0806489Y0186891D01*
X0807096Y0186891D01*
X0806489Y0186891D02*
X0805882Y0187498D01*
X0805882Y0188105D01*
X0806489Y0188711D01*
X0807702Y0188711D01*
X0808309Y0188105D01*
X0813132Y0188105D02*
X0813739Y0188711D01*
X0814953Y0188711D01*
X0815559Y0188105D01*
X0815559Y0185678D01*
X0814953Y0185071D01*
X0813739Y0185071D01*
X0813132Y0185678D01*
X0813739Y0214599D02*
X0813132Y0215205D01*
X0813739Y0214599D02*
X0814953Y0214599D01*
X0815559Y0215205D01*
X0815559Y0217632D01*
X0814953Y0218239D01*
X0813739Y0218239D01*
X0813132Y0217632D01*
X0811934Y0217026D02*
X0810721Y0218239D01*
X0810721Y0214599D01*
X0811934Y0214599D02*
X0809507Y0214599D01*
X0808309Y0215205D02*
X0808309Y0215812D01*
X0807702Y0216419D01*
X0806489Y0216419D01*
X0805882Y0215812D01*
X0805882Y0215205D01*
X0806489Y0214599D01*
X0807702Y0214599D01*
X0808309Y0215205D01*
X0807702Y0216419D02*
X0808309Y0217026D01*
X0808309Y0217632D01*
X0807702Y0218239D01*
X0806489Y0218239D01*
X0805882Y0217632D01*
X0805882Y0217026D01*
X0806489Y0216419D01*
X0806489Y0220504D02*
X0805882Y0221111D01*
X0805882Y0221718D01*
X0806489Y0222324D01*
X0808309Y0222324D01*
X0808309Y0221111D01*
X0807702Y0220504D01*
X0806489Y0220504D01*
X0808309Y0222324D02*
X0807096Y0223538D01*
X0805882Y0224144D01*
X0810721Y0224144D02*
X0810721Y0220504D01*
X0811934Y0220504D02*
X0809507Y0220504D01*
X0811934Y0222931D02*
X0810721Y0224144D01*
X0813132Y0223538D02*
X0813739Y0224144D01*
X0814953Y0224144D01*
X0815559Y0223538D01*
X0815559Y0221111D01*
X0814953Y0220504D01*
X0813739Y0220504D01*
X0813132Y0221111D01*
X0801059Y0222324D02*
X0798632Y0222324D01*
X0793808Y0224144D02*
X0791382Y0224144D01*
X0798632Y0216419D02*
X0801059Y0216419D01*
X0793202Y0232315D02*
X0793808Y0232922D01*
X0772058Y0224144D02*
X0769631Y0224144D01*
X0749098Y0240041D02*
X0746672Y0240041D01*
X0747278Y0241861D02*
X0749098Y0240041D01*
X0747278Y0238221D02*
X0747278Y0241861D01*
D13*
X0739878Y0154606D03*
X0739878Y0154409D03*
X0739878Y0154213D03*
X0739878Y0154016D03*
X0739878Y0153819D03*
X0739878Y0153622D03*
X0739878Y0153425D03*
X0739878Y0153228D03*
X0739878Y0153031D03*
X0739878Y0152835D03*
X0739878Y0152638D03*
X0739878Y0152441D03*
X0739878Y0152244D03*
X0739878Y0152047D03*
X0739878Y0151850D03*
X0739878Y0151654D03*
X0739878Y0151457D03*
X0739878Y0151260D03*
X0739878Y0151063D03*
X0739878Y0150866D03*
X0739878Y0150669D03*
X0739878Y0150472D03*
X0739878Y0150276D03*
X0739878Y0150079D03*
X0739878Y0149882D03*
X0739878Y0149685D03*
X0739878Y0149488D03*
X0739878Y0149291D03*
X0739878Y0149094D03*
X0739878Y0148898D03*
X0739878Y0148701D03*
X0739878Y0148504D03*
X0739878Y0148307D03*
X0739878Y0148110D03*
X0739878Y0147913D03*
X0739878Y0147717D03*
X0739878Y0147520D03*
X0739878Y0147323D03*
X0739878Y0147126D03*
X0739878Y0146929D03*
X0739878Y0146732D03*
X0739878Y0146535D03*
X0739878Y0146339D03*
X0739878Y0146142D03*
X0739878Y0145945D03*
X0739878Y0145748D03*
X0739878Y0145551D03*
X0739878Y0145354D03*
X0739878Y0145157D03*
X0739878Y0144961D03*
X0739878Y0131772D03*
X0739878Y0131575D03*
X0739878Y0131378D03*
X0739878Y0131181D03*
X0739878Y0130984D03*
X0739878Y0130787D03*
X0739878Y0130591D03*
X0739878Y0130394D03*
X0739878Y0130197D03*
X0739878Y0130000D03*
X0739878Y0129803D03*
X0739878Y0129606D03*
X0739878Y0129409D03*
X0739878Y0129213D03*
X0739878Y0129016D03*
X0739878Y0128819D03*
X0739878Y0128622D03*
X0739878Y0128425D03*
X0739878Y0128228D03*
X0739878Y0128031D03*
X0739878Y0127835D03*
X0739878Y0127638D03*
X0739878Y0127441D03*
X0739878Y0127244D03*
X0739878Y0127047D03*
X0739878Y0126850D03*
X0739878Y0126654D03*
X0739878Y0126457D03*
X0739878Y0126260D03*
X0739878Y0126063D03*
X0739878Y0125866D03*
X0739878Y0125669D03*
X0739878Y0125472D03*
X0739878Y0125276D03*
X0739878Y0125079D03*
X0739878Y0124882D03*
X0739878Y0124685D03*
X0739878Y0124488D03*
X0739878Y0124291D03*
X0739878Y0124094D03*
X0739878Y0123898D03*
X0739878Y0123701D03*
X0739878Y0123504D03*
X0739878Y0123307D03*
X0739878Y0123110D03*
X0739878Y0122913D03*
X0712319Y0122913D03*
X0712319Y0123110D03*
X0712319Y0123307D03*
X0712319Y0123504D03*
X0712319Y0123701D03*
X0712319Y0123898D03*
X0712319Y0124094D03*
X0712319Y0124291D03*
X0712319Y0124488D03*
X0712319Y0124685D03*
X0712319Y0124882D03*
X0712319Y0125079D03*
X0712319Y0125276D03*
X0712319Y0125472D03*
X0712319Y0125669D03*
X0712319Y0125866D03*
X0712319Y0126063D03*
X0712319Y0126260D03*
X0712319Y0126457D03*
X0712319Y0126654D03*
X0712319Y0126850D03*
X0712319Y0127047D03*
X0712319Y0127244D03*
X0712319Y0127441D03*
X0712319Y0127638D03*
X0712319Y0127835D03*
X0712319Y0128031D03*
X0712319Y0128228D03*
X0712319Y0128425D03*
X0712319Y0128622D03*
X0712319Y0128819D03*
X0712319Y0129016D03*
X0712319Y0129213D03*
X0712319Y0129409D03*
X0712319Y0129606D03*
X0712319Y0129803D03*
X0712319Y0130000D03*
X0712319Y0130197D03*
X0712319Y0130394D03*
X0712319Y0130591D03*
X0712319Y0130787D03*
X0712319Y0130984D03*
X0712319Y0131181D03*
X0712319Y0131378D03*
X0712319Y0131575D03*
X0712319Y0131772D03*
X0712319Y0131969D03*
X0712319Y0132165D03*
X0712319Y0132362D03*
X0712319Y0132559D03*
X0712319Y0132756D03*
X0712319Y0132953D03*
X0712319Y0133150D03*
X0712319Y0133346D03*
X0712319Y0133543D03*
X0712319Y0133740D03*
X0712319Y0133937D03*
X0712319Y0134134D03*
X0712319Y0134331D03*
X0712319Y0134528D03*
X0712319Y0134724D03*
X0712319Y0134921D03*
X0712319Y0135118D03*
X0712319Y0135315D03*
X0712319Y0135512D03*
X0712319Y0135709D03*
X0712319Y0135906D03*
X0712319Y0136102D03*
X0712319Y0136299D03*
X0712319Y0136496D03*
X0712319Y0136693D03*
X0712319Y0136890D03*
X0712319Y0137087D03*
X0712319Y0137283D03*
X0712319Y0137480D03*
X0712319Y0137677D03*
X0712319Y0137874D03*
X0712319Y0138071D03*
X0712319Y0138268D03*
X0712319Y0138465D03*
X0712319Y0138661D03*
X0712319Y0138858D03*
X0712319Y0139055D03*
X0712319Y0139252D03*
X0712319Y0139449D03*
X0712319Y0139646D03*
X0712319Y0139843D03*
X0712319Y0140039D03*
X0712319Y0140236D03*
X0712319Y0140433D03*
X0712319Y0140630D03*
X0712319Y0140827D03*
X0712319Y0141024D03*
X0712319Y0141220D03*
X0712319Y0141417D03*
X0712319Y0141614D03*
X0712319Y0141811D03*
X0712319Y0142008D03*
X0712319Y0142205D03*
X0712319Y0142402D03*
X0712319Y0142598D03*
X0712319Y0142795D03*
X0712319Y0142992D03*
X0712319Y0143189D03*
X0712319Y0143386D03*
X0712319Y0143583D03*
X0712319Y0143780D03*
X0712319Y0143976D03*
X0712319Y0144173D03*
X0712319Y0144370D03*
X0712319Y0144567D03*
X0712319Y0144764D03*
X0712319Y0144961D03*
X0712319Y0145157D03*
X0712319Y0145354D03*
X0712319Y0145551D03*
X0712319Y0145748D03*
X0712319Y0145945D03*
X0712319Y0146142D03*
X0712319Y0146339D03*
X0712319Y0146535D03*
X0712319Y0146732D03*
X0712319Y0146929D03*
X0712319Y0147126D03*
X0712319Y0147323D03*
X0712319Y0147520D03*
X0712319Y0147717D03*
X0712319Y0147913D03*
X0712319Y0148110D03*
X0712319Y0148307D03*
X0712319Y0148504D03*
X0712319Y0148701D03*
X0712319Y0148898D03*
X0712319Y0149094D03*
X0712319Y0149291D03*
X0712319Y0149488D03*
X0712319Y0149685D03*
X0712319Y0149882D03*
X0712319Y0150079D03*
X0712319Y0150276D03*
X0712319Y0150472D03*
X0712319Y0150669D03*
X0712319Y0150866D03*
X0712319Y0151063D03*
X0712319Y0151260D03*
X0712319Y0151457D03*
X0712319Y0151654D03*
X0712319Y0151850D03*
X0712319Y0152047D03*
X0712319Y0152244D03*
X0712319Y0152441D03*
X0712319Y0152638D03*
X0712319Y0152835D03*
X0712319Y0153031D03*
X0712319Y0153228D03*
X0712319Y0153425D03*
X0712319Y0153622D03*
X0712319Y0153819D03*
X0712319Y0154016D03*
X0712319Y0154213D03*
X0712319Y0154409D03*
X0712319Y0154606D03*
X0712319Y0154803D03*
X0712319Y0155000D03*
X0712319Y0155197D03*
X0712319Y0155394D03*
X0712319Y0155591D03*
X0712319Y0155787D03*
X0712319Y0155984D03*
X0712319Y0156181D03*
X0712319Y0156378D03*
X0712319Y0156575D03*
X0712319Y0156772D03*
X0712319Y0156969D03*
X0772949Y0136496D03*
X0772949Y0136299D03*
X0788697Y0136299D03*
X0788697Y0136102D03*
X0788697Y0135906D03*
X0788697Y0135709D03*
X0788697Y0135512D03*
X0788697Y0135315D03*
X0788697Y0135118D03*
X0788697Y0134921D03*
X0788697Y0134724D03*
X0788697Y0134528D03*
X0788697Y0134331D03*
X0788697Y0134134D03*
X0788697Y0133937D03*
X0788697Y0133740D03*
X0788697Y0133543D03*
X0788697Y0133346D03*
X0788697Y0133150D03*
X0788697Y0132953D03*
X0788697Y0132756D03*
X0788697Y0132559D03*
X0788697Y0132362D03*
X0788697Y0132165D03*
X0788697Y0131969D03*
X0788697Y0131772D03*
X0788697Y0131575D03*
X0788697Y0131378D03*
X0788697Y0131181D03*
X0788697Y0130984D03*
X0788697Y0130787D03*
X0788697Y0130591D03*
X0788697Y0130394D03*
X0788697Y0130197D03*
X0788697Y0130000D03*
X0788697Y0129803D03*
X0788697Y0129606D03*
X0788697Y0129409D03*
X0788697Y0129213D03*
X0788697Y0129016D03*
X0788697Y0128819D03*
X0788697Y0128622D03*
X0788697Y0128425D03*
X0788697Y0128228D03*
X0788697Y0128031D03*
X0788697Y0127835D03*
X0788697Y0127638D03*
X0788697Y0127441D03*
X0788697Y0127244D03*
X0788697Y0127047D03*
X0788697Y0126850D03*
X0788697Y0126654D03*
X0788697Y0126457D03*
X0788697Y0126260D03*
X0788697Y0126063D03*
X0788697Y0125866D03*
X0788697Y0125669D03*
X0788697Y0125472D03*
X0788697Y0125276D03*
X0788697Y0125079D03*
X0788697Y0124882D03*
X0788697Y0124685D03*
X0788697Y0124488D03*
X0788697Y0124291D03*
X0788697Y0124094D03*
X0788697Y0123898D03*
X0788697Y0123701D03*
X0788697Y0123504D03*
X0788697Y0123307D03*
X0788697Y0123110D03*
X0788697Y0122913D03*
X0804445Y0122913D03*
X0804445Y0123110D03*
X0804445Y0123307D03*
X0804445Y0123504D03*
X0804445Y0123701D03*
X0804445Y0123898D03*
X0804445Y0124094D03*
X0804445Y0124291D03*
X0804445Y0124488D03*
X0804445Y0124685D03*
X0804445Y0124882D03*
X0804445Y0125079D03*
X0804445Y0125276D03*
X0804445Y0125472D03*
X0804445Y0125669D03*
X0804445Y0125866D03*
X0804445Y0126063D03*
X0804445Y0126260D03*
X0804445Y0126457D03*
X0804445Y0126654D03*
X0804445Y0126850D03*
X0804445Y0127047D03*
X0804445Y0127244D03*
X0804445Y0127441D03*
X0804445Y0127638D03*
X0804445Y0127835D03*
X0804445Y0128031D03*
X0804445Y0128228D03*
X0804445Y0128425D03*
X0804445Y0128622D03*
X0804445Y0128819D03*
X0804445Y0129016D03*
X0804445Y0129213D03*
X0804445Y0129409D03*
X0804445Y0129606D03*
X0804445Y0129803D03*
X0804445Y0130000D03*
X0804445Y0130197D03*
X0804445Y0130394D03*
X0804445Y0130591D03*
X0804445Y0130787D03*
X0804445Y0130984D03*
X0804445Y0131181D03*
X0804445Y0131378D03*
X0804445Y0131575D03*
X0804445Y0131772D03*
X0804445Y0144961D03*
X0804445Y0145157D03*
X0804445Y0145354D03*
X0804445Y0145551D03*
X0804445Y0145748D03*
X0804445Y0145945D03*
X0804445Y0146142D03*
X0804445Y0146339D03*
X0804445Y0146535D03*
X0804445Y0146732D03*
X0804445Y0146929D03*
X0804445Y0147126D03*
X0804445Y0147323D03*
X0804445Y0147520D03*
X0804445Y0147717D03*
X0804445Y0147913D03*
X0804445Y0148110D03*
X0804445Y0148307D03*
X0804445Y0148504D03*
X0804445Y0148701D03*
X0804445Y0148898D03*
X0804445Y0149094D03*
X0804445Y0149291D03*
X0804445Y0149488D03*
X0804445Y0149685D03*
X0804445Y0149882D03*
X0804445Y0150079D03*
X0804445Y0150276D03*
X0804445Y0150472D03*
X0804445Y0150669D03*
X0804445Y0150866D03*
X0804445Y0151063D03*
X0804445Y0151260D03*
X0804445Y0151457D03*
X0804445Y0151654D03*
X0804445Y0151850D03*
X0804445Y0152047D03*
X0804445Y0152244D03*
X0804445Y0152441D03*
X0804445Y0152638D03*
X0804445Y0152835D03*
X0804445Y0153031D03*
X0804445Y0153228D03*
X0804445Y0153425D03*
X0804445Y0153622D03*
X0804445Y0153819D03*
X0804445Y0154016D03*
X0804445Y0154213D03*
X0804445Y0154409D03*
X0804445Y0154606D03*
X0788697Y0154606D03*
X0788697Y0154409D03*
X0788697Y0154213D03*
X0788697Y0154016D03*
X0788697Y0153819D03*
X0788697Y0153622D03*
X0788697Y0153425D03*
X0788697Y0153228D03*
X0788697Y0153031D03*
X0788697Y0152835D03*
X0788697Y0152638D03*
X0788697Y0152441D03*
X0788697Y0152244D03*
X0788697Y0152047D03*
X0788697Y0151850D03*
X0788697Y0151654D03*
X0788697Y0151457D03*
X0788697Y0151260D03*
X0788697Y0151063D03*
X0788697Y0150866D03*
X0788697Y0150669D03*
X0788697Y0150472D03*
X0788697Y0150276D03*
X0788697Y0150079D03*
X0788697Y0149882D03*
X0788697Y0149685D03*
X0788697Y0149488D03*
X0788697Y0149291D03*
X0788697Y0149094D03*
X0788697Y0148898D03*
X0788697Y0148701D03*
X0788697Y0148504D03*
X0788697Y0148307D03*
X0788697Y0148110D03*
X0788697Y0147913D03*
X0788697Y0147717D03*
X0788697Y0147520D03*
X0788697Y0147323D03*
X0788697Y0147126D03*
X0788697Y0146929D03*
X0788697Y0146732D03*
X0788697Y0146535D03*
X0788697Y0146339D03*
X0788697Y0146142D03*
X0788697Y0145945D03*
X0788697Y0145748D03*
X0788697Y0145551D03*
X0788697Y0145354D03*
X0788697Y0145157D03*
X0788697Y0144961D03*
X0788697Y0144764D03*
X0788697Y0144567D03*
X0788697Y0144370D03*
X0788697Y0144173D03*
X0788697Y0143976D03*
X0788697Y0143780D03*
X0788697Y0143583D03*
X0788697Y0143386D03*
X0788697Y0143189D03*
X0788697Y0142992D03*
X0788697Y0142795D03*
X0788697Y0142598D03*
X0788697Y0142402D03*
X0788697Y0142205D03*
X0788697Y0142008D03*
X0788697Y0141811D03*
X0788697Y0141614D03*
X0788697Y0141417D03*
X0788697Y0141220D03*
X0788697Y0141024D03*
X0788697Y0140827D03*
X0788697Y0140630D03*
X0788697Y0140433D03*
X0788697Y0140236D03*
X0788697Y0140039D03*
X0788697Y0139843D03*
X0788697Y0139646D03*
X0788697Y0139449D03*
X0788697Y0139252D03*
X0788697Y0139055D03*
X0788697Y0138858D03*
X0788697Y0138661D03*
X0788697Y0138465D03*
X0788697Y0138268D03*
X0788697Y0138071D03*
X0788697Y0137874D03*
X0788697Y0137677D03*
X0788697Y0137480D03*
X0788697Y0137283D03*
X0788697Y0137087D03*
X0788697Y0136890D03*
X0788697Y0136693D03*
X0788697Y0136496D03*
X0788697Y0154803D03*
X0788697Y0155000D03*
X0788697Y0155197D03*
X0788697Y0155394D03*
X0788697Y0155591D03*
X0788697Y0155787D03*
X0788697Y0155984D03*
X0788697Y0156181D03*
X0788697Y0156378D03*
X0788697Y0156575D03*
X0788697Y0156772D03*
X0788697Y0156969D03*
X0837516Y0136496D03*
X0837516Y0136299D03*
D14*
X0844209Y0123110D03*
X0779642Y0123110D03*
X0779642Y0122913D03*
D15*
X0779445Y0123307D03*
X0779445Y0123504D03*
X0844012Y0123504D03*
X0844012Y0123307D03*
D16*
X0843815Y0123701D03*
X0843815Y0123898D03*
X0779248Y0123898D03*
X0779248Y0123701D03*
D17*
X0779051Y0124094D03*
X0779051Y0124291D03*
X0843618Y0124291D03*
X0843618Y0124094D03*
D18*
X0843421Y0124488D03*
X0843421Y0124685D03*
X0778854Y0124685D03*
X0778854Y0124488D03*
D19*
X0778657Y0124882D03*
X0778657Y0125079D03*
X0843224Y0125079D03*
X0843224Y0124882D03*
D20*
X0843028Y0125276D03*
X0843028Y0125472D03*
X0778461Y0125472D03*
X0778461Y0125276D03*
D21*
X0778264Y0125669D03*
X0778264Y0125866D03*
X0842831Y0125866D03*
X0842831Y0125669D03*
D22*
X0842634Y0126063D03*
X0842634Y0126260D03*
X0778067Y0126260D03*
X0778067Y0126063D03*
D23*
X0777870Y0126457D03*
X0777870Y0126654D03*
X0842437Y0126654D03*
X0842437Y0126457D03*
D24*
X0842240Y0126850D03*
X0842240Y0127047D03*
X0777673Y0127047D03*
X0777673Y0126850D03*
D25*
X0777476Y0127244D03*
X0777476Y0127441D03*
X0842043Y0127441D03*
X0842043Y0127244D03*
D26*
X0841846Y0127638D03*
X0841846Y0127835D03*
X0777280Y0127835D03*
X0777280Y0127638D03*
D27*
X0777083Y0128031D03*
X0777083Y0128228D03*
X0841650Y0128228D03*
X0841650Y0128031D03*
D28*
X0841453Y0128425D03*
X0841453Y0128622D03*
X0776886Y0128622D03*
X0776886Y0128425D03*
D29*
X0776689Y0128819D03*
X0776689Y0129016D03*
X0841256Y0129016D03*
X0841256Y0128819D03*
D30*
X0841059Y0129213D03*
X0841059Y0129409D03*
X0776492Y0129409D03*
X0776492Y0129213D03*
D31*
X0776295Y0129606D03*
X0776295Y0129803D03*
X0840862Y0129803D03*
X0840862Y0129606D03*
D32*
X0840665Y0130000D03*
X0840665Y0130197D03*
X0776098Y0130197D03*
X0776098Y0130000D03*
D33*
X0775902Y0130394D03*
X0775902Y0130591D03*
X0840469Y0130591D03*
X0840469Y0130394D03*
D34*
X0840272Y0130787D03*
X0840272Y0130984D03*
X0775705Y0130984D03*
X0775705Y0130787D03*
D35*
X0775508Y0131181D03*
X0775508Y0131378D03*
X0840075Y0131378D03*
X0840075Y0131181D03*
D36*
X0839878Y0131575D03*
X0839878Y0131772D03*
X0775311Y0131772D03*
X0775311Y0131575D03*
D37*
X0775114Y0131969D03*
X0775114Y0132165D03*
X0839681Y0132165D03*
X0839681Y0131969D03*
D38*
X0837319Y0136693D03*
X0837319Y0136890D03*
X0804642Y0132165D03*
X0804642Y0131969D03*
X0804642Y0144567D03*
X0804642Y0144764D03*
X0804642Y0154803D03*
X0804642Y0155000D03*
X0788500Y0157165D03*
X0788500Y0157362D03*
X0772752Y0136890D03*
X0772752Y0136693D03*
X0740075Y0132165D03*
X0740075Y0131969D03*
X0740075Y0144567D03*
X0740075Y0144764D03*
X0740075Y0154803D03*
X0740075Y0155000D03*
D39*
X0774917Y0132559D03*
X0774917Y0132362D03*
X0839484Y0132362D03*
X0839484Y0132559D03*
D40*
X0809563Y0132559D03*
X0809563Y0132362D03*
X0809563Y0132756D03*
X0809563Y0132953D03*
X0809563Y0133150D03*
X0809563Y0133346D03*
X0809563Y0133543D03*
X0809563Y0133740D03*
X0809563Y0133937D03*
X0809563Y0134134D03*
X0809563Y0134331D03*
X0809563Y0134528D03*
X0809563Y0134724D03*
X0809563Y0134921D03*
X0809563Y0135118D03*
X0809563Y0135315D03*
X0809563Y0135512D03*
X0809563Y0135709D03*
X0809563Y0135906D03*
X0809563Y0136102D03*
X0809563Y0136299D03*
X0809563Y0136496D03*
X0809563Y0136693D03*
X0809563Y0136890D03*
X0809563Y0137087D03*
X0809563Y0137283D03*
X0809563Y0137480D03*
X0809563Y0137677D03*
X0809563Y0137874D03*
X0809563Y0138071D03*
X0809563Y0138268D03*
X0809563Y0138465D03*
X0809563Y0138661D03*
X0809563Y0138858D03*
X0809563Y0139055D03*
X0809563Y0139252D03*
X0809563Y0139449D03*
X0809563Y0139646D03*
X0809563Y0139843D03*
X0809563Y0140039D03*
X0809563Y0140236D03*
X0809563Y0140433D03*
X0809563Y0140630D03*
X0809563Y0140827D03*
X0809563Y0141024D03*
X0809563Y0141220D03*
X0809563Y0141417D03*
X0809563Y0141614D03*
X0809563Y0141811D03*
X0809563Y0142008D03*
X0809563Y0142205D03*
X0809563Y0142402D03*
X0809563Y0142598D03*
X0809563Y0142795D03*
X0809563Y0142992D03*
X0809563Y0143189D03*
X0809563Y0143386D03*
X0809563Y0143583D03*
X0809563Y0143780D03*
X0809563Y0143976D03*
X0809563Y0144173D03*
X0809563Y0144370D03*
X0809563Y0165433D03*
X0809563Y0165630D03*
X0744996Y0165630D03*
X0744996Y0165433D03*
X0744996Y0144370D03*
X0744996Y0144173D03*
X0744996Y0143976D03*
X0744996Y0143780D03*
X0744996Y0143583D03*
X0744996Y0143386D03*
X0744996Y0143189D03*
X0744996Y0142992D03*
X0744996Y0142795D03*
X0744996Y0142598D03*
X0744996Y0142402D03*
X0744996Y0142205D03*
X0744996Y0142008D03*
X0744996Y0141811D03*
X0744996Y0141614D03*
X0744996Y0141417D03*
X0744996Y0141220D03*
X0744996Y0141024D03*
X0744996Y0140827D03*
X0744996Y0140630D03*
X0744996Y0140433D03*
X0744996Y0140236D03*
X0744996Y0140039D03*
X0744996Y0139843D03*
X0744996Y0139646D03*
X0744996Y0139449D03*
X0744996Y0139252D03*
X0744996Y0139055D03*
X0744996Y0138858D03*
X0744996Y0138661D03*
X0744996Y0138465D03*
X0744996Y0138268D03*
X0744996Y0138071D03*
X0744996Y0137874D03*
X0744996Y0137677D03*
X0744996Y0137480D03*
X0744996Y0137283D03*
X0744996Y0137087D03*
X0744996Y0136890D03*
X0744996Y0136693D03*
X0744996Y0136496D03*
X0744996Y0136299D03*
X0744996Y0136102D03*
X0744996Y0135906D03*
X0744996Y0135709D03*
X0744996Y0135512D03*
X0744996Y0135315D03*
X0744996Y0135118D03*
X0744996Y0134921D03*
X0744996Y0134724D03*
X0744996Y0134528D03*
X0744996Y0134331D03*
X0744996Y0134134D03*
X0744996Y0133937D03*
X0744996Y0133740D03*
X0744996Y0133543D03*
X0744996Y0133346D03*
X0744996Y0133150D03*
X0744996Y0132953D03*
X0744996Y0132756D03*
X0744996Y0132559D03*
X0744996Y0132362D03*
D41*
X0774720Y0132756D03*
X0774720Y0132953D03*
X0839287Y0132953D03*
X0839287Y0132756D03*
D42*
X0839091Y0133150D03*
X0839091Y0133346D03*
X0774524Y0133346D03*
X0774524Y0133150D03*
D43*
X0774327Y0133543D03*
X0774327Y0133740D03*
X0838894Y0133740D03*
X0838894Y0133543D03*
D44*
X0838697Y0133937D03*
X0838697Y0134134D03*
X0774130Y0134134D03*
X0774130Y0133937D03*
D45*
X0773933Y0134331D03*
X0773933Y0134528D03*
X0838500Y0134528D03*
X0838500Y0134331D03*
D46*
X0838303Y0134724D03*
X0838303Y0134921D03*
X0773736Y0134921D03*
X0773736Y0134724D03*
D47*
X0773539Y0135118D03*
X0773539Y0135315D03*
X0838106Y0135315D03*
X0838106Y0135118D03*
D48*
X0837909Y0135512D03*
X0837909Y0135709D03*
X0773343Y0135709D03*
X0773343Y0135512D03*
D49*
X0773146Y0135906D03*
X0773146Y0136102D03*
X0837713Y0136102D03*
X0837713Y0135906D03*
D50*
X0837122Y0137087D03*
X0837122Y0137283D03*
X0772555Y0137283D03*
X0772555Y0137087D03*
X0712319Y0157165D03*
X0712319Y0157362D03*
D51*
X0772358Y0137677D03*
X0772358Y0137480D03*
X0836925Y0137480D03*
X0836925Y0137677D03*
D52*
X0836728Y0137874D03*
X0836728Y0138071D03*
X0772161Y0138071D03*
X0772161Y0137874D03*
D53*
X0771965Y0138268D03*
X0771965Y0138465D03*
X0836531Y0138465D03*
X0836531Y0138268D03*
D54*
X0836335Y0138661D03*
X0836335Y0138858D03*
X0771768Y0138858D03*
X0771768Y0138661D03*
D55*
X0771571Y0139055D03*
X0771571Y0139252D03*
X0836138Y0139252D03*
X0836138Y0139055D03*
D56*
X0835941Y0139449D03*
X0835941Y0139646D03*
X0771374Y0139646D03*
X0771374Y0139449D03*
D57*
X0771177Y0139843D03*
X0771177Y0140039D03*
X0835744Y0140039D03*
X0835744Y0139843D03*
D58*
X0835547Y0140236D03*
X0835547Y0140433D03*
X0770980Y0140433D03*
X0770980Y0140236D03*
D59*
X0770783Y0140630D03*
X0770783Y0140827D03*
X0835350Y0140827D03*
X0835350Y0140630D03*
D60*
X0835154Y0141024D03*
X0835154Y0141220D03*
X0770587Y0141220D03*
X0770587Y0141024D03*
D61*
X0770390Y0141417D03*
X0770390Y0141614D03*
X0834957Y0141614D03*
X0834957Y0141417D03*
D62*
X0834760Y0141811D03*
X0834760Y0142008D03*
X0770193Y0142008D03*
X0770193Y0141811D03*
D63*
X0769996Y0142205D03*
X0769996Y0142402D03*
X0834563Y0142402D03*
X0834563Y0142205D03*
D64*
X0834366Y0142598D03*
X0834366Y0142795D03*
X0833972Y0142992D03*
X0833972Y0143189D03*
X0833579Y0143386D03*
X0833579Y0143583D03*
X0833185Y0143780D03*
X0833185Y0143976D03*
X0832791Y0144173D03*
X0832791Y0144370D03*
X0832398Y0144567D03*
X0832398Y0144764D03*
X0832004Y0144961D03*
X0832004Y0145157D03*
X0831610Y0145354D03*
X0831610Y0145551D03*
X0831217Y0145748D03*
X0831217Y0145945D03*
X0830823Y0146142D03*
X0830823Y0146339D03*
X0830429Y0146535D03*
X0830429Y0146732D03*
X0830035Y0146929D03*
X0830035Y0147126D03*
X0829642Y0147323D03*
X0829642Y0147520D03*
X0829248Y0147717D03*
X0829248Y0147913D03*
X0828854Y0148110D03*
X0828854Y0148307D03*
X0828461Y0148504D03*
X0828461Y0148701D03*
X0828067Y0148898D03*
X0828067Y0149094D03*
X0827673Y0149291D03*
X0827673Y0149488D03*
X0827280Y0149685D03*
X0827280Y0149882D03*
X0826886Y0150079D03*
X0826886Y0150276D03*
X0826492Y0150472D03*
X0826492Y0150669D03*
X0826098Y0150866D03*
X0826098Y0151063D03*
X0825705Y0151260D03*
X0825705Y0151457D03*
X0825311Y0151654D03*
X0825311Y0151850D03*
X0824917Y0152047D03*
X0824917Y0152244D03*
X0824524Y0152441D03*
X0824524Y0152638D03*
X0824130Y0152835D03*
X0824130Y0153031D03*
X0823736Y0153228D03*
X0823736Y0153425D03*
X0823343Y0153622D03*
X0823343Y0153819D03*
X0822949Y0154016D03*
X0822949Y0154213D03*
X0822555Y0154409D03*
X0822555Y0154606D03*
X0822161Y0154803D03*
X0822161Y0155000D03*
X0807594Y0169370D03*
X0807594Y0169567D03*
X0769799Y0142795D03*
X0769799Y0142598D03*
X0769406Y0142992D03*
X0769406Y0143189D03*
X0769012Y0143386D03*
X0769012Y0143583D03*
X0768618Y0143780D03*
X0768618Y0143976D03*
X0768224Y0144173D03*
X0768224Y0144370D03*
X0767831Y0144567D03*
X0767831Y0144764D03*
X0767437Y0144961D03*
X0767437Y0145157D03*
X0767043Y0145354D03*
X0767043Y0145551D03*
X0766650Y0145748D03*
X0766650Y0145945D03*
X0766256Y0146142D03*
X0766256Y0146339D03*
X0765862Y0146535D03*
X0765862Y0146732D03*
X0765469Y0146929D03*
X0765469Y0147126D03*
X0765075Y0147323D03*
X0765075Y0147520D03*
X0764681Y0147717D03*
X0764681Y0147913D03*
X0764287Y0148110D03*
X0764287Y0148307D03*
X0763894Y0148504D03*
X0763894Y0148701D03*
X0763500Y0148898D03*
X0763500Y0149094D03*
X0763106Y0149291D03*
X0763106Y0149488D03*
X0762713Y0149685D03*
X0762713Y0149882D03*
X0762319Y0150079D03*
X0762319Y0150276D03*
X0761925Y0150472D03*
X0761925Y0150669D03*
X0761531Y0150866D03*
X0761531Y0151063D03*
X0761138Y0151260D03*
X0761138Y0151457D03*
X0760744Y0151654D03*
X0760744Y0151850D03*
X0760350Y0152047D03*
X0760350Y0152244D03*
X0759957Y0152441D03*
X0759957Y0152638D03*
X0759563Y0152835D03*
X0759563Y0153031D03*
X0759169Y0153228D03*
X0759169Y0153425D03*
X0758776Y0153622D03*
X0758776Y0153819D03*
X0758382Y0154016D03*
X0758382Y0154213D03*
X0757988Y0154409D03*
X0757988Y0154606D03*
X0757594Y0154803D03*
X0757594Y0155000D03*
X0743028Y0169370D03*
X0743028Y0169567D03*
D65*
X0750114Y0155394D03*
X0750114Y0155197D03*
X0814681Y0155197D03*
X0814681Y0155394D03*
D66*
X0814484Y0155591D03*
X0814484Y0155787D03*
X0749917Y0155787D03*
X0749917Y0155591D03*
D67*
X0749720Y0155984D03*
X0749720Y0156181D03*
X0814287Y0156181D03*
X0814287Y0155984D03*
D68*
X0814091Y0156378D03*
X0814091Y0156575D03*
X0749524Y0156575D03*
X0749524Y0156378D03*
D69*
X0749327Y0156772D03*
X0749327Y0156969D03*
X0813894Y0156969D03*
X0813894Y0156772D03*
D70*
X0813697Y0157165D03*
X0813697Y0157362D03*
X0749130Y0157362D03*
X0749130Y0157165D03*
D71*
X0748933Y0157559D03*
X0748933Y0157756D03*
X0813500Y0157756D03*
X0813500Y0157559D03*
D72*
X0812319Y0159921D03*
X0812319Y0160118D03*
X0780823Y0160118D03*
X0780823Y0159921D03*
X0780823Y0159724D03*
X0780823Y0159528D03*
X0780823Y0159331D03*
X0780823Y0159134D03*
X0780823Y0158937D03*
X0780823Y0158740D03*
X0780823Y0158543D03*
X0780823Y0158346D03*
X0780823Y0158150D03*
X0780823Y0157953D03*
X0780823Y0157756D03*
X0780823Y0157559D03*
X0780823Y0160315D03*
X0780823Y0160512D03*
X0780823Y0160709D03*
X0780823Y0160906D03*
X0780823Y0161102D03*
X0780823Y0161299D03*
X0780823Y0161496D03*
X0780823Y0161693D03*
X0780823Y0161890D03*
X0780823Y0162087D03*
X0780823Y0162283D03*
X0780823Y0162480D03*
X0780823Y0162677D03*
X0780823Y0162874D03*
X0780823Y0163071D03*
X0780823Y0163268D03*
X0780823Y0163465D03*
X0780823Y0163661D03*
X0780823Y0163858D03*
X0780823Y0164055D03*
X0780823Y0164252D03*
X0780823Y0164449D03*
X0780823Y0164646D03*
X0780823Y0164843D03*
X0780823Y0165039D03*
X0780823Y0165236D03*
X0780823Y0165433D03*
X0780823Y0165630D03*
X0780823Y0165827D03*
X0780823Y0166024D03*
X0780823Y0166220D03*
X0780823Y0166417D03*
X0780823Y0166614D03*
X0780823Y0166811D03*
X0780823Y0167008D03*
X0780823Y0167205D03*
X0780823Y0167402D03*
X0780823Y0167598D03*
X0780823Y0167795D03*
X0780823Y0167992D03*
X0780823Y0168189D03*
X0780823Y0168386D03*
X0780823Y0168583D03*
X0780823Y0168780D03*
X0780823Y0168976D03*
X0780823Y0169173D03*
X0780823Y0169370D03*
X0780823Y0169567D03*
X0747752Y0160118D03*
X0747752Y0159921D03*
D73*
X0712319Y0159921D03*
X0712319Y0159724D03*
X0712319Y0159528D03*
X0712319Y0159331D03*
X0712319Y0159134D03*
X0712319Y0158937D03*
X0712319Y0158740D03*
X0712319Y0158543D03*
X0712319Y0158346D03*
X0712319Y0158150D03*
X0712319Y0157953D03*
X0712319Y0157756D03*
X0712319Y0157559D03*
X0712319Y0160118D03*
X0712319Y0160315D03*
X0712319Y0160512D03*
X0712319Y0160709D03*
X0712319Y0160906D03*
X0712319Y0161102D03*
X0712319Y0161299D03*
X0712319Y0161496D03*
X0712319Y0161693D03*
X0712319Y0161890D03*
X0712319Y0162087D03*
X0712319Y0162283D03*
X0712319Y0162480D03*
X0712319Y0162677D03*
X0712319Y0162874D03*
X0712319Y0163071D03*
X0712319Y0163268D03*
X0712319Y0163465D03*
X0712319Y0163661D03*
X0712319Y0163858D03*
X0712319Y0164055D03*
X0712319Y0164252D03*
X0712319Y0164449D03*
X0712319Y0164646D03*
X0712319Y0164843D03*
X0712319Y0165039D03*
X0712319Y0165236D03*
X0712319Y0165433D03*
X0712319Y0165630D03*
X0712319Y0165827D03*
X0712319Y0166024D03*
X0712319Y0166220D03*
X0712319Y0166417D03*
X0712319Y0166614D03*
X0712319Y0166811D03*
X0712319Y0167008D03*
X0712319Y0167205D03*
X0712319Y0167402D03*
X0712319Y0167598D03*
X0712319Y0167795D03*
X0712319Y0167992D03*
X0712319Y0168189D03*
X0712319Y0168386D03*
X0712319Y0168583D03*
X0712319Y0168780D03*
X0712319Y0168976D03*
X0712319Y0169173D03*
X0712319Y0169370D03*
X0712319Y0169567D03*
D74*
X0748736Y0158150D03*
X0748736Y0157953D03*
X0813303Y0157953D03*
X0813303Y0158150D03*
D75*
X0813106Y0158346D03*
X0813106Y0158543D03*
X0748539Y0158543D03*
X0748539Y0158346D03*
D76*
X0748343Y0158740D03*
X0748343Y0158937D03*
X0812909Y0158937D03*
X0812909Y0158740D03*
D77*
X0812713Y0159134D03*
X0812713Y0159331D03*
X0748146Y0159331D03*
X0748146Y0159134D03*
D78*
X0747949Y0159528D03*
X0747949Y0159724D03*
X0812516Y0159724D03*
X0812516Y0159528D03*
D79*
X0812122Y0160315D03*
X0812122Y0160512D03*
X0747555Y0160512D03*
X0747555Y0160315D03*
D80*
X0747358Y0160709D03*
X0747358Y0160906D03*
X0811925Y0160906D03*
X0811925Y0160709D03*
D81*
X0811728Y0161102D03*
X0811728Y0161299D03*
X0747161Y0161299D03*
X0747161Y0161102D03*
D82*
X0746965Y0161496D03*
X0746965Y0161693D03*
X0811531Y0161693D03*
X0811531Y0161496D03*
D83*
X0811335Y0161890D03*
X0811335Y0162087D03*
X0746768Y0162087D03*
X0746768Y0161890D03*
D84*
X0746571Y0162283D03*
X0746571Y0162480D03*
X0811138Y0162480D03*
X0811138Y0162283D03*
D85*
X0810941Y0162677D03*
X0810941Y0162874D03*
X0746374Y0162874D03*
X0746374Y0162677D03*
D86*
X0746177Y0163071D03*
X0746177Y0163268D03*
X0810744Y0163268D03*
X0810744Y0163071D03*
D87*
X0810547Y0163465D03*
X0810547Y0163661D03*
X0745980Y0163661D03*
X0745980Y0163465D03*
D88*
X0745783Y0163858D03*
X0745783Y0164055D03*
X0810350Y0164055D03*
X0810350Y0163858D03*
D89*
X0810154Y0164252D03*
X0810154Y0164449D03*
X0745587Y0164449D03*
X0745587Y0164252D03*
D90*
X0745390Y0164646D03*
X0745390Y0164843D03*
X0809957Y0164843D03*
X0809957Y0164646D03*
D91*
X0809760Y0165039D03*
X0809760Y0165236D03*
X0745193Y0165236D03*
X0745193Y0165039D03*
D92*
X0744799Y0165827D03*
X0744799Y0166024D03*
X0809366Y0166024D03*
X0809366Y0165827D03*
D93*
X0809169Y0166220D03*
X0809169Y0166417D03*
X0744602Y0166417D03*
X0744602Y0166220D03*
D94*
X0744406Y0166614D03*
X0744406Y0166811D03*
X0808972Y0166811D03*
X0808972Y0166614D03*
D95*
X0808776Y0167008D03*
X0808776Y0167205D03*
X0744209Y0167205D03*
X0744209Y0167008D03*
D96*
X0744012Y0167402D03*
X0744012Y0167598D03*
X0808579Y0167598D03*
X0808579Y0167402D03*
D97*
X0808382Y0167795D03*
X0808382Y0167992D03*
X0743815Y0167992D03*
X0743815Y0167795D03*
D98*
X0743618Y0168189D03*
X0743618Y0168386D03*
X0808185Y0168386D03*
X0808185Y0168189D03*
D99*
X0807988Y0168583D03*
X0807988Y0168780D03*
X0743421Y0168780D03*
X0743421Y0168583D03*
D100*
X0743224Y0168976D03*
X0743224Y0169173D03*
X0807791Y0169173D03*
X0807791Y0168976D03*
D101*
X0844307Y0176654D02*
X0694110Y0176654D01*
X0694110Y0285709D01*
X0844504Y0285709D01*
X0844504Y0176850D01*
D102*
X0516572Y0554463D02*
X0513867Y0554463D01*
X0512965Y0555364D01*
X0512965Y0556266D01*
X0513867Y0557168D01*
X0516572Y0557168D01*
X0516572Y0554463D02*
X0516572Y0559873D01*
X0513867Y0559873D01*
X0512965Y0558971D01*
X0512965Y0558069D01*
X0513867Y0557168D01*
X0511134Y0557168D02*
X0511134Y0555364D01*
X0510232Y0554463D01*
X0508429Y0554463D01*
X0507527Y0555364D01*
X0507527Y0557168D01*
X0508429Y0558069D01*
X0510232Y0558069D01*
X0511134Y0557168D01*
X0505696Y0555364D02*
X0504795Y0556266D01*
X0502089Y0556266D01*
X0502089Y0557168D02*
X0502089Y0554463D01*
X0504795Y0554463D01*
X0505696Y0555364D01*
X0504795Y0558069D02*
X0502991Y0558069D01*
X0502089Y0557168D01*
X0500258Y0558069D02*
X0500258Y0554463D01*
X0500258Y0556266D02*
X0498455Y0558069D01*
X0497553Y0558069D01*
X0495727Y0557168D02*
X0494825Y0558069D01*
X0492120Y0558069D01*
X0492120Y0559873D02*
X0492120Y0554463D01*
X0494825Y0554463D01*
X0495727Y0555364D01*
X0495727Y0557168D01*
X0484852Y0556266D02*
X0484852Y0559873D01*
X0484852Y0556266D02*
X0483048Y0554463D01*
X0481245Y0556266D01*
X0481245Y0559873D01*
X0479414Y0557168D02*
X0478512Y0558069D01*
X0476709Y0558069D01*
X0475807Y0557168D01*
X0475807Y0556266D01*
X0479414Y0556266D01*
X0479414Y0555364D02*
X0479414Y0557168D01*
X0479414Y0555364D02*
X0478512Y0554463D01*
X0476709Y0554463D01*
X0473976Y0554463D02*
X0473976Y0558069D01*
X0473976Y0556266D02*
X0472173Y0558069D01*
X0471271Y0558069D01*
X0469445Y0557168D02*
X0468543Y0558069D01*
X0465838Y0558069D01*
X0464007Y0558069D02*
X0463105Y0558069D01*
X0463105Y0554463D01*
X0462204Y0554463D02*
X0464007Y0554463D01*
X0465838Y0555364D02*
X0466740Y0556266D01*
X0468543Y0556266D01*
X0469445Y0557168D01*
X0469445Y0554463D02*
X0466740Y0554463D01*
X0465838Y0555364D01*
X0463105Y0559873D02*
X0463105Y0560774D01*
X0460382Y0557168D02*
X0460382Y0555364D01*
X0459480Y0554463D01*
X0457677Y0554463D01*
X0456775Y0555364D01*
X0456775Y0557168D01*
X0457677Y0558069D01*
X0459480Y0558069D01*
X0460382Y0557168D01*
X0454944Y0558069D02*
X0452239Y0558069D01*
X0451337Y0557168D01*
X0451337Y0554463D01*
X0454944Y0554463D02*
X0454944Y0558069D01*
X0444069Y0558069D02*
X0442265Y0559873D01*
X0442265Y0554463D01*
X0440462Y0554463D02*
X0444069Y0554463D01*
X0438631Y0554463D02*
X0437729Y0554463D01*
X0437729Y0555364D01*
X0438631Y0555364D01*
X0438631Y0554463D01*
X0435912Y0555364D02*
X0432306Y0558971D01*
X0432306Y0555364D01*
X0433207Y0554463D01*
X0435011Y0554463D01*
X0435912Y0555364D01*
X0435912Y0558971D01*
X0435011Y0559873D01*
X0433207Y0559873D01*
X0432306Y0558971D01*
D103*
X0084346Y0130276D03*
X0086000Y0129094D03*
X0086000Y0128858D03*
X0082929Y0128386D03*
X0081039Y0130512D03*
X0074661Y0129567D03*
X0073953Y0130276D03*
X0073244Y0130276D03*
X0073244Y0130748D03*
X0073480Y0130984D03*
X0074189Y0131457D03*
X0073480Y0135000D03*
X0068992Y0132402D03*
X0068756Y0132638D03*
X0067811Y0131929D03*
X0067811Y0131693D03*
X0067811Y0131457D03*
X0067811Y0131220D03*
X0067811Y0130984D03*
X0067811Y0130748D03*
X0067811Y0130512D03*
X0067811Y0130276D03*
X0066394Y0130984D03*
X0066394Y0131220D03*
X0066394Y0131457D03*
X0066630Y0132638D03*
X0065921Y0128858D03*
X0065921Y0128622D03*
X0065685Y0127441D03*
X0065685Y0127205D03*
X0067339Y0127205D03*
X0067339Y0126969D03*
X0067339Y0126732D03*
X0067102Y0126260D03*
X0067102Y0126024D03*
X0068283Y0125787D03*
X0068283Y0125551D03*
X0068756Y0127441D03*
X0071354Y0128386D03*
X0075843Y0125787D03*
X0069937Y0121772D03*
X0069228Y0117047D03*
X0068992Y0116811D03*
X0069701Y0116339D03*
X0069937Y0116102D03*
X0070646Y0115630D03*
X0072535Y0113504D03*
X0073717Y0112559D03*
X0074189Y0112087D03*
X0073244Y0109724D03*
X0071354Y0109724D03*
X0069465Y0109724D03*
X0069228Y0110197D03*
X0068992Y0110669D03*
X0068992Y0110906D03*
X0068992Y0111378D03*
X0068992Y0111614D03*
X0069937Y0106890D03*
X0070173Y0106654D03*
X0070173Y0106417D03*
X0070173Y0106181D03*
X0070409Y0105945D03*
X0070409Y0105709D03*
X0070409Y0105236D03*
X0070409Y0105000D03*
X0070409Y0104764D03*
X0071591Y0105945D03*
X0071591Y0106181D03*
X0075843Y0106181D03*
X0075843Y0106417D03*
X0076787Y0106417D03*
X0077024Y0106654D03*
X0077024Y0106890D03*
X0077260Y0107126D03*
X0076787Y0109488D03*
X0077024Y0109724D03*
X0080331Y0111142D03*
X0080567Y0111378D03*
X0080567Y0110906D03*
X0082220Y0105709D03*
X0082457Y0101457D03*
X0083874Y0099803D03*
X0079386Y0100984D03*
X0076315Y0097205D03*
X0072299Y0098386D03*
X0071354Y0096496D03*
X0072299Y0100984D03*
X0074189Y0101457D03*
X0074189Y0101693D03*
X0066394Y0106654D03*
X0063559Y0109016D03*
X0060016Y0109724D03*
X0059780Y0109488D03*
X0060252Y0110906D03*
X0060724Y0112795D03*
X0076315Y0116339D03*
X0087890Y0117047D03*
X0087181Y0110669D03*
X0086945Y0107835D03*
X0090016Y0106181D03*
X0087654Y0104291D03*
X0092614Y0108543D03*
D104*
X0092142Y0109252D03*
X0092378Y0110433D03*
X0092142Y0110906D03*
X0092378Y0112795D03*
X0092142Y0113268D03*
X0092614Y0114213D03*
X0092378Y0114449D03*
X0092142Y0115630D03*
X0091906Y0115866D03*
X0092142Y0117283D03*
X0091906Y0117520D03*
X0091433Y0117756D03*
X0091433Y0117992D03*
X0091433Y0118228D03*
X0091669Y0118937D03*
X0091433Y0119409D03*
X0090961Y0119646D03*
X0090724Y0119882D03*
X0090016Y0120354D03*
X0089780Y0120591D03*
X0090016Y0121772D03*
X0090252Y0122244D03*
X0090252Y0122480D03*
X0090488Y0122717D03*
X0090724Y0122953D03*
X0090961Y0123189D03*
X0090961Y0123425D03*
X0088362Y0124606D03*
X0085764Y0127677D03*
X0085764Y0127913D03*
X0085764Y0128150D03*
X0086000Y0129567D03*
X0086000Y0129803D03*
X0086000Y0130039D03*
X0085764Y0130748D03*
X0085764Y0130984D03*
X0085764Y0131693D03*
X0085764Y0131929D03*
X0085764Y0132165D03*
X0082929Y0130984D03*
X0084110Y0128622D03*
X0084110Y0128386D03*
X0084110Y0128150D03*
X0084110Y0127913D03*
X0080567Y0133346D03*
X0078205Y0133583D03*
X0075606Y0133583D03*
X0074425Y0134764D03*
X0073953Y0131220D03*
X0074425Y0130512D03*
X0074661Y0130748D03*
X0073480Y0130039D03*
X0073480Y0129567D03*
X0073244Y0128386D03*
X0071354Y0128858D03*
X0067575Y0128622D03*
X0067575Y0128386D03*
X0066157Y0129803D03*
X0066866Y0133583D03*
X0067102Y0134291D03*
X0067339Y0134528D03*
X0068756Y0132874D03*
X0068992Y0124606D03*
X0065449Y0124606D03*
X0063087Y0124843D03*
X0061669Y0125551D03*
X0061669Y0125787D03*
X0061433Y0124843D03*
X0061433Y0124606D03*
X0061433Y0123189D03*
X0061433Y0122953D03*
X0061669Y0122480D03*
X0061906Y0122008D03*
X0062378Y0121535D03*
X0062614Y0121299D03*
X0062614Y0121063D03*
X0062378Y0120354D03*
X0062378Y0119882D03*
X0062614Y0119646D03*
X0062378Y0119173D03*
X0062142Y0118465D03*
X0061906Y0117756D03*
X0061906Y0117283D03*
X0060961Y0114921D03*
X0060488Y0113740D03*
X0060488Y0113504D03*
X0060724Y0112559D03*
X0060724Y0111850D03*
X0060016Y0110433D03*
X0060016Y0109961D03*
X0065449Y0107362D03*
X0069701Y0109252D03*
X0069465Y0112559D03*
X0068756Y0116575D03*
X0075843Y0110197D03*
X0075606Y0109724D03*
X0078205Y0109488D03*
X0075134Y0106890D03*
X0074898Y0106654D03*
X0074661Y0106417D03*
X0071827Y0105236D03*
X0071591Y0105472D03*
X0071591Y0105709D03*
X0071118Y0104055D03*
X0071354Y0103819D03*
X0074189Y0101929D03*
X0074898Y0097205D03*
X0071354Y0096732D03*
X0069937Y0099094D03*
X0066866Y0100984D03*
X0066866Y0101220D03*
X0081276Y0099567D03*
X0089307Y0103110D03*
X0088835Y0117047D03*
X0088835Y0117283D03*
X0088362Y0117992D03*
X0077732Y0121772D03*
X0076315Y0124606D03*
X0075606Y0127913D03*
X0077496Y0130512D03*
D105*
X0074543Y0130984D03*
X0079031Y0133110D03*
X0080921Y0131220D03*
X0085882Y0131220D03*
X0085882Y0131457D03*
X0085882Y0130512D03*
X0085882Y0130276D03*
X0086118Y0129331D03*
X0085882Y0128622D03*
X0085882Y0128386D03*
X0086118Y0126260D03*
X0087772Y0122008D03*
X0081866Y0114449D03*
X0080685Y0110669D03*
X0078087Y0109252D03*
X0075724Y0109961D03*
X0073835Y0112323D03*
X0072890Y0113031D03*
X0069110Y0112323D03*
X0069110Y0112087D03*
X0069110Y0111850D03*
X0069110Y0111142D03*
X0069110Y0110433D03*
X0069346Y0109961D03*
X0069583Y0109488D03*
X0066039Y0106890D03*
X0065803Y0107126D03*
X0070528Y0104528D03*
X0070764Y0104291D03*
X0071945Y0102402D03*
X0072181Y0101693D03*
X0072181Y0101457D03*
X0072181Y0101220D03*
X0073835Y0098858D03*
X0075724Y0098622D03*
X0075016Y0096969D03*
X0072654Y0096969D03*
X0075961Y0101929D03*
X0082575Y0105945D03*
X0083756Y0100039D03*
X0090134Y0105945D03*
X0091551Y0105000D03*
X0092260Y0109016D03*
X0092260Y0110669D03*
X0092024Y0113031D03*
X0078795Y0117047D03*
X0066748Y0122717D03*
X0065803Y0122717D03*
X0065567Y0122480D03*
X0064858Y0122008D03*
X0063441Y0122717D03*
X0062024Y0121772D03*
X0061787Y0122244D03*
X0061551Y0122717D03*
X0061315Y0123425D03*
X0061315Y0123661D03*
X0061315Y0123898D03*
X0061315Y0124134D03*
X0061315Y0124370D03*
X0061551Y0125315D03*
X0065567Y0126732D03*
X0065803Y0127677D03*
X0065803Y0127913D03*
X0065803Y0128150D03*
X0065803Y0128386D03*
X0066039Y0129094D03*
X0066039Y0129331D03*
X0066039Y0129567D03*
X0066276Y0130039D03*
X0066276Y0130276D03*
X0066276Y0130512D03*
X0066276Y0130748D03*
X0066512Y0131693D03*
X0066512Y0131929D03*
X0066512Y0132165D03*
X0066512Y0132402D03*
X0066748Y0132874D03*
X0066748Y0133110D03*
X0066748Y0133346D03*
X0066984Y0133819D03*
X0066984Y0134055D03*
X0070291Y0135000D03*
X0067929Y0130039D03*
X0067929Y0129803D03*
X0067929Y0129567D03*
X0067693Y0129331D03*
X0067693Y0129094D03*
X0067693Y0128858D03*
X0067457Y0128150D03*
X0067457Y0127913D03*
X0067457Y0127677D03*
X0067457Y0127441D03*
X0067220Y0126496D03*
X0068402Y0126024D03*
X0065803Y0124370D03*
X0062496Y0120827D03*
X0062496Y0120591D03*
X0062260Y0120118D03*
X0062496Y0119409D03*
X0062260Y0118937D03*
X0062260Y0118701D03*
X0062024Y0118228D03*
X0062024Y0117992D03*
X0061787Y0117520D03*
X0062024Y0116811D03*
X0062024Y0116575D03*
X0061787Y0116339D03*
X0061551Y0116102D03*
X0061315Y0115866D03*
X0061315Y0115630D03*
X0061079Y0115394D03*
X0061079Y0115157D03*
X0060843Y0114685D03*
X0060843Y0114449D03*
X0060606Y0114213D03*
X0060606Y0113976D03*
X0060843Y0111614D03*
X0060606Y0111378D03*
X0060370Y0111142D03*
X0060134Y0110669D03*
X0059898Y0109252D03*
X0078087Y0124606D03*
X0078087Y0124843D03*
X0078087Y0126024D03*
D106*
X0077850Y0126969D03*
X0077850Y0127205D03*
X0075724Y0128150D03*
X0077614Y0130276D03*
X0079031Y0130276D03*
X0079268Y0130512D03*
X0076906Y0134055D03*
X0075488Y0134528D03*
X0073362Y0132402D03*
X0067457Y0134764D03*
X0068874Y0127205D03*
X0069110Y0126732D03*
X0063441Y0122953D03*
X0061551Y0125079D03*
X0061787Y0126024D03*
X0062024Y0126260D03*
X0062024Y0117047D03*
X0060606Y0112323D03*
X0060606Y0112087D03*
X0060134Y0110197D03*
X0059661Y0109016D03*
X0059661Y0108780D03*
X0059898Y0108307D03*
X0060134Y0107835D03*
X0060370Y0107362D03*
X0060606Y0106654D03*
X0060843Y0106417D03*
X0062260Y0104528D03*
X0065331Y0107598D03*
X0065094Y0107835D03*
X0064858Y0108780D03*
X0064858Y0109016D03*
X0066512Y0112795D03*
X0066748Y0113031D03*
X0069583Y0112795D03*
X0069819Y0113031D03*
X0070291Y0109016D03*
X0072890Y0106890D03*
X0072890Y0106181D03*
X0072890Y0105945D03*
X0071945Y0105000D03*
X0074543Y0106181D03*
X0075961Y0105709D03*
X0075961Y0105472D03*
X0075724Y0105236D03*
X0075488Y0105000D03*
X0076197Y0105945D03*
X0075724Y0109488D03*
X0075961Y0110669D03*
X0075961Y0110906D03*
X0075961Y0111142D03*
X0078323Y0109724D03*
X0080449Y0109016D03*
X0082811Y0106181D03*
X0082339Y0105472D03*
X0082575Y0101220D03*
X0078795Y0099567D03*
X0076433Y0097441D03*
X0073835Y0098622D03*
X0071472Y0096969D03*
X0070764Y0097913D03*
X0070291Y0098622D03*
X0069819Y0099331D03*
X0069583Y0099567D03*
X0068638Y0100984D03*
X0067457Y0099803D03*
X0066748Y0101457D03*
X0072181Y0101929D03*
X0074071Y0102165D03*
X0075961Y0102165D03*
X0089898Y0104764D03*
X0091551Y0105236D03*
X0092496Y0107362D03*
X0092496Y0107598D03*
X0092496Y0108307D03*
X0092260Y0110197D03*
X0092260Y0111614D03*
X0092260Y0111850D03*
X0092260Y0112087D03*
X0092496Y0112323D03*
X0092260Y0114685D03*
X0092260Y0114921D03*
X0092260Y0115157D03*
X0092260Y0115394D03*
X0091787Y0116102D03*
X0091787Y0116339D03*
X0092024Y0116575D03*
X0092260Y0116811D03*
X0092260Y0117047D03*
X0091551Y0118465D03*
X0091551Y0118701D03*
X0091551Y0119173D03*
X0090370Y0120118D03*
X0089425Y0120827D03*
X0089425Y0121063D03*
X0089661Y0121299D03*
X0089898Y0121535D03*
X0090134Y0122008D03*
X0090843Y0123661D03*
X0090606Y0123898D03*
X0090606Y0124134D03*
X0090606Y0124370D03*
X0090370Y0124606D03*
X0090370Y0124843D03*
X0090134Y0125079D03*
X0089898Y0125551D03*
X0089661Y0125787D03*
X0089425Y0126260D03*
X0088008Y0123425D03*
X0088008Y0123189D03*
X0088008Y0122953D03*
X0088008Y0122717D03*
X0087772Y0122480D03*
X0087772Y0122244D03*
X0088717Y0117520D03*
X0088953Y0116102D03*
X0076433Y0124843D03*
X0085409Y0132638D03*
X0085646Y0132402D03*
D107*
X0084465Y0133346D03*
X0081394Y0129094D03*
X0080921Y0128150D03*
X0080921Y0127913D03*
X0077378Y0126260D03*
X0076906Y0131220D03*
X0071472Y0125079D03*
X0068874Y0124134D03*
X0068874Y0123898D03*
X0064386Y0126024D03*
X0063677Y0123898D03*
X0064150Y0113740D03*
X0064150Y0113504D03*
X0064150Y0110669D03*
X0064150Y0110433D03*
X0074543Y0107835D03*
X0077850Y0110197D03*
X0083756Y0107362D03*
X0084701Y0105472D03*
X0088953Y0109016D03*
X0071945Y0097205D03*
D108*
X0073835Y0098386D03*
X0074780Y0097441D03*
X0073362Y0103819D03*
X0073598Y0105472D03*
X0072890Y0106654D03*
X0071000Y0108543D03*
X0070764Y0108780D03*
X0070291Y0113268D03*
X0066984Y0113504D03*
X0064386Y0109252D03*
X0061079Y0106181D03*
X0061787Y0105236D03*
X0062732Y0103819D03*
X0066512Y0101693D03*
X0077614Y0105000D03*
X0077850Y0105472D03*
X0080213Y0108071D03*
X0080213Y0108307D03*
X0083047Y0106417D03*
X0086827Y0106890D03*
X0091787Y0106181D03*
X0091787Y0105945D03*
X0092024Y0106417D03*
X0092260Y0106654D03*
X0092260Y0106890D03*
X0092732Y0107835D03*
X0092732Y0108071D03*
X0092260Y0109724D03*
X0089661Y0111378D03*
X0089189Y0115630D03*
X0088717Y0116811D03*
X0088953Y0117756D03*
X0088244Y0118228D03*
X0078795Y0116811D03*
X0067457Y0121299D03*
X0068874Y0124370D03*
X0071236Y0127205D03*
X0073126Y0128150D03*
X0073835Y0129803D03*
X0073126Y0132638D03*
X0069110Y0133346D03*
X0068874Y0133110D03*
X0068165Y0135472D03*
X0063205Y0124606D03*
X0074071Y0124843D03*
X0077850Y0127441D03*
X0083992Y0129094D03*
X0083047Y0131220D03*
X0085173Y0132874D03*
X0088480Y0126969D03*
D109*
X0086827Y0127441D03*
X0083283Y0123425D03*
X0070055Y0128150D03*
X0070528Y0129331D03*
X0070291Y0131693D03*
X0076669Y0131457D03*
X0076669Y0133110D03*
X0083047Y0133819D03*
X0064622Y0125787D03*
X0064150Y0112795D03*
X0064150Y0110906D03*
X0065331Y0102402D03*
X0068402Y0100039D03*
X0071945Y0097677D03*
X0071945Y0097441D03*
X0083756Y0107598D03*
X0089189Y0107835D03*
X0089189Y0108071D03*
X0089189Y0108543D03*
X0089189Y0108780D03*
X0088717Y0104055D03*
D110*
X0088126Y0107362D03*
X0088362Y0107598D03*
X0084110Y0108307D03*
X0085764Y0112323D03*
X0085764Y0112559D03*
X0081512Y0113504D03*
X0077260Y0110433D03*
X0073717Y0116339D03*
X0073717Y0116575D03*
X0079858Y0120827D03*
X0073008Y0124606D03*
X0077024Y0128386D03*
X0077024Y0128622D03*
X0077496Y0129567D03*
X0080094Y0134764D03*
X0080803Y0134528D03*
X0072299Y0133110D03*
X0071354Y0134528D03*
X0086236Y0125787D03*
X0087181Y0127205D03*
X0065921Y0117756D03*
X0065921Y0117520D03*
X0064504Y0114921D03*
X0064504Y0111378D03*
X0075606Y0097677D03*
X0080331Y0099803D03*
X0083165Y0100748D03*
D111*
X0081866Y0100512D03*
X0074780Y0097913D03*
X0074307Y0103346D03*
X0084465Y0110906D03*
X0084465Y0111142D03*
X0084465Y0111378D03*
X0087063Y0113504D03*
X0082811Y0117283D03*
X0079504Y0119882D03*
X0083047Y0122953D03*
X0083992Y0122008D03*
X0073598Y0121299D03*
X0073835Y0117756D03*
X0066039Y0115866D03*
D112*
X0067693Y0120118D03*
X0072181Y0126024D03*
X0071472Y0133819D03*
X0083047Y0117047D03*
X0087063Y0114213D03*
X0087063Y0113740D03*
X0087299Y0113268D03*
X0084701Y0111850D03*
X0083283Y0109961D03*
X0083283Y0109488D03*
X0083283Y0109252D03*
X0075016Y0098150D03*
D113*
X0078441Y0099331D03*
X0079858Y0100748D03*
X0077024Y0104055D03*
X0077024Y0104291D03*
X0077260Y0104528D03*
X0077496Y0104764D03*
X0077732Y0105236D03*
X0074425Y0105945D03*
X0072772Y0106417D03*
X0071591Y0108071D03*
X0073008Y0112795D03*
X0072535Y0115630D03*
X0072535Y0115866D03*
X0069228Y0114921D03*
X0068992Y0114685D03*
X0066866Y0113268D03*
X0064740Y0108543D03*
X0064976Y0108071D03*
X0061906Y0105000D03*
X0062142Y0104764D03*
X0062378Y0104291D03*
X0062614Y0104055D03*
X0060488Y0106890D03*
X0060488Y0107126D03*
X0060252Y0107598D03*
X0060016Y0108071D03*
X0059780Y0108543D03*
X0060724Y0113031D03*
X0060724Y0113268D03*
X0065685Y0122244D03*
X0063559Y0123189D03*
X0062378Y0126496D03*
X0068992Y0126969D03*
X0069465Y0126496D03*
X0072299Y0126496D03*
X0075843Y0126969D03*
X0075843Y0127205D03*
X0075843Y0127441D03*
X0077496Y0130748D03*
X0079150Y0130748D03*
X0079622Y0131220D03*
X0080567Y0133110D03*
X0077969Y0133819D03*
X0076315Y0134291D03*
X0071591Y0135000D03*
X0067811Y0135236D03*
X0067575Y0135000D03*
X0084110Y0128858D03*
X0083874Y0127677D03*
X0088835Y0126732D03*
X0089071Y0126496D03*
X0089543Y0126024D03*
X0090016Y0125315D03*
X0088362Y0124370D03*
X0088126Y0123661D03*
X0088835Y0116339D03*
X0089071Y0115866D03*
X0092142Y0113504D03*
X0092614Y0113976D03*
X0092378Y0112559D03*
X0092142Y0111378D03*
X0092142Y0111142D03*
X0092378Y0109961D03*
X0092142Y0109488D03*
X0092378Y0107126D03*
X0090016Y0105236D03*
X0090016Y0105000D03*
X0089780Y0104528D03*
X0089543Y0104291D03*
X0086709Y0106654D03*
X0086472Y0106417D03*
X0082693Y0104764D03*
X0080331Y0108543D03*
X0080331Y0108780D03*
X0072299Y0102165D03*
X0069465Y0099803D03*
X0070173Y0098858D03*
X0070409Y0098386D03*
X0070646Y0098150D03*
X0080094Y0123898D03*
D114*
X0080921Y0125787D03*
X0081157Y0126024D03*
X0081157Y0127677D03*
X0077614Y0129803D03*
X0076906Y0127677D03*
X0076669Y0124134D03*
X0076906Y0123898D03*
X0069819Y0123425D03*
X0067457Y0121063D03*
X0064858Y0125315D03*
X0064622Y0125551D03*
X0064150Y0126969D03*
X0070764Y0130039D03*
X0070764Y0130276D03*
X0070764Y0130512D03*
X0070764Y0130748D03*
X0077850Y0135236D03*
X0085882Y0113031D03*
X0085882Y0112795D03*
X0083992Y0108071D03*
X0088244Y0103583D03*
X0088008Y0103346D03*
X0083520Y0100984D03*
X0076906Y0098386D03*
X0074780Y0108071D03*
X0064386Y0111142D03*
D115*
X0064268Y0110197D03*
X0063323Y0103583D03*
X0065685Y0102165D03*
X0073717Y0105709D03*
X0075843Y0109252D03*
X0083638Y0107126D03*
X0083638Y0106890D03*
X0086945Y0103110D03*
X0085764Y0102165D03*
X0085528Y0101929D03*
X0077732Y0098622D03*
X0089307Y0112795D03*
X0089307Y0113031D03*
X0073244Y0123425D03*
X0065921Y0124843D03*
X0065685Y0125079D03*
X0063559Y0124134D03*
X0081039Y0128386D03*
X0081039Y0128622D03*
X0081039Y0128858D03*
X0084583Y0124606D03*
X0086236Y0126024D03*
D116*
X0087890Y0124134D03*
X0087890Y0123898D03*
X0084110Y0123898D03*
X0083874Y0123661D03*
X0080331Y0124134D03*
X0080094Y0121063D03*
X0077260Y0123661D03*
X0075134Y0122953D03*
X0071591Y0124843D03*
X0069701Y0128386D03*
X0069701Y0128622D03*
X0069701Y0128858D03*
X0070646Y0132638D03*
X0076079Y0133346D03*
X0077732Y0127913D03*
X0081512Y0130276D03*
X0084819Y0133110D03*
X0064031Y0127205D03*
X0063559Y0123425D03*
X0068283Y0114449D03*
X0067811Y0114213D03*
X0067575Y0113976D03*
X0067339Y0113740D03*
X0064268Y0109724D03*
X0064268Y0109488D03*
X0064740Y0108307D03*
X0061669Y0105472D03*
X0061433Y0105709D03*
X0061197Y0105945D03*
X0071118Y0108307D03*
X0076551Y0103819D03*
X0078205Y0105709D03*
X0078441Y0105945D03*
X0078677Y0106181D03*
X0078913Y0106417D03*
X0079150Y0106654D03*
X0079386Y0106890D03*
X0079386Y0107126D03*
X0079622Y0107362D03*
X0079858Y0107598D03*
X0080094Y0107835D03*
X0083402Y0106654D03*
X0085764Y0105945D03*
X0086236Y0106181D03*
X0084583Y0101220D03*
X0078205Y0099094D03*
X0077969Y0098858D03*
X0089543Y0110433D03*
X0089543Y0110669D03*
X0089543Y0110906D03*
X0089543Y0111142D03*
X0089543Y0111614D03*
X0089543Y0111850D03*
X0089543Y0112087D03*
X0092378Y0113740D03*
X0089307Y0115394D03*
X0088835Y0116575D03*
X0088126Y0118465D03*
X0087890Y0118701D03*
D117*
X0090606Y0113740D03*
X0087772Y0109488D03*
X0087772Y0109252D03*
X0089898Y0106417D03*
X0092496Y0108780D03*
X0083756Y0104764D03*
X0082102Y0104528D03*
X0080921Y0100748D03*
X0075724Y0098858D03*
X0073835Y0099094D03*
X0072181Y0103819D03*
X0073362Y0105236D03*
X0074071Y0105236D03*
X0075961Y0104055D03*
X0076669Y0106181D03*
X0076197Y0106890D03*
X0077378Y0107362D03*
X0073598Y0107598D03*
X0073835Y0109016D03*
X0073126Y0109961D03*
X0072890Y0110197D03*
X0072890Y0110433D03*
X0072654Y0110669D03*
X0072654Y0110906D03*
X0073126Y0112559D03*
X0073598Y0113268D03*
X0071000Y0116102D03*
X0071000Y0116339D03*
X0070764Y0116575D03*
X0070764Y0115866D03*
X0070055Y0118228D03*
X0068638Y0121299D03*
X0066276Y0121299D03*
X0066039Y0122953D03*
X0065567Y0124134D03*
X0064622Y0126260D03*
X0067457Y0125787D03*
X0064622Y0121772D03*
X0064386Y0121535D03*
X0064150Y0121299D03*
X0064150Y0121063D03*
X0063913Y0120827D03*
X0063441Y0122244D03*
X0063441Y0122480D03*
X0072654Y0123189D03*
X0073362Y0123189D03*
X0072654Y0124134D03*
X0074543Y0123189D03*
X0075724Y0126260D03*
X0074543Y0126969D03*
X0073598Y0128622D03*
X0074307Y0130039D03*
X0073126Y0130512D03*
X0073598Y0132165D03*
X0075252Y0133819D03*
X0069110Y0134528D03*
X0067693Y0132165D03*
X0071472Y0128622D03*
X0077614Y0121535D03*
X0078559Y0121063D03*
X0079976Y0121299D03*
X0080449Y0122244D03*
X0079740Y0123661D03*
X0082339Y0123661D03*
X0079268Y0118228D03*
X0078323Y0118228D03*
X0076906Y0116575D03*
X0077142Y0116339D03*
X0077614Y0116102D03*
X0076433Y0116575D03*
X0079740Y0113268D03*
X0081157Y0114449D03*
X0071000Y0109961D03*
X0070764Y0110197D03*
X0070764Y0110433D03*
X0070528Y0110669D03*
X0070528Y0110906D03*
X0071236Y0109016D03*
X0070291Y0105472D03*
X0067220Y0106181D03*
X0066748Y0106417D03*
X0063677Y0108071D03*
X0063205Y0108780D03*
X0083283Y0130276D03*
X0084465Y0130512D03*
D118*
X0081394Y0134291D03*
X0077142Y0129331D03*
X0077142Y0129094D03*
X0077142Y0128858D03*
X0076669Y0126732D03*
X0081394Y0126260D03*
X0083047Y0123189D03*
X0071000Y0122244D03*
X0066039Y0117992D03*
X0065803Y0117283D03*
X0064858Y0115157D03*
X0064622Y0111614D03*
X0075252Y0108307D03*
X0076197Y0109016D03*
X0077378Y0111850D03*
X0083992Y0108543D03*
X0074780Y0102638D03*
X0074780Y0102402D03*
X0080449Y0100039D03*
X0072417Y0133346D03*
D119*
X0071354Y0126260D03*
X0067575Y0120354D03*
X0066394Y0116339D03*
X0079622Y0120118D03*
X0083874Y0122244D03*
X0081512Y0100276D03*
D120*
X0083638Y0105000D03*
X0087654Y0107126D03*
X0089071Y0108307D03*
X0090961Y0105709D03*
X0090961Y0105472D03*
X0082220Y0112559D03*
X0081984Y0112795D03*
X0081984Y0113031D03*
X0075843Y0115630D03*
X0069228Y0123661D03*
X0070409Y0129094D03*
X0070173Y0131929D03*
X0070173Y0132165D03*
X0070882Y0134764D03*
X0068992Y0135709D03*
X0083874Y0133583D03*
X0078205Y0130039D03*
X0080567Y0125079D03*
X0080567Y0124843D03*
X0064268Y0113976D03*
X0064031Y0113268D03*
X0064031Y0113031D03*
X0063559Y0103346D03*
X0068047Y0100748D03*
X0068047Y0100512D03*
X0068283Y0100276D03*
D121*
X0066039Y0101929D03*
X0064150Y0109961D03*
X0069110Y0115157D03*
X0070764Y0113504D03*
X0075724Y0115866D03*
X0078323Y0111142D03*
X0078323Y0110906D03*
X0078323Y0110669D03*
X0077850Y0109961D03*
X0082339Y0112323D03*
X0089425Y0112323D03*
X0089425Y0112559D03*
X0089661Y0110197D03*
X0089425Y0109961D03*
X0089425Y0109724D03*
X0089189Y0109488D03*
X0089189Y0109252D03*
X0085409Y0105709D03*
X0086591Y0102874D03*
X0086354Y0102638D03*
X0086118Y0102402D03*
X0085173Y0101693D03*
X0084937Y0101457D03*
X0089425Y0115157D03*
X0084228Y0124134D03*
X0084465Y0124370D03*
X0080449Y0124370D03*
X0080449Y0124606D03*
X0077850Y0128150D03*
X0073598Y0127205D03*
X0070528Y0132402D03*
X0062969Y0126732D03*
X0063441Y0124370D03*
X0063677Y0123661D03*
D122*
X0064268Y0114685D03*
X0064031Y0114449D03*
X0064031Y0114213D03*
X0064031Y0103110D03*
X0064268Y0102874D03*
X0064740Y0102638D03*
X0073717Y0104528D03*
X0083874Y0105236D03*
X0083874Y0107835D03*
X0081748Y0113268D03*
X0088598Y0103819D03*
X0080567Y0125315D03*
X0080803Y0125551D03*
X0077024Y0126496D03*
X0070646Y0129567D03*
X0070646Y0129803D03*
X0070646Y0130984D03*
X0070646Y0131220D03*
X0070409Y0131457D03*
X0070646Y0136654D03*
X0077496Y0135472D03*
X0082693Y0134055D03*
D123*
X0079150Y0135000D03*
X0077969Y0130984D03*
X0082457Y0130039D03*
X0082457Y0129803D03*
X0081512Y0126496D03*
X0086236Y0125551D03*
X0073480Y0120118D03*
X0073480Y0119882D03*
X0073480Y0119646D03*
X0073717Y0116811D03*
X0076551Y0113031D03*
X0076787Y0112795D03*
X0077260Y0112323D03*
X0077496Y0111614D03*
X0077496Y0111378D03*
X0073717Y0104764D03*
X0074898Y0103110D03*
X0074898Y0102874D03*
X0064740Y0111850D03*
X0064740Y0112087D03*
X0064740Y0112559D03*
X0065921Y0118228D03*
X0072299Y0127441D03*
X0071827Y0132874D03*
D124*
X0071354Y0133583D03*
X0071591Y0134055D03*
X0072299Y0125787D03*
X0069465Y0122953D03*
X0073717Y0121535D03*
X0076551Y0122244D03*
X0082929Y0117992D03*
X0084819Y0121772D03*
X0086945Y0114449D03*
X0074189Y0103583D03*
X0066157Y0115630D03*
X0081748Y0131457D03*
D125*
X0082575Y0129567D03*
X0084937Y0121063D03*
X0085173Y0120827D03*
X0073598Y0120354D03*
X0067457Y0120827D03*
X0066039Y0118465D03*
X0065567Y0117047D03*
X0065803Y0116811D03*
X0065803Y0116575D03*
X0064858Y0112323D03*
X0075488Y0108543D03*
X0077378Y0112087D03*
X0077142Y0112559D03*
X0083992Y0108780D03*
X0071709Y0127913D03*
D126*
X0071827Y0127677D03*
X0069937Y0123189D03*
X0070646Y0122480D03*
X0079858Y0120591D03*
X0085528Y0120591D03*
X0086236Y0125315D03*
X0081748Y0126732D03*
X0082457Y0129331D03*
X0076315Y0113268D03*
X0075606Y0108780D03*
X0083874Y0109016D03*
D127*
X0083402Y0109724D03*
X0083402Y0110197D03*
X0083402Y0110433D03*
X0084583Y0111614D03*
X0084583Y0112087D03*
X0087181Y0113976D03*
X0073717Y0121772D03*
D128*
X0073598Y0121063D03*
X0073835Y0117520D03*
X0076197Y0113504D03*
X0079740Y0120354D03*
X0084937Y0121535D03*
X0085646Y0119882D03*
X0081866Y0126969D03*
X0081866Y0127205D03*
X0066039Y0116102D03*
X0083992Y0110669D03*
D129*
X0076551Y0113740D03*
D130*
X0076433Y0113976D03*
D131*
X0076551Y0114213D03*
X0082457Y0119646D03*
X0080094Y0122717D03*
D132*
X0076079Y0114921D03*
X0075843Y0114685D03*
X0075606Y0114449D03*
D133*
X0074071Y0118228D03*
X0082575Y0116102D03*
X0087063Y0114685D03*
D134*
X0086945Y0114921D03*
X0066630Y0115394D03*
X0078913Y0132638D03*
X0072299Y0136417D03*
D135*
X0086118Y0125079D03*
X0084937Y0121299D03*
X0085646Y0120354D03*
X0085646Y0120118D03*
X0085646Y0115157D03*
X0074307Y0116102D03*
X0073835Y0117047D03*
X0073835Y0117283D03*
X0073598Y0120591D03*
X0070291Y0122717D03*
D136*
X0076433Y0115157D03*
D137*
X0079740Y0115394D03*
D138*
X0082929Y0115630D03*
D139*
X0083047Y0115866D03*
X0082575Y0116575D03*
X0079268Y0132402D03*
X0072181Y0136181D03*
D140*
X0082220Y0116339D03*
D141*
X0083283Y0116811D03*
X0074071Y0117992D03*
X0067693Y0119646D03*
X0067693Y0119882D03*
X0078559Y0132874D03*
X0075252Y0135709D03*
D142*
X0071354Y0134291D03*
X0075606Y0125079D03*
X0073480Y0120827D03*
X0067575Y0120591D03*
X0082220Y0118228D03*
X0082457Y0117756D03*
X0082457Y0117520D03*
X0086236Y0124843D03*
X0081984Y0127441D03*
D143*
X0077142Y0118465D03*
D144*
X0074425Y0118701D03*
D145*
X0076433Y0118937D03*
X0076433Y0119173D03*
D146*
X0080094Y0122480D03*
X0082220Y0119409D03*
D147*
X0069701Y0119409D03*
D148*
X0074071Y0122008D03*
D149*
X0074898Y0124370D03*
D150*
X0074189Y0125315D03*
D151*
X0073598Y0125551D03*
D152*
X0079858Y0131693D03*
X0079858Y0131929D03*
D153*
X0079504Y0132165D03*
D154*
X0072654Y0135945D03*
M02*
